  0
SECTION
  2
HEADER
  9
$ACADVER
  1
AC1006
  9
$TEXTSIZE
 40
3.500
  9
$EXTMIN
 10
0.000
 20
0.000
  9
$EXTMAX
 10
293.755
 20
329.124
  9
$LIMMIN
 10
0.000
 20
0.000
  9
$LIMMAX
 10
293.755
 20
329.124
  9
$UNITMODE
 70
     0
  9
$LUNITS
 70
     2
  9
$LUPREC
 70
     4
  9
$AUNITS
 70
     0
  9
$AUPREC
 70
     6
  9
$SPLINETYPE
 70
     6
  9
$SPLINESEGS
 70
     8
  0
ENDSEC
  0
SECTION
  2
CLASSES
  0
ENDSEC
  0
SECTION
  2
TABLES
  0
TABLE
  2
LTYPE
 70
     1
  0
LTYPE
  2
CONTINUOUS
 70
    64
  3
Solid line
 72
    65
 73
     0
 40
0
  0
ENDTAB
  0
TABLE
  2
LAYER
 70
    16
  0
LAYER
  2
0
 70
    64
 62
     7
  6
CONTINUOUS
  0
LAYER
  2
1
 70
    64
 62
     7
  6
CONTINUOUS
  0
LAYER
  2
2
 70
    64
 62
     7
  6
CONTINUOUS
  0
LAYER
  2
3
 70
    64
 62
     7
  6
CONTINUOUS
  0
LAYER
  2
4
 70
    64
 62
     7
  6
CONTINUOUS
  0
LAYER
  2
5
 70
    64
 62
     7
  6
CONTINUOUS
  0
LAYER
  2
6
 70
    64
 62
     7
  6
CONTINUOUS
  0
LAYER
  2
7
 70
    64
 62
     7
  6
CONTINUOUS
  0
LAYER
  2
8
 70
    64
 62
     7
  6
CONTINUOUS
  0
LAYER
  2
9
 70
    64
 62
     7
  6
CONTINUOUS
  0
LAYER
  2
10
 70
    64
 62
     7
  6
CONTINUOUS
  0
LAYER
  2
11
 70
    64
 62
     7
  6
CONTINUOUS
  0
LAYER
  2
12
 70
    64
 62
     7
  6
CONTINUOUS
  0
LAYER
  2
13
 70
    64
 62
     7
  6
CONTINUOUS
  0
LAYER
  2
14
 70
    64
 62
     7
  6
CONTINUOUS
  0
LAYER
  2
15
 70
    64
 62
     7
  6
CONTINUOUS
  0
ENDTAB
  0
ENDSEC
  0
SECTION
  2
BLOCKS
  0
ENDSEC
  0
SECTION
  2
ENTITIES
  0
TEXT
  8
127
 10
120.901
 20
179.518
 40
2.000
 50
25.612
  1
12-12T
  0
TEXT
  8
127
 10
122.197
 20
176.813
 40
2.000
 50
25.612
  1
*
  0
POLYLINE
  8
3
 66
     1
 10
20.502
 20
154.304
  0
VERTEX
  8
3
 10
20.502
 20
154.304
  0
VERTEX
  8
3
 10
29.177
 20
156.384
  0
VERTEX
  8
3
 10
30.294
 20
156.675
  0
VERTEX
  8
3
 10
31.405
 20
156.993
  0
VERTEX
  8
3
 10
32.493
 20
157.373
  0
VERTEX
  8
3
 10
33.537
 20
157.852
  0
VERTEX
  8
3
 10
34.535
 20
158.452
  0
VERTEX
  8
3
 10
35.478
 20
159.140
  0
VERTEX
  8
3
 10
36.377
 20
159.892
  0
VERTEX
  8
3
 10
37.240
 20
160.679
  0
VERTEX
  8
3
 10
39.183
 20
162.714
  0
VERTEX
  8
3
 10
41.004
 20
164.865
  0
VERTEX
  8
3
 10
42.782
 20
167.076
  0
VERTEX
  8
3
 10
44.491
 20
169.344
  0
VERTEX
  8
3
 10
49.066
 20
175.721
  0
VERTEX
  8
3
 10
53.642
 20
182.096
  0
VERTEX
  8
3
 10
56.742
 20
186.331
  0
VERTEX
  8
3
 10
59.853
 20
190.560
  0
VERTEX
  8
3
 10
62.996
 20
194.764
  0
VERTEX
  8
3
 10
66.194
 20
198.925
  0
VERTEX
  8
3
 10
73.597
 20
208.170
  0
VERTEX
  8
3
 10
81.171
 20
217.279
  0
VERTEX
  8
3
 10
84.770
 20
221.527
  0
VERTEX
  8
3
 10
88.401
 20
225.750
  0
VERTEX
  8
3
 10
92.080
 20
229.931
  0
VERTEX
  8
3
 10
95.820
 20
234.054
  0
VERTEX
  8
3
 10
98.529
 20
236.906
  0
VERTEX
  8
3
 10
101.302
 20
239.696
  0
VERTEX
  8
3
 10
104.114
 20
242.448
  0
VERTEX
  8
3
 10
106.940
 20
245.185
  0
VERTEX
  8
3
 10
109.402
 20
247.469
  0
VERTEX
  8
3
 10
111.939
 20
249.671
  0
VERTEX
  8
3
 10
114.325
 20
251.631
  0
VERTEX
  8
3
 10
116.774
 20
253.512
  0
VERTEX
  8
3
 10
118.855
 20
254.994
  0
VERTEX
  8
3
 10
121.003
 20
256.378
  0
VERTEX
  8
3
 10
122.542
 20
257.200
  0
VERTEX
  8
3
 10
124.124
 20
257.942
  0
VERTEX
  8
3
 10
126.000
 20
258.727
  0
VERTEX
  8
3
 10
126.405
 20
258.865
  0
VERTEX
  8
3
 10
126.811
 20
258.975
  0
VERTEX
  8
3
 10
127.223
 20
259.060
  0
VERTEX
  8
3
 10
127.640
 20
259.119
  0
VERTEX
  8
3
 10
128.060
 20
259.152
  0
VERTEX
  8
3
 10
128.480
 20
259.158
  0
VERTEX
  8
3
 10
128.901
 20
259.138
  0
VERTEX
  8
3
 10
129.320
 20
259.092
  0
VERTEX
  8
3
 10
129.734
 20
259.019
  0
VERTEX
  8
3
 10
130.143
 20
258.920
  0
VERTEX
  8
3
 10
130.545
 20
258.796
  0
VERTEX
  8
3
 10
130.939
 20
258.647
  0
VERTEX
  8
3
 10
131.323
 20
258.474
  0
VERTEX
  8
3
 10
131.694
 20
258.276
  0
VERTEX
  8
3
 10
132.053
 20
258.055
  0
VERTEX
  8
3
 10
132.397
 20
257.813
  0
VERTEX
  8
3
 10
132.725
 20
257.550
  0
VERTEX
  8
3
 10
133.037
 20
257.267
  0
VERTEX
  8
3
 10
133.329
 20
256.964
  0
VERTEX
  8
3
 10
133.602
 20
256.643
  0
VERTEX
  8
3
 10
133.854
 20
256.307
  0
VERTEX
  8
3
 10
134.085
 20
255.955
  0
VERTEX
  8
3
 10
134.294
 20
255.589
  0
VERTEX
  8
3
 10
134.478
 20
255.210
  0
VERTEX
  8
3
 10
134.639
 20
254.821
  0
VERTEX
  8
3
 10
134.774
 20
254.423
  0
VERTEX
  8
3
 10
134.848
 20
254.166
  0
VERTEX
  8
3
 10
134.942
 20
253.806
  0
VERTEX
  8
3
 10
135.614
 20
251.200
  0
VERTEX
  8
3
 10
136.253
 20
248.587
  0
VERTEX
  8
3
 10
137.558
 20
242.261
  0
VERTEX
  8
3
 10
138.376
 20
237.425
  0
VERTEX
  8
3
 10
139.059
 20
233.033
  0
VERTEX
  8
3
 10
139.632
 20
228.893
  0
VERTEX
  8
3
 10
140.145
 20
225.132
  0
VERTEX
  8
3
 10
140.624
 20
222.130
  0
VERTEX
  8
3
 10
140.945
 20
220.416
  0
VERTEX
  8
3
 10
141.039
 20
220.050
  0
VERTEX
  8
3
 10
141.155
 20
219.691
  0
VERTEX
  8
3
 10
141.293
 20
219.341
  0
VERTEX
  8
3
 10
141.455
 20
219.001
  0
VERTEX
  8
3
 10
141.636
 20
218.670
  0
VERTEX
  8
3
 10
141.837
 20
218.351
  0
VERTEX
  8
3
 10
142.059
 20
218.047
  0
VERTEX
  8
3
 10
142.299
 20
217.755
  0
VERTEX
  8
3
 10
142.557
 20
217.481
  0
VERTEX
  8
3
 10
142.832
 20
217.223
  0
VERTEX
  8
3
 10
143.122
 20
216.982
  0
VERTEX
  8
3
 10
143.427
 20
216.761
  0
VERTEX
  8
3
 10
143.745
 20
216.559
  0
VERTEX
  8
3
 10
144.075
 20
216.378
  0
VERTEX
  8
3
 10
144.416
 20
216.217
  0
VERTEX
  8
3
 10
144.767
 20
216.078
  0
VERTEX
  8
3
 10
145.125
 20
215.961
  0
VERTEX
  8
3
 10
145.490
 20
215.867
  0
VERTEX
  8
3
 10
145.861
 20
215.797
  0
VERTEX
  8
3
 10
146.235
 20
215.749
  0
VERTEX
  8
3
 10
146.610
 20
215.725
  0
VERTEX
  8
3
 10
146.801
 20
215.723
  0
VERTEX
  8
3
 10
146.953
 20
215.722
  0
VERTEX
  8
3
 10
147.330
 20
215.734
  0
VERTEX
  8
3
 10
147.705
 20
215.769
  0
VERTEX
  8
3
 10
148.077
 20
215.829
  0
VERTEX
  8
3
 10
148.445
 20
215.911
  0
VERTEX
  8
3
 10
148.806
 20
216.016
  0
VERTEX
  8
3
 10
149.161
 20
216.144
  0
VERTEX
  8
3
 10
149.508
 20
216.294
  0
VERTEX
  8
3
 10
149.843
 20
216.465
  0
VERTEX
  8
3
 10
150.168
 20
216.657
  0
VERTEX
  8
3
 10
150.480
 20
216.869
  0
VERTEX
  8
3
 10
150.778
 20
217.099
  0
VERTEX
  8
3
 10
151.060
 20
217.348
  0
VERTEX
  8
3
 10
151.327
 20
217.616
  0
VERTEX
  8
3
 10
151.576
 20
217.898
  0
VERTEX
  8
3
 10
151.807
 20
218.196
  0
VERTEX
  8
3
 10
152.019
 20
218.507
  0
VERTEX
  8
3
 10
152.210
 20
218.832
  0
VERTEX
  8
3
 10
152.382
 20
219.168
  0
VERTEX
  8
3
 10
152.531
 20
219.514
  0
VERTEX
  8
3
 10
152.659
 20
219.868
  0
VERTEX
  8
3
 10
152.764
 20
220.230
  0
VERTEX
  8
3
 10
152.844
 20
220.583
  0
VERTEX
  8
3
 10
153.130
 20
222.130
  0
VERTEX
  8
3
 10
153.608
 20
225.132
  0
VERTEX
  8
3
 10
154.122
 20
228.893
  0
VERTEX
  8
3
 10
154.694
 20
233.034
  0
VERTEX
  8
3
 10
155.377
 20
237.426
  0
VERTEX
  8
3
 10
156.196
 20
242.261
  0
VERTEX
  8
3
 10
157.500
 20
248.587
  0
VERTEX
  8
3
 10
158.139
 20
251.201
  0
VERTEX
  8
3
 10
158.810
 20
253.807
  0
VERTEX
  8
3
 10
158.905
 20
254.167
  0
VERTEX
  8
3
 10
159.284
 20
255.230
  0
VERTEX
  8
3
 10
159.835
 20
256.216
  0
VERTEX
  8
3
 10
160.545
 20
257.094
  0
VERTEX
  8
3
 10
161.392
 20
257.841
  0
VERTEX
  8
3
 10
162.353
 20
258.434
  0
VERTEX
  8
3
 10
163.399
 20
258.859
  0
VERTEX
  8
3
 10
164.502
 20
259.101
  0
VERTEX
  8
3
 10
165.630
 20
259.156
  0
VERTEX
  8
3
 10
166.705
 20
259.028
  0
VERTEX
  8
3
 10
167.755
 20
258.727
  0
VERTEX
  8
3
 10
169.628
 20
257.944
  0
VERTEX
  8
3
 10
171.211
 20
257.201
  0
VERTEX
  8
3
 10
172.751
 20
256.379
  0
VERTEX
  8
3
 10
174.898
 20
254.995
  0
VERTEX
  8
3
 10
176.978
 20
253.513
  0
VERTEX
  8
3
 10
179.427
 20
251.632
  0
VERTEX
  8
3
 10
181.814
 20
249.672
  0
VERTEX
  8
3
 10
184.351
 20
247.471
  0
VERTEX
  8
3
 10
186.813
 20
245.186
  0
VERTEX
  8
3
 10
189.639
 20
242.449
  0
VERTEX
  8
3
 10
192.451
 20
239.698
  0
VERTEX
  8
3
 10
195.224
 20
236.907
  0
VERTEX
  8
3
 10
197.933
 20
234.056
  0
VERTEX
  8
3
 10
201.675
 20
229.932
  0
VERTEX
  8
3
 10
205.352
 20
225.751
  0
VERTEX
  8
3
 10
208.984
 20
221.530
  0
VERTEX
  8
3
 10
212.584
 20
217.281
  0
VERTEX
  8
3
 10
220.157
 20
208.173
  0
VERTEX
  8
3
 10
227.561
 20
198.927
  0
VERTEX
  8
3
 10
230.759
 20
194.766
  0
VERTEX
  8
3
 10
233.902
 20
190.563
  0
VERTEX
  8
3
 10
237.012
 20
186.334
  0
VERTEX
  8
3
 10
240.114
 20
182.099
  0
VERTEX
  8
3
 10
244.689
 20
175.724
  0
VERTEX
  8
3
 10
249.264
 20
169.348
  0
VERTEX
  8
3
 10
250.972
 20
167.080
  0
VERTEX
  8
3
 10
252.752
 20
164.868
  0
VERTEX
  8
3
 10
254.573
 20
162.718
  0
VERTEX
  8
3
 10
256.515
 20
160.682
  0
VERTEX
  8
3
 10
257.378
 20
159.895
  0
VERTEX
  8
3
 10
258.278
 20
159.144
  0
VERTEX
  8
3
 10
259.222
 20
158.456
  0
VERTEX
  8
3
 10
260.219
 20
157.856
  0
VERTEX
  8
3
 10
261.263
 20
157.376
  0
VERTEX
  8
3
 10
262.351
 20
156.997
  0
VERTEX
  8
3
 10
263.462
 20
156.679
  0
VERTEX
  8
3
 10
264.579
 20
156.387
  0
VERTEX
  8
3
 10
268.906
 20
155.326
  0
VERTEX
  8
3
 10
270.804
 20
154.896
  0
VERTEX
  8
3
 10
272.492
 20
149.902
  0
VERTEX
  8
3
 10
273.620
 20
146.564
  0
VERTEX
  8
3
 10
269.025
 20
147.608
  0
VERTEX
  8
3
 10
264.436
 20
148.678
  0
VERTEX
  8
3
 10
261.344
 20
149.536
  0
VERTEX
  8
3
 10
260.262
 20
149.869
  0
VERTEX
  8
3
 10
259.144
 20
150.211
  0
VERTEX
  8
3
 10
257.904
 20
150.659
  0
VERTEX
  8
3
 10
256.653
 20
151.262
  0
VERTEX
  8
3
 10
255.219
 20
152.138
  0
VERTEX
  8
3
 10
253.885
 20
153.075
  0
VERTEX
  8
3
 10
252.607
 20
154.101
  0
VERTEX
  8
3
 10
251.413
 20
155.205
  0
VERTEX
  8
3
 10
249.623
 20
157.061
  0
VERTEX
  8
3
 10
247.935
 20
158.966
  0
VERTEX
  8
3
 10
246.329
 20
160.913
  0
VERTEX
  8
3
 10
244.788
 20
162.887
  0
VERTEX
  8
3
 10
241.127
 20
167.802
  0
VERTEX
  8
3
 10
237.557
 20
172.758
  0
VERTEX
  8
3
 10
234.034
 20
177.691
  0
VERTEX
  8
3
 10
230.486
 20
182.587
  0
VERTEX
  8
3
 10
225.696
 20
189.061
  0
VERTEX
  8
3
 10
220.820
 20
195.446
  0
VERTEX
  8
3
 10
214.890
 20
202.852
  0
VERTEX
  8
3
 10
208.839
 20
210.184
  0
VERTEX
  8
3
 10
203.466
 20
216.556
  0
VERTEX
  8
3
 10
197.995
 20
222.828
  0
VERTEX
  8
3
 10
192.828
 20
228.539
  0
VERTEX
  8
3
 10
187.531
 20
234.088
  0
VERTEX
  8
3
 10
182.649
 20
238.836
  0
VERTEX
  8
3
 10
177.600
 20
243.385
  0
VERTEX
  8
3
 10
173.780
 20
246.524
  0
VERTEX
  8
3
 10
171.816
 20
247.986
  0
VERTEX
  8
3
 10
169.821
 20
249.405
  0
VERTEX
  8
3
 10
168.897
 20
249.975
  0
VERTEX
  8
3
 10
167.894
 20
250.500
  0
VERTEX
  8
3
 10
166.799
 20
251.010
  0
VERTEX
  8
3
 10
165.962
 20
251.376
  0
VERTEX
  8
3
 10
165.588
 20
249.839
  0
VERTEX
  8
3
 10
164.508
 20
245.323
  0
VERTEX
  8
3
 10
163.562
 20
240.834
  0
VERTEX
  8
3
 10
162.611
 20
235.161
  0
VERTEX
  8
3
 10
161.767
 20
229.420
  0
VERTEX
  8
3
 10
160.965
 20
223.638
  0
VERTEX
  8
3
 10
160.205
 20
217.845
  0
VERTEX
  8
3
 10
158.942
 20
207.803
  0
VERTEX
  8
3
 10
157.769
 20
198.485
  0
VERTEX
  8
3
 10
157.598
 20
197.515
  0
VERTEX
  8
3
 10
157.316
 20
196.493
  0
VERTEX
  8
3
 10
156.936
 20
195.502
  0
VERTEX
  8
3
 10
156.463
 20
194.554
  0
VERTEX
  8
3
 10
155.900
 20
193.655
  0
VERTEX
  8
3
 10
155.254
 20
192.816
  0
VERTEX
  8
3
 10
154.532
 20
192.042
  0
VERTEX
  8
3
 10
153.735
 20
191.340
  0
VERTEX
  8
3
 10
152.877
 20
190.719
  0
VERTEX
  8
3
 10
151.963
 20
190.184
  0
VERTEX
  8
3
 10
151.002
 20
189.738
  0
VERTEX
  8
3
 10
150.000
 20
189.387
  0
VERTEX
  8
3
 10
148.972
 20
189.135
  0
VERTEX
  8
3
 10
147.927
 20
188.983
  0
VERTEX
  8
3
 10
146.917
 20
188.932
  0
VERTEX
  8
3
 10
146.200
 20
188.955
  0
VERTEX
  8
3
 10
145.511
 20
189.019
  0
VERTEX
  8
3
 10
144.827
 20
189.129
  0
VERTEX
  8
3
 10
144.157
 20
189.278
  0
VERTEX
  8
3
 10
143.491
 20
189.471
  0
VERTEX
  8
3
 10
142.839
 20
189.706
  0
VERTEX
  8
3
 10
142.207
 20
189.980
  0
VERTEX
  8
3
 10
141.590
 20
190.293
  0
VERTEX
  8
3
 10
140.994
 20
190.646
  0
VERTEX
  8
3
 10
140.424
 20
191.034
  0
VERTEX
  8
3
 10
139.878
 20
191.457
  0
VERTEX
  8
3
 10
139.360
 20
191.914
  0
VERTEX
  8
3
 10
138.870
 20
192.403
  0
VERTEX
  8
3
 10
138.412
 20
192.924
  0
VERTEX
  8
3
 10
137.991
 20
193.467
  0
VERTEX
  8
3
 10
137.602
 20
194.038
  0
VERTEX
  8
3
 10
137.249
 20
194.635
  0
VERTEX
  8
3
 10
136.936
 20
195.249
  0
VERTEX
  8
3
 10
136.661
 20
195.884
  0
VERTEX
  8
3
 10
136.427
 20
196.534
  0
VERTEX
  8
3
 10
136.233
 20
197.200
  0
VERTEX
  8
3
 10
136.084
 20
197.873
  0
VERTEX
  8
3
 10
135.982
 20
198.515
  0
VERTEX
  8
3
 10
135.955
 20
198.737
  0
VERTEX
  8
3
 10
134.812
 20
207.802
  0
VERTEX
  8
3
 10
133.548
 20
217.844
  0
VERTEX
  8
3
 10
132.789
 20
223.637
  0
VERTEX
  8
3
 10
131.986
 20
229.418
  0
VERTEX
  8
3
 10
131.142
 20
235.161
  0
VERTEX
  8
3
 10
130.192
 20
240.833
  0
VERTEX
  8
3
 10
129.245
 20
245.322
  0
VERTEX
  8
3
 10
128.164
 20
249.839
  0
VERTEX
  8
3
 10
127.790
 20
251.375
  0
VERTEX
  8
3
 10
126.954
 20
251.008
  0
VERTEX
  8
3
 10
125.860
 20
250.499
  0
VERTEX
  8
3
 10
124.855
 20
249.974
  0
VERTEX
  8
3
 10
123.931
 20
249.404
  0
VERTEX
  8
3
 10
121.936
 20
247.985
  0
VERTEX
  8
3
 10
119.972
 20
246.524
  0
VERTEX
  8
3
 10
116.153
 20
243.384
  0
VERTEX
  8
3
 10
111.104
 20
238.834
  0
VERTEX
  8
3
 10
106.222
 20
234.086
  0
VERTEX
  8
3
 10
100.925
 20
228.537
  0
VERTEX
  8
3
 10
95.759
 20
222.826
  0
VERTEX
  8
3
 10
90.288
 20
216.554
  0
VERTEX
  8
3
 10
84.915
 20
210.182
  0
VERTEX
  8
3
 10
78.864
 20
202.850
  0
VERTEX
  8
3
 10
72.934
 20
195.443
  0
VERTEX
  8
3
 10
68.058
 20
189.059
  0
VERTEX
  8
3
 10
63.270
 20
182.584
  0
VERTEX
  8
3
 10
59.721
 20
177.689
  0
VERTEX
  8
3
 10
56.191
 20
172.745
  0
VERTEX
  8
3
 10
52.629
 20
167.799
  0
VERTEX
  8
3
 10
48.968
 20
162.883
  0
VERTEX
  8
3
 10
47.427
 20
160.910
  0
VERTEX
  8
3
 10
45.820
 20
158.963
  0
VERTEX
  8
3
 10
44.132
 20
157.057
  0
VERTEX
  8
3
 10
42.342
 20
155.201
  0
VERTEX
  8
3
 10
41.148
 20
154.098
  0
VERTEX
  8
3
 10
39.872
 20
153.072
  0
VERTEX
  8
3
 10
38.537
 20
152.135
  0
VERTEX
  8
3
 10
37.103
 20
151.258
  0
VERTEX
  8
3
 10
35.852
 20
150.656
  0
VERTEX
  8
3
 10
34.612
 20
150.207
  0
VERTEX
  8
3
 10
33.493
 20
149.865
  0
VERTEX
  8
3
 10
32.412
 20
149.532
  0
VERTEX
  8
3
 10
29.323
 20
148.676
  0
VERTEX
  8
3
 10
24.205
 20
147.485
  0
VERTEX
  8
3
 10
18.264
 20
146.157
  0
VERTEX
  8
3
 10
19.144
 20
149.428
  0
VERTEX
  8
3
 10
20.502
 20
154.304
  0
SEQEND
  8
3
  0
POLYLINE
  8
3
 66
     1
 10
20.502
 20
23.814
  0
VERTEX
  8
3
 10
20.502
 20
23.814
  0
VERTEX
  8
3
 10
29.177
 20
25.894
  0
VERTEX
  8
3
 10
30.294
 20
26.185
  0
VERTEX
  8
3
 10
31.405
 20
26.502
  0
VERTEX
  8
3
 10
32.493
 20
26.882
  0
VERTEX
  8
3
 10
33.537
 20
27.361
  0
VERTEX
  8
3
 10
34.535
 20
27.962
  0
VERTEX
  8
3
 10
35.478
 20
28.650
  0
VERTEX
  8
3
 10
36.377
 20
29.401
  0
VERTEX
  8
3
 10
37.240
 20
30.188
  0
VERTEX
  8
3
 10
39.183
 20
32.223
  0
VERTEX
  8
3
 10
41.004
 20
34.375
  0
VERTEX
  8
3
 10
42.782
 20
36.586
  0
VERTEX
  8
3
 10
44.491
 20
38.854
  0
VERTEX
  8
3
 10
49.066
 20
45.230
  0
VERTEX
  8
3
 10
53.642
 20
51.605
  0
VERTEX
  8
3
 10
56.742
 20
55.841
  0
VERTEX
  8
3
 10
59.853
 20
60.070
  0
VERTEX
  8
3
 10
62.996
 20
64.274
  0
VERTEX
  8
3
 10
66.194
 20
68.435
  0
VERTEX
  8
3
 10
73.597
 20
77.680
  0
VERTEX
  8
3
 10
81.171
 20
86.789
  0
VERTEX
  8
3
 10
84.770
 20
91.037
  0
VERTEX
  8
3
 10
88.401
 20
95.259
  0
VERTEX
  8
3
 10
92.080
 20
99.440
  0
VERTEX
  8
3
 10
95.820
 20
103.564
  0
VERTEX
  8
3
 10
98.529
 20
106.416
  0
VERTEX
  8
3
 10
101.302
 20
109.206
  0
VERTEX
  8
3
 10
104.114
 20
111.957
  0
VERTEX
  8
3
 10
106.940
 20
114.694
  0
VERTEX
  8
3
 10
109.402
 20
116.979
  0
VERTEX
  8
3
 10
111.939
 20
119.181
  0
VERTEX
  8
3
 10
114.325
 20
121.140
  0
VERTEX
  8
3
 10
116.774
 20
123.021
  0
VERTEX
  8
3
 10
118.855
 20
124.504
  0
VERTEX
  8
3
 10
121.003
 20
125.887
  0
VERTEX
  8
3
 10
122.542
 20
126.709
  0
VERTEX
  8
3
 10
124.124
 20
127.452
  0
VERTEX
  8
3
 10
126.000
 20
128.237
  0
VERTEX
  8
3
 10
126.405
 20
128.374
  0
VERTEX
  8
3
 10
126.811
 20
128.485
  0
VERTEX
  8
3
 10
127.223
 20
128.570
  0
VERTEX
  8
3
 10
127.640
 20
128.629
  0
VERTEX
  8
3
 10
128.060
 20
128.662
  0
VERTEX
  8
3
 10
128.480
 20
128.668
  0
VERTEX
  8
3
 10
128.901
 20
128.647
  0
VERTEX
  8
3
 10
129.320
 20
128.601
  0
VERTEX
  8
3
 10
129.734
 20
128.528
  0
VERTEX
  8
3
 10
130.143
 20
128.429
  0
VERTEX
  8
3
 10
130.545
 20
128.306
  0
VERTEX
  8
3
 10
130.939
 20
128.156
  0
VERTEX
  8
3
 10
131.323
 20
127.983
  0
VERTEX
  8
3
 10
131.694
 20
127.785
  0
VERTEX
  8
3
 10
132.053
 20
127.565
  0
VERTEX
  8
3
 10
132.397
 20
127.323
  0
VERTEX
  8
3
 10
132.725
 20
127.059
  0
VERTEX
  8
3
 10
133.037
 20
126.776
  0
VERTEX
  8
3
 10
133.329
 20
126.474
  0
VERTEX
  8
3
 10
133.602
 20
126.153
  0
VERTEX
  8
3
 10
133.854
 20
125.816
  0
VERTEX
  8
3
 10
134.085
 20
125.464
  0
VERTEX
  8
3
 10
134.294
 20
125.098
  0
VERTEX
  8
3
 10
134.478
 20
124.720
  0
VERTEX
  8
3
 10
134.639
 20
124.331
  0
VERTEX
  8
3
 10
134.774
 20
123.933
  0
VERTEX
  8
3
 10
134.848
 20
123.675
  0
VERTEX
  8
3
 10
134.942
 20
123.316
  0
VERTEX
  8
3
 10
135.614
 20
120.710
  0
VERTEX
  8
3
 10
136.253
 20
118.097
  0
VERTEX
  8
3
 10
137.558
 20
111.770
  0
VERTEX
  8
3
 10
138.376
 20
106.935
  0
VERTEX
  8
3
 10
139.059
 20
102.543
  0
VERTEX
  8
3
 10
139.632
 20
98.402
  0
VERTEX
  8
3
 10
140.145
 20
94.641
  0
VERTEX
  8
3
 10
140.624
 20
91.639
  0
VERTEX
  8
3
 10
140.945
 20
89.925
  0
VERTEX
  8
3
 10
141.039
 20
89.559
  0
VERTEX
  8
3
 10
141.155
 20
89.201
  0
VERTEX
  8
3
 10
141.293
 20
88.851
  0
VERTEX
  8
3
 10
141.455
 20
88.510
  0
VERTEX
  8
3
 10
141.636
 20
88.180
  0
VERTEX
  8
3
 10
141.837
 20
87.861
  0
VERTEX
  8
3
 10
142.059
 20
87.556
  0
VERTEX
  8
3
 10
142.299
 20
87.265
  0
VERTEX
  8
3
 10
142.557
 20
86.990
  0
VERTEX
  8
3
 10
142.832
 20
86.733
  0
VERTEX
  8
3
 10
143.122
 20
86.492
  0
VERTEX
  8
3
 10
143.427
 20
86.270
  0
VERTEX
  8
3
 10
143.745
 20
86.069
  0
VERTEX
  8
3
 10
144.075
 20
85.887
  0
VERTEX
  8
3
 10
144.416
 20
85.726
  0
VERTEX
  8
3
 10
144.767
 20
85.587
  0
VERTEX
  8
3
 10
145.125
 20
85.471
  0
VERTEX
  8
3
 10
145.490
 20
85.377
  0
VERTEX
  8
3
 10
145.861
 20
85.306
  0
VERTEX
  8
3
 10
146.235
 20
85.258
  0
VERTEX
  8
3
 10
146.610
 20
85.235
  0
VERTEX
  8
3
 10
146.801
 20
85.232
  0
VERTEX
  8
3
 10
146.953
 20
85.232
  0
VERTEX
  8
3
 10
147.330
 20
85.244
  0
VERTEX
  8
3
 10
147.705
 20
85.279
  0
VERTEX
  8
3
 10
148.077
 20
85.338
  0
VERTEX
  8
3
 10
148.445
 20
85.421
  0
VERTEX
  8
3
 10
148.806
 20
85.525
  0
VERTEX
  8
3
 10
149.161
 20
85.653
  0
VERTEX
  8
3
 10
149.508
 20
85.803
  0
VERTEX
  8
3
 10
149.843
 20
85.975
  0
VERTEX
  8
3
 10
150.168
 20
86.166
  0
VERTEX
  8
3
 10
150.480
 20
86.378
  0
VERTEX
  8
3
 10
150.778
 20
86.609
  0
VERTEX
  8
3
 10
151.060
 20
86.858
  0
VERTEX
  8
3
 10
151.327
 20
87.125
  0
VERTEX
  8
3
 10
151.576
 20
87.407
  0
VERTEX
  8
3
 10
151.807
 20
87.706
  0
VERTEX
  8
3
 10
152.019
 20
88.017
  0
VERTEX
  8
3
 10
152.210
 20
88.341
  0
VERTEX
  8
3
 10
152.382
 20
88.677
  0
VERTEX
  8
3
 10
152.531
 20
89.023
  0
VERTEX
  8
3
 10
152.659
 20
89.378
  0
VERTEX
  8
3
 10
152.764
 20
89.740
  0
VERTEX
  8
3
 10
152.844
 20
90.093
  0
VERTEX
  8
3
 10
153.130
 20
91.639
  0
VERTEX
  8
3
 10
153.608
 20
94.641
  0
VERTEX
  8
3
 10
154.122
 20
98.402
  0
VERTEX
  8
3
 10
154.694
 20
102.543
  0
VERTEX
  8
3
 10
155.377
 20
106.935
  0
VERTEX
  8
3
 10
156.196
 20
111.771
  0
VERTEX
  8
3
 10
157.500
 20
118.097
  0
VERTEX
  8
3
 10
158.139
 20
120.710
  0
VERTEX
  8
3
 10
158.810
 20
123.316
  0
VERTEX
  8
3
 10
158.905
 20
123.677
  0
VERTEX
  8
3
 10
159.284
 20
124.740
  0
VERTEX
  8
3
 10
159.835
 20
125.725
  0
VERTEX
  8
3
 10
160.545
 20
126.603
  0
VERTEX
  8
3
 10
161.392
 20
127.350
  0
VERTEX
  8
3
 10
162.353
 20
127.944
  0
VERTEX
  8
3
 10
163.399
 20
128.369
  0
VERTEX
  8
3
 10
164.502
 20
128.611
  0
VERTEX
  8
3
 10
165.630
 20
128.665
  0
VERTEX
  8
3
 10
166.705
 20
128.537
  0
VERTEX
  8
3
 10
167.755
 20
128.236
  0
VERTEX
  8
3
 10
169.628
 20
127.453
  0
VERTEX
  8
3
 10
171.211
 20
126.710
  0
VERTEX
  8
3
 10
172.751
 20
125.888
  0
VERTEX
  8
3
 10
174.898
 20
124.505
  0
VERTEX
  8
3
 10
176.978
 20
123.022
  0
VERTEX
  8
3
 10
179.427
 20
121.142
  0
VERTEX
  8
3
 10
181.814
 20
119.182
  0
VERTEX
  8
3
 10
184.351
 20
116.981
  0
VERTEX
  8
3
 10
186.813
 20
114.695
  0
VERTEX
  8
3
 10
189.639
 20
111.959
  0
VERTEX
  8
3
 10
192.451
 20
109.207
  0
VERTEX
  8
3
 10
195.224
 20
106.417
  0
VERTEX
  8
3
 10
197.933
 20
103.565
  0
VERTEX
  8
3
 10
201.675
 20
99.442
  0
VERTEX
  8
3
 10
205.352
 20
95.261
  0
VERTEX
  8
3
 10
208.984
 20
91.039
  0
VERTEX
  8
3
 10
212.584
 20
86.790
  0
VERTEX
  8
3
 10
220.157
 20
77.683
  0
VERTEX
  8
3
 10
227.561
 20
68.437
  0
VERTEX
  8
3
 10
230.759
 20
64.276
  0
VERTEX
  8
3
 10
233.902
 20
60.072
  0
VERTEX
  8
3
 10
237.012
 20
55.844
  0
VERTEX
  8
3
 10
240.114
 20
51.608
  0
VERTEX
  8
3
 10
244.689
 20
45.233
  0
VERTEX
  8
3
 10
249.264
 20
38.858
  0
VERTEX
  8
3
 10
250.972
 20
36.589
  0
VERTEX
  8
3
 10
252.752
 20
34.378
  0
VERTEX
  8
3
 10
254.573
 20
32.227
  0
VERTEX
  8
3
 10
256.515
 20
30.191
  0
VERTEX
  8
3
 10
257.378
 20
29.404
  0
VERTEX
  8
3
 10
258.278
 20
28.654
  0
VERTEX
  8
3
 10
259.222
 20
27.965
  0
VERTEX
  8
3
 10
260.219
 20
27.365
  0
VERTEX
  8
3
 10
261.263
 20
26.886
  0
VERTEX
  8
3
 10
262.351
 20
26.506
  0
VERTEX
  8
3
 10
263.462
 20
26.188
  0
VERTEX
  8
3
 10
264.579
 20
25.897
  0
VERTEX
  8
3
 10
268.906
 20
24.835
  0
VERTEX
  8
3
 10
270.804
 20
24.405
  0
VERTEX
  8
3
 10
272.492
 20
19.411
  0
VERTEX
  8
3
 10
273.620
 20
16.073
  0
VERTEX
  8
3
 10
269.025
 20
17.117
  0
VERTEX
  8
3
 10
264.436
 20
18.188
  0
VERTEX
  8
3
 10
261.344
 20
19.045
  0
VERTEX
  8
3
 10
260.262
 20
19.378
  0
VERTEX
  8
3
 10
259.144
 20
19.720
  0
VERTEX
  8
3
 10
257.904
 20
20.169
  0
VERTEX
  8
3
 10
256.653
 20
20.771
  0
VERTEX
  8
3
 10
255.219
 20
21.648
  0
VERTEX
  8
3
 10
253.885
 20
22.585
  0
VERTEX
  8
3
 10
252.607
 20
23.611
  0
VERTEX
  8
3
 10
251.413
 20
24.714
  0
VERTEX
  8
3
 10
249.623
 20
26.571
  0
VERTEX
  8
3
 10
247.935
 20
28.475
  0
VERTEX
  8
3
 10
246.329
 20
30.423
  0
VERTEX
  8
3
 10
244.788
 20
32.397
  0
VERTEX
  8
3
 10
241.127
 20
37.312
  0
VERTEX
  8
3
 10
237.557
 20
42.268
  0
VERTEX
  8
3
 10
234.034
 20
47.200
  0
VERTEX
  8
3
 10
230.486
 20
52.096
  0
VERTEX
  8
3
 10
225.696
 20
58.571
  0
VERTEX
  8
3
 10
220.820
 20
64.956
  0
VERTEX
  8
3
 10
214.890
 20
72.362
  0
VERTEX
  8
3
 10
208.839
 20
79.694
  0
VERTEX
  8
3
 10
203.466
 20
86.065
  0
VERTEX
  8
3
 10
197.995
 20
92.338
  0
VERTEX
  8
3
 10
192.828
 20
98.049
  0
VERTEX
  8
3
 10
187.531
 20
103.598
  0
VERTEX
  8
3
 10
182.649
 20
108.345
  0
VERTEX
  8
3
 10
177.600
 20
112.895
  0
VERTEX
  8
3
 10
173.780
 20
116.033
  0
VERTEX
  8
3
 10
171.816
 20
117.495
  0
VERTEX
  8
3
 10
169.821
 20
118.914
  0
VERTEX
  8
3
 10
168.897
 20
119.484
  0
VERTEX
  8
3
 10
167.894
 20
120.010
  0
VERTEX
  8
3
 10
166.799
 20
120.519
  0
VERTEX
  8
3
 10
165.962
 20
120.885
  0
VERTEX
  8
3
 10
165.588
 20
119.349
  0
VERTEX
  8
3
 10
164.508
 20
114.832
  0
VERTEX
  8
3
 10
163.562
 20
110.343
  0
VERTEX
  8
3
 10
162.611
 20
104.670
  0
VERTEX
  8
3
 10
161.767
 20
98.929
  0
VERTEX
  8
3
 10
160.965
 20
93.147
  0
VERTEX
  8
3
 10
160.205
 20
87.355
  0
VERTEX
  8
3
 10
158.942
 20
77.313
  0
VERTEX
  8
3
 10
157.769
 20
67.995
  0
VERTEX
  8
3
 10
157.598
 20
67.024
  0
VERTEX
  8
3
 10
157.316
 20
66.002
  0
VERTEX
  8
3
 10
156.936
 20
65.012
  0
VERTEX
  8
3
 10
156.463
 20
64.063
  0
VERTEX
  8
3
 10
155.900
 20
63.164
  0
VERTEX
  8
3
 10
155.254
 20
62.326
  0
VERTEX
  8
3
 10
154.532
 20
61.552
  0
VERTEX
  8
3
 10
153.735
 20
60.849
  0
VERTEX
  8
3
 10
152.877
 20
60.229
  0
VERTEX
  8
3
 10
151.963
 20
59.694
  0
VERTEX
  8
3
 10
151.002
 20
59.248
  0
VERTEX
  8
3
 10
150.000
 20
58.897
  0
VERTEX
  8
3
 10
148.972
 20
58.644
  0
VERTEX
  8
3
 10
147.927
 20
58.492
  0
VERTEX
  8
3
 10
146.917
 20
58.441
  0
VERTEX
  8
3
 10
146.200
 20
58.465
  0
VERTEX
  8
3
 10
145.511
 20
58.529
  0
VERTEX
  8
3
 10
144.827
 20
58.638
  0
VERTEX
  8
3
 10
144.157
 20
58.787
  0
VERTEX
  8
3
 10
143.491
 20
58.981
  0
VERTEX
  8
3
 10
142.839
 20
59.216
  0
VERTEX
  8
3
 10
142.207
 20
59.489
  0
VERTEX
  8
3
 10
141.590
 20
59.803
  0
VERTEX
  8
3
 10
140.994
 20
60.156
  0
VERTEX
  8
3
 10
140.424
 20
60.544
  0
VERTEX
  8
3
 10
139.878
 20
60.966
  0
VERTEX
  8
3
 10
139.360
 20
61.423
  0
VERTEX
  8
3
 10
138.870
 20
61.913
  0
VERTEX
  8
3
 10
138.412
 20
62.434
  0
VERTEX
  8
3
 10
137.991
 20
62.977
  0
VERTEX
  8
3
 10
137.602
 20
63.548
  0
VERTEX
  8
3
 10
137.249
 20
64.144
  0
VERTEX
  8
3
 10
136.936
 20
64.759
  0
VERTEX
  8
3
 10
136.661
 20
65.393
  0
VERTEX
  8
3
 10
136.427
 20
66.044
  0
VERTEX
  8
3
 10
136.233
 20
66.710
  0
VERTEX
  8
3
 10
136.084
 20
67.382
  0
VERTEX
  8
3
 10
135.982
 20
68.024
  0
VERTEX
  8
3
 10
135.955
 20
68.246
  0
VERTEX
  8
3
 10
134.812
 20
77.311
  0
VERTEX
  8
3
 10
133.548
 20
87.354
  0
VERTEX
  8
3
 10
132.789
 20
93.146
  0
VERTEX
  8
3
 10
131.986
 20
98.928
  0
VERTEX
  8
3
 10
131.142
 20
104.670
  0
VERTEX
  8
3
 10
130.192
 20
110.343
  0
VERTEX
  8
3
 10
129.245
 20
114.832
  0
VERTEX
  8
3
 10
128.164
 20
119.349
  0
VERTEX
  8
3
 10
127.790
 20
120.884
  0
VERTEX
  8
3
 10
126.954
 20
120.518
  0
VERTEX
  8
3
 10
125.860
 20
120.009
  0
VERTEX
  8
3
 10
124.855
 20
119.483
  0
VERTEX
  8
3
 10
123.931
 20
118.914
  0
VERTEX
  8
3
 10
121.936
 20
117.495
  0
VERTEX
  8
3
 10
119.972
 20
116.033
  0
VERTEX
  8
3
 10
116.153
 20
112.893
  0
VERTEX
  8
3
 10
111.104
 20
108.344
  0
VERTEX
  8
3
 10
106.222
 20
103.596
  0
VERTEX
  8
3
 10
100.925
 20
98.047
  0
VERTEX
  8
3
 10
95.759
 20
92.336
  0
VERTEX
  8
3
 10
90.288
 20
86.064
  0
VERTEX
  8
3
 10
84.915
 20
79.691
  0
VERTEX
  8
3
 10
78.864
 20
72.359
  0
VERTEX
  8
3
 10
72.934
 20
64.953
  0
VERTEX
  8
3
 10
68.058
 20
58.568
  0
VERTEX
  8
3
 10
63.270
 20
52.094
  0
VERTEX
  8
3
 10
59.721
 20
47.198
  0
VERTEX
  8
3
 10
56.191
 20
42.255
  0
VERTEX
  8
3
 10
52.629
 20
37.309
  0
VERTEX
  8
3
 10
48.968
 20
32.393
  0
VERTEX
  8
3
 10
47.427
 20
30.419
  0
VERTEX
  8
3
 10
45.820
 20
28.473
  0
VERTEX
  8
3
 10
44.132
 20
26.567
  0
VERTEX
  8
3
 10
42.342
 20
24.710
  0
VERTEX
  8
3
 10
41.148
 20
23.608
  0
VERTEX
  8
3
 10
39.872
 20
22.581
  0
VERTEX
  8
3
 10
38.537
 20
21.644
  0
VERTEX
  8
3
 10
37.103
 20
20.767
  0
VERTEX
  8
3
 10
35.852
 20
20.165
  0
VERTEX
  8
3
 10
34.612
 20
19.716
  0
VERTEX
  8
3
 10
33.493
 20
19.374
  0
VERTEX
  8
3
 10
32.412
 20
19.042
  0
VERTEX
  8
3
 10
29.323
 20
18.185
  0
VERTEX
  8
3
 10
24.205
 20
16.995
  0
VERTEX
  8
3
 10
18.264
 20
15.667
  0
VERTEX
  8
3
 10
19.144
 20
18.938
  0
VERTEX
  8
3
 10
20.502
 20
23.814
  0
SEQEND
  8
3
  0
CIRCLE
  8
3
 10
146.879
 20
317.680
 40
0.750
  0
CIRCLE
  8
3
 10
219.731
 20
275.318
 40
0.750
  0
CIRCLE
  8
3
 10
264.076
 20
162.277
 40
0.750
  0
CIRCLE
  8
3
 10
219.735
 20
144.832
 40
0.750
  0
CIRCLE
  8
3
 10
264.099
 20
31.781
 40
0.750
  0
CIRCLE
  8
3
 10
146.870
 20
56.691
 40
0.750
  0
CIRCLE
  8
3
 10
27.928
 20
32.406
 40
0.750
  0
CIRCLE
  8
3
 10
74.030
 20
144.831
 40
0.750
  0
CIRCLE
  8
3
 10
27.929
 20
162.881
 40
0.750
  0
CIRCLE
  8
3
 10
74.038
 20
275.286
 40
0.750
  0
CIRCLE
  8
3
 10
146.855
 20
187.161
 40
0.750
  0
POLYLINE
  8
1
 66
     1
 10
54.597
 20
251.063
  0
VERTEX
  8
1
 10
54.597
 20
251.063
  0
VERTEX
  8
1
 10
57.817
 20
257.175
  0
VERTEX
  8
1
 10
58.054
 20
257.611
  0
VERTEX
  8
1
 10
61.718
 20
264.167
  0
VERTEX
  8
1
 10
61.947
 20
264.566
  0
VERTEX
  8
1
 10
65.805
 20
271.112
  0
VERTEX
  8
1
 10
65.955
 20
271.362
  0
VERTEX
  8
1
 10
67.627
 20
274.106
  0
VERTEX
  8
1
 10
69.407
 20
276.969
  0
VERTEX
  8
1
 10
71.145
 20
279.689
  0
VERTEX
  8
1
 10
71.310
 20
279.943
  0
VERTEX
  8
1
 10
72.995
 20
282.495
  0
VERTEX
  8
1
 10
73.191
 20
282.787
  0
VERTEX
  8
1
 10
74.890
 20
285.265
  0
VERTEX
  8
1
 10
75.130
 20
285.606
  0
VERTEX
  8
1
 10
76.844
 20
287.998
  0
VERTEX
  8
1
 10
77.126
 20
288.381
  0
VERTEX
  8
1
 10
78.863
 20
290.687
  0
VERTEX
  8
1
 10
79.186
 20
291.104
  0
VERTEX
  8
1
 10
80.793
 20
293.124
  0
VERTEX
  8
1
 10
81.491
 20
293.954
  0
VERTEX
  8
1
 10
83.769
 20
296.517
  0
VERTEX
  8
1
 10
84.718
 20
297.515
  0
VERTEX
  8
1
 10
87.174
 20
299.923
  0
VERTEX
  8
1
 10
87.966
 20
300.659
  0
VERTEX
  8
1
 10
90.754
 20
303.112
  0
VERTEX
  8
1
 10
91.363
 20
303.626
  0
VERTEX
  8
1
 10
94.287
 20
305.999
  0
VERTEX
  8
1
 10
94.983
 20
306.539
  0
VERTEX
  8
1
 10
97.416
 20
308.341
  0
VERTEX
  8
1
 10
98.289
 20
308.953
  0
VERTEX
  8
1
 10
100.790
 20
310.606
  0
VERTEX
  8
1
 10
101.617
 20
311.125
  0
VERTEX
  8
1
 10
104.261
 20
312.694
  0
VERTEX
  8
1
 10
105.051
 20
313.138
  0
VERTEX
  8
1
 10
107.712
 20
314.558
  0
VERTEX
  8
1
 10
108.635
 20
315.021
  0
VERTEX
  8
1
 10
111.045
 20
316.150
  0
VERTEX
  8
1
 10
112.021
 20
316.577
  0
VERTEX
  8
1
 10
114.565
 20
317.608
  0
VERTEX
  8
1
 10
115.388
 20
317.921
  0
VERTEX
  8
1
 10
118.128
 20
318.894
  0
VERTEX
  8
1
 10
118.811
 20
319.123
  0
VERTEX
  8
1
 10
121.420
 20
319.944
  0
VERTEX
  8
1
 10
122.535
 20
320.261
  0
VERTEX
  8
1
 10
123.692
 20
320.552
  0
VERTEX
  8
1
 10
125.028
 20
320.842
  0
VERTEX
  8
1
 10
126.313
 20
321.074
  0
VERTEX
  8
1
 10
127.153
 20
321.207
  0
VERTEX
  8
1
 10
129.111
 20
321.476
  0
VERTEX
  8
1
 10
131.293
 20
321.745
  0
VERTEX
  8
1
 10
131.711
 20
321.792
  0
VERTEX
  8
1
 10
136.892
 20
322.321
  0
VERTEX
  8
1
 10
137.472
 20
322.372
  0
VERTEX
  8
1
 10
142.193
 20
322.716
  0
VERTEX
  8
1
 10
143.565
 20
322.768
  0
VERTEX
  8
1
 10
150.199
 20
322.795
  0
VERTEX
  8
1
 10
151.567
 20
322.753
  0
VERTEX
  8
1
 10
153.787
 20
322.610
  0
VERTEX
  8
1
 10
154.535
 20
322.547
  0
VERTEX
  8
1
 10
157.430
 20
322.251
  0
VERTEX
  8
1
 10
159.508
 20
322.013
  0
VERTEX
  8
1
 10
161.624
 20
321.790
  0
VERTEX
  8
1
 10
163.594
 20
321.574
  0
VERTEX
  8
1
 10
163.937
 20
321.534
  0
VERTEX
  8
1
 10
165.627
 20
321.320
  0
VERTEX
  8
1
 10
166.217
 20
321.236
  0
VERTEX
  8
1
 10
167.661
 20
321.009
  0
VERTEX
  8
1
 10
168.504
 20
320.858
  0
VERTEX
  8
1
 10
169.689
 20
320.619
  0
VERTEX
  8
1
 10
170.777
 20
320.369
  0
VERTEX
  8
1
 10
171.701
 20
320.128
  0
VERTEX
  8
1
 10
173.024
 20
319.735
  0
VERTEX
  8
1
 10
173.938
 20
319.428
  0
VERTEX
  8
1
 10
174.994
 20
319.041
  0
VERTEX
  8
1
 10
176.850
 20
318.300
  0
VERTEX
  8
1
 10
177.498
 20
318.028
  0
VERTEX
  8
1
 10
179.535
 20
317.131
  0
VERTEX
  8
1
 10
180.171
 20
316.838
  0
VERTEX
  8
1
 10
182.191
 20
315.862
  0
VERTEX
  8
1
 10
182.803
 20
315.553
  0
VERTEX
  8
1
 10
184.802
 20
314.502
  0
VERTEX
  8
1
 10
185.401
 20
314.174
  0
VERTEX
  8
1
 10
187.363
 20
313.055
  0
VERTEX
  8
1
 10
187.950
 20
312.707
  0
VERTEX
  8
1
 10
189.870
 20
311.523
  0
VERTEX
  8
1
 10
190.442
 20
311.157
  0
VERTEX
  8
1
 10
192.305
 20
309.919
  0
VERTEX
  8
1
 10
192.882
 20
309.521
  0
VERTEX
  8
1
 10
194.646
 20
308.258
  0
VERTEX
  8
1
 10
195.273
 20
307.790
  0
VERTEX
  8
1
 10
196.767
 20
306.628
  0
VERTEX
  8
1
 10
197.410
 20
306.107
  0
VERTEX
  8
1
 10
198.866
 20
304.876
  0
VERTEX
  8
1
 10
199.447
 20
304.364
  0
VERTEX
  8
1
 10
200.900
 20
303.037
  0
VERTEX
  8
1
 10
201.422
 20
302.541
  0
VERTEX
  8
1
 10
202.860
 20
301.128
  0
VERTEX
  8
1
 10
203.338
 20
300.641
  0
VERTEX
  8
1
 10
204.753
 20
299.153
  0
VERTEX
  8
1
 10
205.188
 20
298.680
  0
VERTEX
  8
1
 10
206.579
 20
297.119
  0
VERTEX
  8
1
 10
206.967
 20
296.669
  0
VERTEX
  8
1
 10
208.324
 20
295.051
  0
VERTEX
  8
1
 10
208.688
 20
294.605
  0
VERTEX
  8
1
 10
209.982
 20
292.969
  0
VERTEX
  8
1
 10
210.351
 20
292.487
  0
VERTEX
  8
1
 10
212.349
 20
289.798
  0
VERTEX
  8
1
 10
212.694
 20
289.320
  0
VERTEX
  8
1
 10
214.641
 20
286.530
  0
VERTEX
  8
1
 10
214.922
 20
286.116
  0
VERTEX
  8
1
 10
216.852
 20
283.199
  0
VERTEX
  8
1
 10
217.069
 20
282.864
  0
VERTEX
  8
1
 10
219.073
 20
279.699
  0
VERTEX
  8
1
 10
219.293
 20
279.821
  0
VERTEX
  8
1
 10
219.520
 20
279.928
  0
VERTEX
  8
1
 10
219.753
 20
280.021
  0
VERTEX
  8
1
 10
219.993
 20
280.098
  0
VERTEX
  8
1
 10
220.236
 20
280.161
  0
VERTEX
  8
1
 10
220.483
 20
280.208
  0
VERTEX
  8
1
 10
220.732
 20
280.240
  0
VERTEX
  8
1
 10
220.982
 20
280.255
  0
VERTEX
  8
1
 10
221.235
 20
280.256
  0
VERTEX
  8
1
 10
221.485
 20
280.240
  0
VERTEX
  8
1
 10
221.734
 20
280.209
  0
VERTEX
  8
1
 10
221.981
 20
280.161
  0
VERTEX
  8
1
 10
222.225
 20
280.099
  0
VERTEX
  8
1
 10
222.463
 20
280.022
  0
VERTEX
  8
1
 10
222.697
 20
279.930
  0
VERTEX
  8
1
 10
222.925
 20
279.822
  0
VERTEX
  8
1
 10
223.145
 20
279.702
  0
VERTEX
  8
1
 10
223.358
 20
279.567
  0
VERTEX
  8
1
 10
223.560
 20
279.420
  0
VERTEX
  8
1
 10
223.754
 20
279.259
  0
VERTEX
  8
1
 10
223.938
 20
279.087
  0
VERTEX
  8
1
 10
224.110
 20
278.905
  0
VERTEX
  8
1
 10
224.270
 20
278.711
  0
VERTEX
  8
1
 10
224.417
 20
278.507
  0
VERTEX
  8
1
 10
224.552
 20
278.295
  0
VERTEX
  8
1
 10
224.674
 20
278.075
  0
VERTEX
  8
1
 10
224.781
 20
277.848
  0
VERTEX
  8
1
 10
224.874
 20
277.615
  0
VERTEX
  8
1
 10
224.951
 20
277.376
  0
VERTEX
  8
1
 10
225.014
 20
277.132
  0
VERTEX
  8
1
 10
225.061
 20
276.885
  0
VERTEX
  8
1
 10
225.093
 20
276.636
  0
VERTEX
  8
1
 10
225.108
 20
276.386
  0
VERTEX
  8
1
 10
225.108
 20
276.134
  0
VERTEX
  8
1
 10
225.093
 20
275.883
  0
VERTEX
  8
1
 10
225.062
 20
275.634
  0
VERTEX
  8
1
 10
225.015
 20
275.387
  0
VERTEX
  8
1
 10
224.952
 20
275.144
  0
VERTEX
  8
1
 10
224.875
 20
274.905
  0
VERTEX
  8
1
 10
224.783
 20
274.671
  0
VERTEX
  8
1
 10
224.675
 20
274.443
  0
VERTEX
  8
1
 10
224.555
 20
274.223
  0
VERTEX
  8
1
 10
224.419
 20
274.011
  0
VERTEX
  8
1
 10
224.273
 20
273.808
  0
VERTEX
  8
1
 10
224.112
 20
273.614
  0
VERTEX
  8
1
 10
223.941
 20
273.430
  0
VERTEX
  8
1
 10
223.758
 20
273.258
  0
VERTEX
  8
1
 10
223.564
 20
273.098
  0
VERTEX
  8
1
 10
223.360
 20
272.951
  0
VERTEX
  8
1
 10
223.149
 20
272.816
  0
VERTEX
  8
1
 10
225.986
 20
267.780
  0
VERTEX
  8
1
 10
230.103
 20
260.299
  0
VERTEX
  8
1
 10
230.302
 20
259.928
  0
VERTEX
  8
1
 10
233.354
 20
254.096
  0
VERTEX
  8
1
 10
232.044
 20
252.284
  0
VERTEX
  8
1
 10
234.278
 20
252.324
  0
VERTEX
  8
1
 10
234.364
 20
252.153
  0
VERTEX
  8
1
 10
234.778
 20
251.318
  0
VERTEX
  8
1
 10
233.430
 20
249.534
  0
VERTEX
  8
1
 10
235.666
 20
249.526
  0
VERTEX
  8
1
 10
236.046
 20
248.758
  0
VERTEX
  8
1
 10
234.254
 20
247.871
  0
VERTEX
  8
1
 10
235.142
 20
246.079
  0
VERTEX
  8
1
 10
236.934
 20
246.966
  0
VERTEX
  8
1
 10
238.052
 20
244.706
  0
VERTEX
  8
1
 10
238.252
 20
244.291
  0
VERTEX
  8
1
 10
241.794
 20
236.704
  0
VERTEX
  8
1
 10
241.920
 20
236.431
  0
VERTEX
  8
1
 10
242.776
 20
234.515
  0
VERTEX
  8
1
 10
243.522
 20
232.831
  0
VERTEX
  8
1
 10
244.208
 20
231.257
  0
VERTEX
  8
1
 10
244.888
 20
229.671
  0
VERTEX
  8
1
 10
245.615
 20
227.953
  0
VERTEX
  8
1
 10
246.440
 20
225.980
  0
VERTEX
  8
1
 10
247.417
 20
223.631
  0
VERTEX
  8
1
 10
248.598
 20
220.785
  0
VERTEX
  8
1
 10
251.510
 20
213.492
  0
VERTEX
  8
1
 10
254.361
 20
206.180
  0
VERTEX
  8
1
 10
257.183
 20
198.867
  0
VERTEX
  8
1
 10
260.724
 20
189.526
  0
VERTEX
  8
1
 10
260.960
 20
188.882
  0
VERTEX
  8
1
 10
261.695
 20
187.114
  0
VERTEX
  8
1
 10
262.560
 20
185.466
  0
VERTEX
  8
1
 10
263.556
 20
183.935
  0
VERTEX
  8
1
 10
264.683
 20
182.521
  0
VERTEX
  8
1
 10
265.942
 20
181.224
  0
VERTEX
  8
1
 10
267.334
 20
180.042
  0
VERTEX
  8
1
 10
268.860
 20
178.974
  0
VERTEX
  8
1
 10
270.521
 20
178.021
  0
VERTEX
  8
1
 10
272.235
 20
177.017
  0
VERTEX
  8
1
 10
273.824
 20
175.854
  0
VERTEX
  8
1
 10
275.280
 20
174.540
  0
VERTEX
  8
1
 10
276.594
 20
173.080
  0
VERTEX
  8
1
 10
277.761
 20
171.482
  0
VERTEX
  8
1
 10
278.772
 20
169.753
  0
VERTEX
  8
1
 10
279.620
 20
167.899
  0
VERTEX
  8
1
 10
280.299
 20
165.929
  0
VERTEX
  8
1
 10
281.353
 20
162.311
  0
VERTEX
  8
1
 10
282.747
 20
157.459
  0
VERTEX
  8
1
 10
284.046
 20
152.757
  0
VERTEX
  8
1
 10
284.133
 20
152.430
  0
VERTEX
  8
1
 10
285.308
 20
147.879
  0
VERTEX
  8
1
 10
285.393
 20
147.535
  0
VERTEX
  8
1
 10
287.370
 20
139.276
  0
VERTEX
  8
1
 10
287.396
 20
139.156
  0
VERTEX
  8
1
 10
287.413
 20
139.032
  0
VERTEX
  8
1
 10
287.424
 20
138.908
  0
VERTEX
  8
1
 10
287.426
 20
138.783
  0
VERTEX
  8
1
 10
287.420
 20
138.659
  0
VERTEX
  8
1
 10
287.407
 20
138.534
  0
VERTEX
  8
1
 10
287.385
 20
138.412
  0
VERTEX
  8
1
 10
287.357
 20
138.291
  0
VERTEX
  8
1
 10
287.320
 20
138.170
  0
VERTEX
  8
1
 10
287.277
 20
138.054
  0
VERTEX
  8
1
 10
287.226
 20
137.940
  0
VERTEX
  8
1
 10
287.167
 20
137.830
  0
VERTEX
  8
1
 10
287.102
 20
137.724
  0
VERTEX
  8
1
 10
287.031
 20
137.622
  0
VERTEX
  8
1
 10
286.953
 20
137.524
  0
VERTEX
  8
1
 10
286.870
 20
137.431
  0
VERTEX
  8
1
 10
286.780
 20
137.345
  0
VERTEX
  8
1
 10
286.686
 20
137.263
  0
VERTEX
  8
1
 10
286.586
 20
137.188
  0
VERTEX
  8
1
 10
286.482
 20
137.119
  0
VERTEX
  8
1
 10
286.374
 20
137.057
  0
VERTEX
  8
1
 10
286.261
 20
137.003
  0
VERTEX
  8
1
 10
286.147
 20
136.954
  0
VERTEX
  8
1
 10
286.028
 20
136.913
  0
VERTEX
  8
1
 10
285.908
 20
136.881
  0
VERTEX
  8
1
 10
285.787
 20
136.854
  0
VERTEX
  8
1
 10
285.663
 20
136.837
  0
VERTEX
  8
1
 10
285.539
 20
136.826
  0
VERTEX
  8
1
 10
285.414
 20
136.825
  0
VERTEX
  8
1
 10
285.289
 20
136.831
  0
VERTEX
  8
1
 10
285.165
 20
136.843
  0
VERTEX
  8
1
 10
268.021
 20
140.658
  0
VERTEX
  8
1
 10
265.428
 20
141.245
  0
VERTEX
  8
1
 10
264.094
 20
141.575
  0
VERTEX
  8
1
 10
262.756
 20
141.884
  0
VERTEX
  8
1
 10
261.018
 20
142.246
  0
VERTEX
  8
1
 10
259.279
 20
142.610
  0
VERTEX
  8
1
 10
257.534
 20
142.935
  0
VERTEX
  8
1
 10
255.778
 20
143.185
  0
VERTEX
  8
1
 10
254.222
 20
143.304
  0
VERTEX
  8
1
 10
252.661
 20
143.344
  0
VERTEX
  8
1
 10
251.098
 20
143.353
  0
VERTEX
  8
1
 10
249.535
 20
143.377
  0
VERTEX
  8
1
 10
244.265
 20
142.392
  0
VERTEX
  8
1
 10
240.202
 20
140.162
  0
VERTEX
  8
1
 10
237.582
 20
136.618
  0
VERTEX
  8
1
 10
236.640
 20
131.693
  0
VERTEX
  8
1
 10
237.612
 20
125.318
  0
VERTEX
  8
1
 10
240.733
 20
117.425
  0
VERTEX
  8
1
 10
242.946
 20
112.934
  0
VERTEX
  8
1
 10
243.196
 20
112.407
  0
VERTEX
  8
1
 10
246.744
 20
104.644
  0
VERTEX
  8
1
 10
246.948
 20
104.182
  0
VERTEX
  8
1
 10
250.340
 20
96.235
  0
VERTEX
  8
1
 10
250.484
 20
95.889
  0
VERTEX
  8
1
 10
253.818
 20
87.654
  0
VERTEX
  8
1
 10
257.056
 20
79.361
  0
VERTEX
  8
1
 10
257.164
 20
79.079
  0
VERTEX
  8
1
 10
259.869
 20
71.828
  0
VERTEX
  8
1
 10
259.988
 20
71.501
  0
VERTEX
  8
1
 10
262.616
 20
64.068
  0
VERTEX
  8
1
 10
263.395
 20
61.787
  0
VERTEX
  8
1
 10
263.896
 20
60.456
  0
VERTEX
  8
1
 10
264.466
 20
59.197
  0
VERTEX
  8
1
 10
265.110
 20
58.004
  0
VERTEX
  8
1
 10
265.831
 20
56.872
  0
VERTEX
  8
1
 10
266.633
 20
55.796
  0
VERTEX
  8
1
 10
267.519
 20
54.771
  0
VERTEX
  8
1
 10
268.494
 20
53.790
  0
VERTEX
  8
1
 10
269.560
 20
52.850
  0
VERTEX
  8
1
 10
272.251
 20
50.620
  0
VERTEX
  8
1
 10
273.385
 20
49.614
  0
VERTEX
  8
1
 10
274.418
 20
48.561
  0
VERTEX
  8
1
 10
275.351
 20
47.457
  0
VERTEX
  8
1
 10
276.188
 20
46.296
  0
VERTEX
  8
1
 10
276.932
 20
45.073
  0
VERTEX
  8
1
 10
277.586
 20
43.784
  0
VERTEX
  8
1
 10
278.154
 20
42.423
  0
VERTEX
  8
1
 10
278.639
 20
40.987
  0
VERTEX
  8
1
 10
279.941
 20
36.663
  0
VERTEX
  8
1
 10
281.353
 20
31.816
  0
VERTEX
  8
1
 10
282.746
 20
26.964
  0
VERTEX
  8
1
 10
284.046
 20
22.258
  0
VERTEX
  8
1
 10
284.131
 20
21.939
  0
VERTEX
  8
1
 10
285.307
 20
17.387
  0
VERTEX
  8
1
 10
285.394
 20
17.037
  0
VERTEX
  8
1
 10
287.370
 20
8.781
  0
VERTEX
  8
1
 10
287.395
 20
8.659
  0
VERTEX
  8
1
 10
287.413
 20
8.535
  0
VERTEX
  8
1
 10
287.423
 20
8.411
  0
VERTEX
  8
1
 10
287.425
 20
8.286
  0
VERTEX
  8
1
 10
287.419
 20
8.161
  0
VERTEX
  8
1
 10
287.406
 20
8.038
  0
VERTEX
  8
1
 10
287.385
 20
7.915
  0
VERTEX
  8
1
 10
287.355
 20
7.793
  0
VERTEX
  8
1
 10
287.319
 20
7.674
  0
VERTEX
  8
1
 10
287.275
 20
7.558
  0
VERTEX
  8
1
 10
287.224
 20
7.443
  0
VERTEX
  8
1
 10
287.165
 20
7.333
  0
VERTEX
  8
1
 10
287.100
 20
7.227
  0
VERTEX
  8
1
 10
287.029
 20
7.124
  0
VERTEX
  8
1
 10
286.951
 20
7.027
  0
VERTEX
  8
1
 10
286.868
 20
6.935
  0
VERTEX
  8
1
 10
286.778
 20
6.848
  0
VERTEX
  8
1
 10
286.683
 20
6.767
  0
VERTEX
  8
1
 10
286.584
 20
6.691
  0
VERTEX
  8
1
 10
286.480
 20
6.623
  0
VERTEX
  8
1
 10
286.371
 20
6.561
  0
VERTEX
  8
1
 10
286.259
 20
6.506
  0
VERTEX
  8
1
 10
286.144
 20
6.459
  0
VERTEX
  8
1
 10
286.026
 20
6.418
  0
VERTEX
  8
1
 10
285.905
 20
6.385
  0
VERTEX
  8
1
 10
285.784
 20
6.359
  0
VERTEX
  8
1
 10
285.660
 20
6.341
  0
VERTEX
  8
1
 10
285.536
 20
6.332
  0
VERTEX
  8
1
 10
285.411
 20
6.329
  0
VERTEX
  8
1
 10
285.286
 20
6.335
  0
VERTEX
  8
1
 10
285.164
 20
6.348
  0
VERTEX
  8
1
 10
268.020
 20
10.164
  0
VERTEX
  8
1
 10
265.426
 20
10.751
  0
VERTEX
  8
1
 10
262.755
 20
11.389
  0
VERTEX
  8
1
 10
261.922
 20
11.600
  0
VERTEX
  8
1
 10
261.168
 20
11.800
  0
VERTEX
  8
1
 10
260.851
 20
11.888
  0
VERTEX
  8
1
 10
260.293
 20
12.046
  0
VERTEX
  8
1
 10
259.811
 20
12.189
  0
VERTEX
  8
1
 10
259.082
 20
12.415
  0
VERTEX
  8
1
 10
258.822
 20
12.494
  0
VERTEX
  8
1
 10
258.530
 20
12.579
  0
VERTEX
  8
1
 10
258.140
 20
12.690
  0
VERTEX
  8
1
 10
257.702
 20
12.820
  0
VERTEX
  8
1
 10
257.284
 20
12.949
  0
VERTEX
  8
1
 10
257.063
 20
13.020
  0
VERTEX
  8
1
 10
256.440
 20
13.232
  0
VERTEX
  8
1
 10
256.300
 20
13.282
  0
VERTEX
  8
1
 10
256.237
 20
13.304
  0
VERTEX
  8
1
 10
255.736
 20
13.492
  0
VERTEX
  8
1
 10
255.253
 20
13.686
  0
VERTEX
  8
1
 10
254.785
 20
13.889
  0
VERTEX
  8
1
 10
254.327
 20
14.102
  0
VERTEX
  8
1
 10
253.875
 20
14.328
  0
VERTEX
  8
1
 10
253.425
 20
14.569
  0
VERTEX
  8
1
 10
252.973
 20
14.827
  0
VERTEX
  8
1
 10
252.514
 20
15.103
  0
VERTEX
  8
1
 10
251.967
 20
15.442
  0
VERTEX
  8
1
 10
250.930
 20
16.128
  0
VERTEX
  8
1
 10
250.165
 20
16.669
  0
VERTEX
  8
1
 10
249.224
 20
17.378
  0
VERTEX
  8
1
 10
248.506
 20
17.952
  0
VERTEX
  8
1
 10
247.509
 20
18.805
  0
VERTEX
  8
1
 10
246.952
 20
19.313
  0
VERTEX
  8
1
 10
246.030
 20
20.213
  0
VERTEX
  8
1
 10
244.803
 20
21.488
  0
VERTEX
  8
1
 10
244.245
 20
22.092
  0
VERTEX
  8
1
 10
242.858
 20
23.658
  0
VERTEX
  8
1
 10
242.424
 20
24.165
  0
VERTEX
  8
1
 10
241.037
 20
25.840
  0
VERTEX
  8
1
 10
240.693
 20
26.267
  0
VERTEX
  8
1
 10
239.370
 20
27.958
  0
VERTEX
  8
1
 10
239.078
 20
28.340
  0
VERTEX
  8
1
 10
235.589
 20
33.026
  0
VERTEX
  8
1
 10
235.405
 20
33.276
  0
VERTEX
  8
1
 10
231.893
 20
38.148
  0
VERTEX
  8
1
 10
228.363
 20
43.093
  0
VERTEX
  8
1
 10
224.853
 20
47.938
  0
VERTEX
  8
1
 10
220.188
 20
54.245
  0
VERTEX
  8
1
 10
220.005
 20
54.490
  0
VERTEX
  8
1
 10
215.457
 20
60.447
  0
VERTEX
  8
1
 10
215.172
 20
60.810
  0
VERTEX
  8
1
 10
209.555
 20
67.826
  0
VERTEX
  8
1
 10
209.367
 20
68.056
  0
VERTEX
  8
1
 10
203.462
 20
75.211
  0
VERTEX
  8
1
 10
198.258
 20
81.382
  0
VERTEX
  8
1
 10
198.042
 20
81.635
  0
VERTEX
  8
1
 10
192.894
 20
87.538
  0
VERTEX
  8
1
 10
192.653
 20
87.809
  0
VERTEX
  8
1
 10
187.879
 20
93.088
  0
VERTEX
  8
1
 10
187.512
 20
93.483
  0
VERTEX
  8
1
 10
182.821
 20
98.396
  0
VERTEX
  8
1
 10
182.301
 20
98.921
  0
VERTEX
  8
1
 10
178.177
 20
102.933
  0
VERTEX
  8
1
 10
177.611
 20
103.463
  0
VERTEX
  8
1
 10
173.086
 20
107.535
  0
VERTEX
  8
1
 10
172.983
 20
107.605
  0
VERTEX
  8
1
 10
172.875
 20
107.669
  0
VERTEX
  8
1
 10
172.763
 20
107.726
  0
VERTEX
  8
1
 10
172.649
 20
107.776
  0
VERTEX
  8
1
 10
172.530
 20
107.818
  0
VERTEX
  8
1
 10
172.410
 20
107.853
  0
VERTEX
  8
1
 10
172.288
 20
107.879
  0
VERTEX
  8
1
 10
172.165
 20
107.899
  0
VERTEX
  8
1
 10
172.039
 20
107.911
  0
VERTEX
  8
1
 10
171.915
 20
107.915
  0
VERTEX
  8
1
 10
171.789
 20
107.911
  0
VERTEX
  8
1
 10
171.665
 20
107.898
  0
VERTEX
  8
1
 10
171.541
 20
107.879
  0
VERTEX
  8
1
 10
171.419
 20
107.852
  0
VERTEX
  8
1
 10
171.299
 20
107.817
  0
VERTEX
  8
1
 10
171.181
 20
107.775
  0
VERTEX
  8
1
 10
171.066
 20
107.724
  0
VERTEX
  8
1
 10
170.955
 20
107.668
  0
VERTEX
  8
1
 10
170.848
 20
107.604
  0
VERTEX
  8
1
 10
170.744
 20
107.534
  0
VERTEX
  8
1
 10
170.645
 20
107.457
  0
VERTEX
  8
1
 10
170.551
 20
107.374
  0
VERTEX
  8
1
 10
170.463
 20
107.285
  0
VERTEX
  8
1
 10
170.381
 20
107.191
  0
VERTEX
  8
1
 10
170.303
 20
107.092
  0
VERTEX
  8
1
 10
170.233
 20
106.989
  0
VERTEX
  8
1
 10
170.169
 20
106.881
  0
VERTEX
  8
1
 10
170.113
 20
106.769
  0
VERTEX
  8
1
 10
170.063
 20
106.655
  0
VERTEX
  8
1
 10
170.021
 20
106.536
  0
VERTEX
  8
1
 10
169.987
 20
106.416
  0
VERTEX
  8
1
 10
169.972
 20
106.356
  0
VERTEX
  8
1
 10
169.321
 20
102.202
  0
VERTEX
  8
1
 10
168.694
 20
97.907
  0
VERTEX
  8
1
 10
167.904
 20
92.214
  0
VERTEX
  8
1
 10
167.148
 20
86.440
  0
VERTEX
  8
1
 10
165.889
 20
76.437
  0
VERTEX
  8
1
 10
164.767
 20
67.529
  0
VERTEX
  8
1
 10
164.760
 20
67.479
  0
VERTEX
  8
1
 10
164.652
 20
66.729
  0
VERTEX
  8
1
 10
164.521
 20
66.004
  0
VERTEX
  8
1
 10
164.366
 20
65.298
  0
VERTEX
  8
1
 10
164.186
 20
64.605
  0
VERTEX
  8
1
 10
163.979
 20
63.921
  0
VERTEX
  8
1
 10
163.743
 20
63.238
  0
VERTEX
  8
1
 10
163.476
 20
62.550
  0
VERTEX
  8
1
 10
163.178
 20
61.853
  0
VERTEX
  8
1
 10
163.046
 20
61.558
  0
VERTEX
  8
1
 10
162.990
 20
61.452
  0
VERTEX
  8
1
 10
162.408
 20
60.416
  0
VERTEX
  8
1
 10
161.788
 20
59.441
  0
VERTEX
  8
1
 10
161.125
 20
58.522
  0
VERTEX
  8
1
 10
160.415
 20
57.654
  0
VERTEX
  8
1
 10
159.653
 20
56.831
  0
VERTEX
  8
1
 10
158.835
 20
56.048
  0
VERTEX
  8
1
 10
157.955
 20
55.299
  0
VERTEX
  8
1
 10
157.010
 20
54.579
  0
VERTEX
  8
1
 10
156.916
 20
54.511
  0
VERTEX
  8
1
 10
156.798
 20
54.437
  0
VERTEX
  8
1
 10
155.778
 20
53.836
  0
VERTEX
  8
1
 10
154.757
 20
53.306
  0
VERTEX
  8
1
 10
153.727
 20
52.845
  0
VERTEX
  8
1
 10
152.682
 20
52.451
  0
VERTEX
  8
1
 10
151.615
 20
52.122
  0
VERTEX
  8
1
 10
150.519
 20
51.855
  0
VERTEX
  8
1
 10
149.387
 20
51.647
  0
VERTEX
  8
1
 10
148.213
 20
51.498
  0
VERTEX
  8
1
 10
148.080
 20
51.485
  0
VERTEX
  8
1
 10
147.863
 20
51.473
  0
VERTEX
  8
1
 10
146.878
 20
53.444
  0
VERTEX
  8
1
 10
145.893
 20
51.475
  0
VERTEX
  8
1
 10
145.701
 20
51.491
  0
VERTEX
  8
1
 10
144.886
 20
51.574
  0
VERTEX
  8
1
 10
144.097
 20
51.685
  0
VERTEX
  8
1
 10
143.329
 20
51.824
  0
VERTEX
  8
1
 10
142.575
 20
51.993
  0
VERTEX
  8
1
 10
141.828
 20
52.194
  0
VERTEX
  8
1
 10
141.084
 20
52.429
  0
VERTEX
  8
1
 10
140.334
 20
52.699
  0
VERTEX
  8
1
 10
139.574
 20
53.005
  0
VERTEX
  8
1
 10
139.347
 20
53.101
  0
VERTEX
  8
1
 10
139.239
 20
53.155
  0
VERTEX
  8
1
 10
138.236
 20
53.688
  0
VERTEX
  8
1
 10
137.290
 20
54.257
  0
VERTEX
  8
1
 10
136.394
 20
54.865
  0
VERTEX
  8
1
 10
135.543
 20
55.517
  0
VERTEX
  8
1
 10
134.733
 20
56.218
  0
VERTEX
  8
1
 10
133.956
 20
56.973
  0
VERTEX
  8
1
 10
133.209
 20
57.785
  0
VERTEX
  8
1
 10
132.484
 20
58.659
  0
VERTEX
  8
1
 10
132.407
 20
58.757
  0
VERTEX
  8
1
 10
132.349
 20
58.840
  0
VERTEX
  8
1
 10
131.674
 20
59.877
  0
VERTEX
  8
1
 10
131.076
 20
60.921
  0
VERTEX
  8
1
 10
130.553
 20
61.978
  0
VERTEX
  8
1
 10
130.102
 20
63.056
  0
VERTEX
  8
1
 10
129.721
 20
64.159
  0
VERTEX
  8
1
 10
129.406
 20
65.296
  0
VERTEX
  8
1
 10
129.157
 20
66.473
  0
VERTEX
  8
1
 10
128.969
 20
67.696
  0
VERTEX
  8
1
 10
127.867
 20
76.438
  0
VERTEX
  8
1
 10
126.610
 20
86.441
  0
VERTEX
  8
1
 10
125.853
 20
92.215
  0
VERTEX
  8
1
 10
125.064
 20
97.908
  0
VERTEX
  8
1
 10
124.436
 20
102.203
  0
VERTEX
  8
1
 10
123.789
 20
106.358
  0
VERTEX
  8
1
 10
123.755
 20
106.479
  0
VERTEX
  8
1
 10
123.715
 20
106.598
  0
VERTEX
  8
1
 10
123.670
 20
106.713
  0
VERTEX
  8
1
 10
123.617
 20
106.827
  0
VERTEX
  8
1
 10
123.556
 20
106.937
  0
VERTEX
  8
1
 10
123.489
 20
107.042
  0
VERTEX
  8
1
 10
123.415
 20
107.143
  0
VERTEX
  8
1
 10
123.335
 20
107.240
  0
VERTEX
  8
1
 10
123.250
 20
107.332
  0
VERTEX
  8
1
 10
123.159
 20
107.417
  0
VERTEX
  8
1
 10
123.063
 20
107.497
  0
VERTEX
  8
1
 10
122.962
 20
107.570
  0
VERTEX
  8
1
 10
122.856
 20
107.637
  0
VERTEX
  8
1
 10
122.746
 20
107.698
  0
VERTEX
  8
1
 10
122.633
 20
107.752
  0
VERTEX
  8
1
 10
122.517
 20
107.797
  0
VERTEX
  8
1
 10
122.398
 20
107.836
  0
VERTEX
  8
1
 10
122.276
 20
107.868
  0
VERTEX
  8
1
 10
122.153
 20
107.891
  0
VERTEX
  8
1
 10
122.030
 20
107.907
  0
VERTEX
  8
1
 10
121.904
 20
107.915
  0
VERTEX
  8
1
 10
121.779
 20
107.914
  0
VERTEX
  8
1
 10
121.655
 20
107.907
  0
VERTEX
  8
1
 10
121.530
 20
107.891
  0
VERTEX
  8
1
 10
121.408
 20
107.867
  0
VERTEX
  8
1
 10
121.286
 20
107.837
  0
VERTEX
  8
1
 10
121.167
 20
107.798
  0
VERTEX
  8
1
 10
121.051
 20
107.752
  0
VERTEX
  8
1
 10
120.937
 20
107.699
  0
VERTEX
  8
1
 10
120.828
 20
107.639
  0
VERTEX
  8
1
 10
120.722
 20
107.572
  0
VERTEX
  8
1
 10
120.672
 20
107.536
  0
VERTEX
  8
1
 10
116.150
 20
103.470
  0
VERTEX
  8
1
 10
115.575
 20
102.931
  0
VERTEX
  8
1
 10
111.455
 20
98.923
  0
VERTEX
  8
1
 10
110.937
 20
98.399
  0
VERTEX
  8
1
 10
106.244
 20
93.482
  0
VERTEX
  8
1
 10
105.880
 20
93.091
  0
VERTEX
  8
1
 10
101.104
 20
87.811
  0
VERTEX
  8
1
 10
100.862
 20
87.539
  0
VERTEX
  8
1
 10
95.715
 20
81.636
  0
VERTEX
  8
1
 10
95.498
 20
81.384
  0
VERTEX
  8
1
 10
90.294
 20
75.212
  0
VERTEX
  8
1
 10
84.389
 20
68.058
  0
VERTEX
  8
1
 10
84.202
 20
67.828
  0
VERTEX
  8
1
 10
78.584
 20
60.812
  0
VERTEX
  8
1
 10
78.299
 20
60.448
  0
VERTEX
  8
1
 10
73.752
 20
54.492
  0
VERTEX
  8
1
 10
73.569
 20
54.248
  0
VERTEX
  8
1
 10
68.903
 20
47.941
  0
VERTEX
  8
1
 10
65.392
 20
43.096
  0
VERTEX
  8
1
 10
61.862
 20
38.151
  0
VERTEX
  8
1
 10
58.352
 20
33.281
  0
VERTEX
  8
1
 10
58.165
 20
33.026
  0
VERTEX
  8
1
 10
54.674
 20
28.340
  0
VERTEX
  8
1
 10
54.387
 20
27.964
  0
VERTEX
  8
1
 10
53.064
 20
26.272
  0
VERTEX
  8
1
 10
52.716
 20
25.840
  0
VERTEX
  8
1
 10
51.330
 20
24.166
  0
VERTEX
  8
1
 10
50.898
 20
23.662
  0
VERTEX
  8
1
 10
49.512
 20
22.098
  0
VERTEX
  8
1
 10
48.950
 20
21.489
  0
VERTEX
  8
1
 10
47.719
 20
20.210
  0
VERTEX
  8
1
 10
46.809
 20
19.323
  0
VERTEX
  8
1
 10
46.253
 20
18.814
  0
VERTEX
  8
1
 10
45.241
 20
17.949
  0
VERTEX
  8
1
 10
44.529
 20
17.379
  0
VERTEX
  8
1
 10
43.593
 20
16.675
  0
VERTEX
  8
1
 10
42.823
 20
16.130
  0
VERTEX
  8
1
 10
41.790
 20
15.446
  0
VERTEX
  8
1
 10
41.248
 20
15.111
  0
VERTEX
  8
1
 10
40.873
 20
14.884
  0
VERTEX
  8
1
 10
40.503
 20
14.670
  0
VERTEX
  8
1
 10
40.136
 20
14.468
  0
VERTEX
  8
1
 10
39.769
 20
14.276
  0
VERTEX
  8
1
 10
39.397
 20
14.093
  0
VERTEX
  8
1
 10
39.016
 20
13.917
  0
VERTEX
  8
1
 10
38.625
 20
13.745
  0
VERTEX
  8
1
 10
38.218
 20
13.576
  0
VERTEX
  8
1
 10
37.437
 20
13.279
  0
VERTEX
  8
1
 10
37.315
 20
13.235
  0
VERTEX
  8
1
 10
36.693
 20
13.024
  0
VERTEX
  8
1
 10
36.474
 20
12.954
  0
VERTEX
  8
1
 10
36.047
 20
12.823
  0
VERTEX
  8
1
 10
35.613
 20
12.694
  0
VERTEX
  8
1
 10
35.079
 20
12.541
  0
VERTEX
  8
1
 10
34.673
 20
12.419
  0
VERTEX
  8
1
 10
33.940
 20
12.191
  0
VERTEX
  8
1
 10
33.465
 20
12.050
  0
VERTEX
  8
1
 10
32.904
 20
11.891
  0
VERTEX
  8
1
 10
32.585
 20
11.803
  0
VERTEX
  8
1
 10
31.832
 20
11.603
  0
VERTEX
  8
1
 10
30.999
 20
11.393
  0
VERTEX
  8
1
 10
28.327
 20
10.755
  0
VERTEX
  8
1
 10
25.734
 20
10.168
  0
VERTEX
  8
1
 10
8.590
 20
6.353
  0
VERTEX
  8
1
 10
8.467
 20
6.340
  0
VERTEX
  8
1
 10
8.342
 20
6.334
  0
VERTEX
  8
1
 10
8.217
 20
6.336
  0
VERTEX
  8
1
 10
8.092
 20
6.346
  0
VERTEX
  8
1
 10
7.969
 20
6.364
  0
VERTEX
  8
1
 10
7.847
 20
6.390
  0
VERTEX
  8
1
 10
7.727
 20
6.423
  0
VERTEX
  8
1
 10
7.609
 20
6.463
  0
VERTEX
  8
1
 10
7.494
 20
6.512
  0
VERTEX
  8
1
 10
7.382
 20
6.567
  0
VERTEX
  8
1
 10
7.274
 20
6.629
  0
VERTEX
  8
1
 10
7.170
 20
6.698
  0
VERTEX
  8
1
 10
7.070
 20
6.773
  0
VERTEX
  8
1
 10
6.975
 20
6.854
  0
VERTEX
  8
1
 10
6.886
 20
6.941
  0
VERTEX
  8
1
 10
6.802
 20
7.033
  0
VERTEX
  8
1
 10
6.724
 20
7.131
  0
VERTEX
  8
1
 10
6.653
 20
7.233
  0
VERTEX
  8
1
 10
6.588
 20
7.339
  0
VERTEX
  8
1
 10
6.530
 20
7.450
  0
VERTEX
  8
1
 10
6.478
 20
7.563
  0
VERTEX
  8
1
 10
6.435
 20
7.680
  0
VERTEX
  8
1
 10
6.399
 20
7.800
  0
VERTEX
  8
1
 10
6.370
 20
7.921
  0
VERTEX
  8
1
 10
6.349
 20
8.044
  0
VERTEX
  8
1
 10
6.335
 20
8.168
  0
VERTEX
  8
1
 10
6.329
 20
8.292
  0
VERTEX
  8
1
 10
6.332
 20
8.417
  0
VERTEX
  8
1
 10
6.342
 20
8.542
  0
VERTEX
  8
1
 10
6.360
 20
8.665
  0
VERTEX
  8
1
 10
6.385
 20
8.785
  0
VERTEX
  8
1
 10
8.362
 20
17.045
  0
VERTEX
  8
1
 10
8.448
 20
17.388
  0
VERTEX
  8
1
 10
9.622
 20
21.940
  0
VERTEX
  8
1
 10
9.710
 20
22.266
  0
VERTEX
  8
1
 10
11.009
 20
26.968
  0
VERTEX
  8
1
 10
12.402
 20
31.821
  0
VERTEX
  8
1
 10
13.815
 20
36.667
  0
VERTEX
  8
1
 10
13.883
 20
36.899
  0
VERTEX
  8
1
 10
14.569
 20
38.877
  0
VERTEX
  8
1
 10
15.420
 20
40.727
  0
VERTEX
  8
1
 10
16.435
 20
42.446
  0
VERTEX
  8
1
 10
17.613
 20
44.033
  0
VERTEX
  8
1
 10
18.953
 20
45.487
  0
VERTEX
  8
1
 10
20.452
 20
46.806
  0
VERTEX
  8
1
 10
22.110
 20
47.987
  0
VERTEX
  8
1
 10
23.011
 20
48.519
  0
VERTEX
  8
1
 10
23.925
 20
49.030
  0
VERTEX
  8
1
 10
25.484
 20
49.924
  0
VERTEX
  8
1
 10
26.940
 20
50.951
  0
VERTEX
  8
1
 10
28.290
 20
52.106
  0
VERTEX
  8
1
 10
29.528
 20
53.385
  0
VERTEX
  8
1
 10
30.650
 20
54.785
  0
VERTEX
  8
1
 10
31.650
 20
56.302
  0
VERTEX
  8
1
 10
32.526
 20
57.930
  0
VERTEX
  8
1
 10
33.271
 20
59.667
  0
VERTEX
  8
1
 10
36.572
 20
68.376
  0
VERTEX
  8
1
 10
39.394
 20
75.690
  0
VERTEX
  8
1
 10
42.245
 20
83.001
  0
VERTEX
  8
1
 10
44.675
 20
89.096
  0
VERTEX
  8
1
 10
46.529
 20
88.348
  0
VERTEX
  8
1
 10
47.277
 20
90.203
  0
VERTEX
  8
1
 10
45.425
 20
90.950
  0
VERTEX
  8
1
 10
45.698
 20
91.607
  0
VERTEX
  8
1
 10
47.928
 20
91.758
  0
VERTEX
  8
1
 10
46.469
 20
93.452
  0
VERTEX
  8
1
 10
46.998
 20
94.729
  0
VERTEX
  8
1
 10
49.228
 20
94.882
  0
VERTEX
  8
1
 10
47.768
 20
96.574
  0
VERTEX
  8
1
 10
48.140
 20
97.463
  0
VERTEX
  8
1
 10
48.867
 20
99.181
  0
VERTEX
  8
1
 10
49.547
 20
100.766
  0
VERTEX
  8
1
 10
50.234
 20
102.340
  0
VERTEX
  8
1
 10
50.979
 20
104.024
  0
VERTEX
  8
1
 10
51.836
 20
105.940
  0
VERTEX
  8
1
 10
51.961
 20
106.214
  0
VERTEX
  8
1
 10
55.503
 20
113.800
  0
VERTEX
  8
1
 10
55.668
 20
114.144
  0
VERTEX
  8
1
 10
56.252
 20
115.502
  0
VERTEX
  8
1
 10
56.784
 20
116.880
  0
VERTEX
  8
1
 10
57.184
 20
118.262
  0
VERTEX
  8
1
 10
57.485
 20
119.668
  0
VERTEX
  8
1
 10
57.681
 20
121.067
  0
VERTEX
  8
1
 10
57.774
 20
122.476
  0
VERTEX
  8
1
 10
57.766
 20
123.874
  0
VERTEX
  8
1
 10
57.656
 20
125.269
  0
VERTEX
  8
1
 10
57.444
 20
126.652
  0
VERTEX
  8
1
 10
57.133
 20
128.015
  0
VERTEX
  8
1
 10
56.719
 20
129.365
  0
VERTEX
  8
1
 10
56.210
 20
130.682
  0
VERTEX
  8
1
 10
55.595
 20
131.983
  0
VERTEX
  8
1
 10
54.890
 20
133.236
  0
VERTEX
  8
1
 10
54.076
 20
134.470
  0
VERTEX
  8
1
 10
53.178
 20
135.645
  0
VERTEX
  8
1
 10
52.201
 20
136.755
  0
VERTEX
  8
1
 10
51.150
 20
137.795
  0
VERTEX
  8
1
 10
50.058
 20
138.732
  0
VERTEX
  8
1
 10
48.903
 20
139.588
  0
VERTEX
  8
1
 10
47.711
 20
140.346
  0
VERTEX
  8
1
 10
46.468
 20
141.015
  0
VERTEX
  8
1
 10
45.191
 20
141.587
  0
VERTEX
  8
1
 10
43.876
 20
142.064
  0
VERTEX
  8
1
 10
42.530
 20
142.445
  0
VERTEX
  8
1
 10
41.160
 20
142.726
  0
VERTEX
  8
1
 10
39.760
 20
142.910
  0
VERTEX
  8
1
 10
38.351
 20
142.991
  0
VERTEX
  8
1
 10
36.912
 20
142.971
  0
VERTEX
  8
1
 10
35.479
 20
142.849
  0
VERTEX
  8
1
 10
34.023
 20
142.599
  0
VERTEX
  8
1
 10
32.577
 20
142.288
  0
VERTEX
  8
1
 10
31.833
 20
142.090
  0
VERTEX
  8
1
 10
31.000
 20
141.879
  0
VERTEX
  8
1
 10
28.329
 20
141.241
  0
VERTEX
  8
1
 10
25.735
 20
140.655
  0
VERTEX
  8
1
 10
8.591
 20
136.839
  0
VERTEX
  8
1
 10
8.469
 20
136.825
  0
VERTEX
  8
1
 10
8.345
 20
136.820
  0
VERTEX
  8
1
 10
8.220
 20
136.822
  0
VERTEX
  8
1
 10
8.095
 20
136.832
  0
VERTEX
  8
1
 10
7.971
 20
136.850
  0
VERTEX
  8
1
 10
7.850
 20
136.875
  0
VERTEX
  8
1
 10
7.729
 20
136.909
  0
VERTEX
  8
1
 10
7.611
 20
136.949
  0
VERTEX
  8
1
 10
7.496
 20
136.996
  0
VERTEX
  8
1
 10
7.384
 20
137.052
  0
VERTEX
  8
1
 10
7.276
 20
137.114
  0
VERTEX
  8
1
 10
7.172
 20
137.182
  0
VERTEX
  8
1
 10
7.072
 20
137.258
  0
VERTEX
  8
1
 10
6.977
 20
137.338
  0
VERTEX
  8
1
 10
6.888
 20
137.425
  0
VERTEX
  8
1
 10
6.804
 20
137.518
  0
VERTEX
  8
1
 10
6.726
 20
137.615
  0
VERTEX
  8
1
 10
6.655
 20
137.717
  0
VERTEX
  8
1
 10
6.590
 20
137.824
  0
VERTEX
  8
1
 10
6.531
 20
137.934
  0
VERTEX
  8
1
 10
6.480
 20
138.048
  0
VERTEX
  8
1
 10
6.437
 20
138.164
  0
VERTEX
  8
1
 10
6.400
 20
138.284
  0
VERTEX
  8
1
 10
6.371
 20
138.406
  0
VERTEX
  8
1
 10
6.349
 20
138.528
  0
VERTEX
  8
1
 10
6.336
 20
138.652
  0
VERTEX
  8
1
 10
6.330
 20
138.777
  0
VERTEX
  8
1
 10
6.332
 20
138.902
  0
VERTEX
  8
1
 10
6.343
 20
139.026
  0
VERTEX
  8
1
 10
6.360
 20
139.149
  0
VERTEX
  8
1
 10
6.386
 20
139.271
  0
VERTEX
  8
1
 10
8.361
 20
147.528
  0
VERTEX
  8
1
 10
8.448
 20
147.877
  0
VERTEX
  8
1
 10
9.625
 20
152.429
  0
VERTEX
  8
1
 10
9.710
 20
152.748
  0
VERTEX
  8
1
 10
11.009
 20
157.454
  0
VERTEX
  8
1
 10
12.403
 20
162.306
  0
VERTEX
  8
1
 10
13.814
 20
167.153
  0
VERTEX
  8
1
 10
15.116
 20
171.477
  0
VERTEX
  8
1
 10
15.601
 20
172.914
  0
VERTEX
  8
1
 10
16.169
 20
174.274
  0
VERTEX
  8
1
 10
16.824
 20
175.563
  0
VERTEX
  8
1
 10
17.568
 20
176.786
  0
VERTEX
  8
1
 10
18.405
 20
177.947
  0
VERTEX
  8
1
 10
19.338
 20
179.052
  0
VERTEX
  8
1
 10
20.370
 20
180.104
  0
VERTEX
  8
1
 10
21.505
 20
181.110
  0
VERTEX
  8
1
 10
24.196
 20
183.340
  0
VERTEX
  8
1
 10
25.262
 20
184.281
  0
VERTEX
  8
1
 10
26.236
 20
185.261
  0
VERTEX
  8
1
 10
27.122
 20
186.287
  0
VERTEX
  8
1
 10
27.924
 20
187.363
  0
VERTEX
  8
1
 10
28.645
 20
188.495
  0
VERTEX
  8
1
 10
29.289
 20
189.687
  0
VERTEX
  8
1
 10
29.860
 20
190.946
  0
VERTEX
  8
1
 10
30.361
 20
192.277
  0
VERTEX
  8
1
 10
31.139
 20
194.558
  0
VERTEX
  8
1
 10
33.767
 20
201.992
  0
VERTEX
  8
1
 10
33.886
 20
202.319
  0
VERTEX
  8
1
 10
36.592
 20
209.569
  0
VERTEX
  8
1
 10
36.699
 20
209.851
  0
VERTEX
  8
1
 10
39.937
 20
218.144
  0
VERTEX
  8
1
 10
43.271
 20
226.379
  0
VERTEX
  8
1
 10
43.416
 20
226.726
  0
VERTEX
  8
1
 10
46.808
 20
234.673
  0
VERTEX
  8
1
 10
47.011
 20
235.134
  0
VERTEX
  8
1
 10
50.560
 20
242.898
  0
VERTEX
  8
1
 10
50.810
 20
243.425
  0
VERTEX
  8
1
 10
54.090
 20
250.082
  0
VERTEX
  8
1
 10
54.335
 20
250.563
  0
VERTEX
  8
1
 10
54.597
 20
251.063
  0
SEQEND
  8
1
  0
ENDSEC
  0
SECTION
  2
OBJECTS
  0
DICTIONARY
  5
C
330
0
100
AcDbDictionary
281
     1
  3
ACAD_GROUP
350
D
  0
DICTIONARY
  5
D
330
C
100
AcDbDictionary
281
     1
  0
ENDSEC
  0
EOF
