999
Sample ASCII DXF for the viewer template: outline, arc, holes, grain line,
999
label text, a point marker and two INSERTs of a NOTCH block.
0
SECTION
2
HEADER
9
$INSUNITS
70
4
0
ENDSEC
0
SECTION
2
BLOCKS
0
BLOCK
2
NOTCH
10
0.0
20
0.0
0
LWPOLYLINE
8
notch
70
1
10
-4.0
20
-4.0
10
4.0
20
-4.0
10
4.0
20
4.0
10
-4.0
20
4.0
0
ENDBLK
0
ENDSEC
0
SECTION
2
ENTITIES
0
LWPOLYLINE
8
outline
70
1
10
0.0
20
0.0
10
200.0
20
0.0
10
200.0
20
90.0
10
0.0
20
90.0
0
ARC
8
outline
10
100.0
20
90.0
40
40.0
50
0.0
51
180.0
0
CIRCLE
8
holes
10
40.0
20
45.0
40
6.0
0
CIRCLE
8
holes
10
160.0
20
45.0
40
6.0
0
LINE
8
grain
10
20.0
20
20.0
11
180.0
21
70.0
0
TEXT
8
labels
10
48.0
20
36.0
40
9.0
50
0.0
1
SAMPLE PIECE
0
POINT
8
marks
10
100.0
20
45.0
0
INSERT
8
notch
2
NOTCH
10
200.0
20
0.0
41
1.0
42
1.0
50
0.0
0
INSERT
8
notch
2
NOTCH
10
0.0
20
90.0
41
1.5
42
1.5
50
45.0
0
ENDSEC
0
EOF
