  0
SECTION
  2
HEADER
  9
$ACADVER
  1
AC1006
  9
$TEXTSIZE
 40
3.500
  9
$EXTMIN
 10
0.000
 20
0.000
  9
$EXTMAX
 10
1008.934
 20
472.350
  9
$LIMMIN
 10
0.000
 20
0.000
  9
$LIMMAX
 10
1008.934
 20
472.350
  9
$UNITMODE
 70
     0
  9
$LUNITS
 70
     2
  9
$LUPREC
 70
     4
  9
$AUNITS
 70
     0
  9
$AUPREC
 70
     6
  9
$SPLINETYPE
 70
     6
  9
$SPLINESEGS
 70
     8
  0
ENDSEC
  0
SECTION
  2
CLASSES
  0
ENDSEC
  0
SECTION
  2
TABLES
  0
TABLE
  2
LTYPE
 70
     1
  0
LTYPE
  2
CONTINUOUS
 70
    64
  3
Solid line
 72
    65
 73
     0
 40
0
  0
ENDTAB
  0
TABLE
  2
LAYER
 70
    16
  0
LAYER
  2
0
 70
    64
 62
     7
  6
CONTINUOUS
  0
LAYER
  2
1
 70
    64
 62
     7
  6
CONTINUOUS
  0
LAYER
  2
2
 70
    64
 62
     7
  6
CONTINUOUS
  0
LAYER
  2
3
 70
    64
 62
     7
  6
CONTINUOUS
  0
LAYER
  2
4
 70
    64
 62
     7
  6
CONTINUOUS
  0
LAYER
  2
5
 70
    64
 62
     7
  6
CONTINUOUS
  0
LAYER
  2
6
 70
    64
 62
     7
  6
CONTINUOUS
  0
LAYER
  2
7
 70
    64
 62
     7
  6
CONTINUOUS
  0
LAYER
  2
8
 70
    64
 62
     7
  6
CONTINUOUS
  0
LAYER
  2
9
 70
    64
 62
     7
  6
CONTINUOUS
  0
LAYER
  2
10
 70
    64
 62
     7
  6
CONTINUOUS
  0
LAYER
  2
11
 70
    64
 62
     7
  6
CONTINUOUS
  0
LAYER
  2
12
 70
    64
 62
     7
  6
CONTINUOUS
  0
LAYER
  2
13
 70
    64
 62
     7
  6
CONTINUOUS
  0
LAYER
  2
14
 70
    64
 62
     7
  6
CONTINUOUS
  0
LAYER
  2
15
 70
    64
 62
     7
  6
CONTINUOUS
  0
ENDTAB
  0
ENDSEC
  0
SECTION
  2
BLOCKS
  0
BLOCK
  8
0
  2
1QQFOXINGQRF030
 70
    64
 10
0.000
 20
0.000
  0
TEXT
  8
127
 10
65.559
 20
91.956
 40
2.000
 50
-13.558
  1
1__FOXING_RF  3
  0
POLYLINE
  8
1
 66
     1
 10
20.749
 20
61.718
  0
VERTEX
  8
1
 10
20.749
 20
61.718
  0
VERTEX
  8
1
 10
20.632
 20
61.763
  0
VERTEX
  8
1
 10
20.518
 20
61.815
  0
VERTEX
  8
1
 10
20.407
 20
61.874
  0
VERTEX
  8
1
 10
20.300
 20
61.940
  0
VERTEX
  8
1
 10
20.197
 20
62.012
  0
VERTEX
  8
1
 10
20.099
 20
62.091
  0
VERTEX
  8
1
 10
20.007
 20
62.176
  0
VERTEX
  8
1
 10
19.919
 20
62.266
  0
VERTEX
  8
1
 10
19.838
 20
62.362
  0
VERTEX
  8
1
 10
19.763
 20
62.462
  0
VERTEX
  8
1
 10
19.694
 20
62.568
  0
VERTEX
  8
1
 10
19.632
 20
62.677
  0
VERTEX
  8
1
 10
19.577
 20
62.790
  0
VERTEX
  8
1
 10
19.530
 20
62.906
  0
VERTEX
  8
1
 10
19.489
 20
63.025
  0
VERTEX
  8
1
 10
19.456
 20
63.146
  0
VERTEX
  8
1
 10
19.431
 20
63.269
  0
VERTEX
  8
1
 10
19.414
 20
63.394
  0
VERTEX
  8
1
 10
19.404
 20
63.519
  0
VERTEX
  8
1
 10
19.403
 20
63.644
  0
VERTEX
  8
1
 10
19.409
 20
63.770
  0
VERTEX
  8
1
 10
19.423
 20
63.895
  0
VERTEX
  8
1
 10
19.445
 20
64.018
  0
VERTEX
  8
1
 10
19.474
 20
64.140
  0
VERTEX
  8
1
 10
19.512
 20
64.260
  0
VERTEX
  8
1
 10
19.556
 20
64.378
  0
VERTEX
  8
1
 10
19.608
 20
64.492
  0
VERTEX
  8
1
 10
19.667
 20
64.603
  0
VERTEX
  8
1
 10
19.733
 20
64.710
  0
VERTEX
  8
1
 10
19.807
 20
64.814
  0
VERTEX
  8
1
 10
21.873
 20
67.280
  0
VERTEX
  8
1
 10
25.732
 20
71.767
  0
VERTEX
  8
1
 10
28.457
 20
74.916
  0
VERTEX
  8
1
 10
31.201
 20
78.048
  0
VERTEX
  8
1
 10
33.993
 20
81.141
  0
VERTEX
  8
1
 10
36.860
 20
84.174
  0
VERTEX
  8
1
 10
39.594
 20
86.894
  0
VERTEX
  8
1
 10
42.438
 20
89.496
  0
VERTEX
  8
1
 10
45.414
 20
91.931
  0
VERTEX
  8
1
 10
48.542
 20
94.152
  0
VERTEX
  8
1
 10
50.429
 20
95.321
  0
VERTEX
  8
1
 10
52.369
 20
96.404
  0
VERTEX
  8
1
 10
54.357
 20
97.405
  0
VERTEX
  8
1
 10
56.388
 20
98.326
  0
VERTEX
  8
1
 10
58.456
 20
99.170
  0
VERTEX
  8
1
 10
60.556
 20
99.940
  0
VERTEX
  8
1
 10
62.682
 20
100.639
  0
VERTEX
  8
1
 10
64.830
 20
101.269
  0
VERTEX
  8
1
 10
69.552
 20
102.411
  0
VERTEX
  8
1
 10
74.330
 20
103.234
  0
VERTEX
  8
1
 10
79.141
 20
103.730
  0
VERTEX
  8
1
 10
83.967
 20
103.888
  0
VERTEX
  8
1
 10
86.588
 20
103.832
  0
VERTEX
  8
1
 10
89.206
 20
103.682
  0
VERTEX
  8
1
 10
91.821
 20
103.449
  0
VERTEX
  8
1
 10
94.431
 20
103.141
  0
VERTEX
  8
1
 10
97.035
 20
102.767
  0
VERTEX
  8
1
 10
99.634
 20
102.337
  0
VERTEX
  8
1
 10
102.225
 20
101.860
  0
VERTEX
  8
1
 10
104.808
 20
101.345
  0
VERTEX
  8
1
 10
111.432
 20
99.886
  0
VERTEX
  8
1
 10
118.010
 20
98.274
  0
VERTEX
  8
1
 10
118.478
 20
96.089
  0
VERTEX
  8
1
 10
119.953
 20
97.783
  0
VERTEX
  8
1
 10
126.505
 20
96.079
  0
VERTEX
  8
1
 10
133.025
 20
94.218
  0
VERTEX
  8
1
 10
135.543
 20
93.445
  0
VERTEX
  8
1
 10
138.049
 20
92.634
  0
VERTEX
  8
1
 10
140.540
 20
91.779
  0
VERTEX
  8
1
 10
143.010
 20
90.871
  0
VERTEX
  8
1
 10
145.453
 20
89.902
  0
VERTEX
  8
1
 10
147.865
 20
88.866
  0
VERTEX
  8
1
 10
150.240
 20
87.754
  0
VERTEX
  8
1
 10
152.574
 20
86.559
  0
VERTEX
  8
1
 10
156.745
 20
84.128
  0
VERTEX
  8
1
 10
160.744
 20
81.407
  0
VERTEX
  8
1
 10
164.557
 20
78.414
  0
VERTEX
  8
1
 10
168.171
 20
75.167
  0
VERTEX
  8
1
 10
169.762
 20
73.592
  0
VERTEX
  8
1
 10
171.302
 20
71.967
  0
VERTEX
  8
1
 10
172.784
 20
70.292
  0
VERTEX
  8
1
 10
174.203
 20
68.568
  0
VERTEX
  8
1
 10
175.553
 20
66.793
  0
VERTEX
  8
1
 10
176.827
 20
64.968
  0
VERTEX
  8
1
 10
178.020
 20
63.093
  0
VERTEX
  8
1
 10
179.126
 20
61.168
  0
VERTEX
  8
1
 10
180.824
 20
57.729
  0
VERTEX
  8
1
 10
182.286
 20
54.172
  0
VERTEX
  8
1
 10
183.553
 20
50.532
  0
VERTEX
  8
1
 10
184.668
 20
46.840
  0
VERTEX
  8
1
 10
185.751
 20
42.809
  0
VERTEX
  8
1
 10
186.739
 20
38.761
  0
VERTEX
  8
1
 10
187.667
 20
34.702
  0
VERTEX
  8
1
 10
188.569
 20
30.637
  0
VERTEX
  8
1
 10
189.835
 20
24.855
  0
VERTEX
  8
1
 10
190.485
 20
21.704
  0
VERTEX
  8
1
 10
190.496
 20
21.579
  0
VERTEX
  8
1
 10
190.503
 20
21.454
  0
VERTEX
  8
1
 10
190.503
 20
21.328
  0
VERTEX
  8
1
 10
190.494
 20
21.203
  0
VERTEX
  8
1
 10
190.478
 20
21.079
  0
VERTEX
  8
1
 10
190.454
 20
20.955
  0
VERTEX
  8
1
 10
190.422
 20
20.834
  0
VERTEX
  8
1
 10
190.383
 20
20.715
  0
VERTEX
  8
1
 10
190.336
 20
20.598
  0
VERTEX
  8
1
 10
190.282
 20
20.485
  0
VERTEX
  8
1
 10
190.221
 20
20.375
  0
VERTEX
  8
1
 10
190.154
 20
20.269
  0
VERTEX
  8
1
 10
190.079
 20
20.168
  0
VERTEX
  8
1
 10
189.999
 20
20.072
  0
VERTEX
  8
1
 10
189.913
 20
19.981
  0
VERTEX
  8
1
 10
189.821
 20
19.895
  0
VERTEX
  8
1
 10
189.724
 20
19.816
  0
VERTEX
  8
1
 10
189.622
 20
19.742
  0
VERTEX
  8
1
 10
189.516
 20
19.676
  0
VERTEX
  8
1
 10
189.405
 20
19.616
  0
VERTEX
  8
1
 10
189.291
 20
19.563
  0
VERTEX
  8
1
 10
189.175
 20
19.517
  0
VERTEX
  8
1
 10
189.055
 20
19.479
  0
VERTEX
  8
1
 10
188.933
 20
19.448
  0
VERTEX
  8
1
 10
188.810
 20
19.425
  0
VERTEX
  8
1
 10
188.685
 20
19.410
  0
VERTEX
  8
1
 10
188.560
 20
19.403
  0
VERTEX
  8
1
 10
188.434
 20
19.403
  0
VERTEX
  8
1
 10
188.309
 20
19.412
  0
VERTEX
  8
1
 10
188.183
 20
19.428
  0
VERTEX
  8
1
 10
183.367
 20
20.821
  0
VERTEX
  8
1
 10
169.539
 20
24.750
  0
VERTEX
  8
1
 10
155.711
 20
28.682
  0
VERTEX
  8
1
 10
148.494
 20
30.805
  0
VERTEX
  8
1
 10
141.284
 20
32.949
  0
VERTEX
  8
1
 10
134.067
 20
35.070
  0
VERTEX
  8
1
 10
126.833
 20
37.124
  0
VERTEX
  8
1
 10
116.431
 20
39.893
  0
VERTEX
  8
1
 10
105.983
 20
42.494
  0
VERTEX
  8
1
 10
105.480
 20
44.674
  0
VERTEX
  8
1
 10
104.053
 20
42.982
  0
VERTEX
  8
1
 10
93.619
 20
45.655
  0
VERTEX
  8
1
 10
83.145
 20
48.159
  0
VERTEX
  8
1
 10
71.795
 20
50.642
  0
VERTEX
  8
1
 10
71.229
 20
52.806
  0
VERTEX
  8
1
 10
69.838
 20
51.055
  0
VERTEX
  8
1
 10
69.351
 20
51.157
  0
VERTEX
  8
1
 10
68.782
 20
53.320
  0
VERTEX
  8
1
 10
67.394
 20
51.567
  0
VERTEX
  8
1
 10
66.907
 20
51.669
  0
VERTEX
  8
1
 10
66.336
 20
53.831
  0
VERTEX
  8
1
 10
64.949
 20
52.077
  0
VERTEX
  8
1
 10
53.721
 20
54.443
  0
VERTEX
  8
1
 10
39.684
 20
57.549
  0
VERTEX
  8
1
 10
25.649
 20
60.658
  0
VERTEX
  8
1
 10
20.749
 20
61.718
  0
SEQEND
  8
1
  0
ENDBLK
  0
BLOCK
  8
0
  2
1QQFOXINGQRF040
 70
    64
 10
0.000
 20
0.000
  0
TEXT
  8
127
 10
66.917
 20
93.444
 40
2.000
 50
-13.558
  1
1__FOXING_RF  4
  0
POLYLINE
  8
1
 66
     1
 10
20.746
 20
62.945
  0
VERTEX
  8
1
 10
20.746
 20
62.945
  0
VERTEX
  8
1
 10
20.628
 20
62.990
  0
VERTEX
  8
1
 10
20.514
 20
63.042
  0
VERTEX
  8
1
 10
20.403
 20
63.101
  0
VERTEX
  8
1
 10
20.296
 20
63.167
  0
VERTEX
  8
1
 10
20.194
 20
63.240
  0
VERTEX
  8
1
 10
20.096
 20
63.319
  0
VERTEX
  8
1
 10
20.004
 20
63.404
  0
VERTEX
  8
1
 10
19.917
 20
63.494
  0
VERTEX
  8
1
 10
19.836
 20
63.590
  0
VERTEX
  8
1
 10
19.761
 20
63.691
  0
VERTEX
  8
1
 10
19.692
 20
63.796
  0
VERTEX
  8
1
 10
19.630
 20
63.906
  0
VERTEX
  8
1
 10
19.576
 20
64.019
  0
VERTEX
  8
1
 10
19.528
 20
64.135
  0
VERTEX
  8
1
 10
19.488
 20
64.254
  0
VERTEX
  8
1
 10
19.455
 20
64.375
  0
VERTEX
  8
1
 10
19.430
 20
64.498
  0
VERTEX
  8
1
 10
19.413
 20
64.623
  0
VERTEX
  8
1
 10
19.404
 20
64.748
  0
VERTEX
  8
1
 10
19.403
 20
64.874
  0
VERTEX
  8
1
 10
19.409
 20
64.999
  0
VERTEX
  8
1
 10
19.423
 20
65.124
  0
VERTEX
  8
1
 10
19.446
 20
65.248
  0
VERTEX
  8
1
 10
19.475
 20
65.370
  0
VERTEX
  8
1
 10
19.513
 20
65.489
  0
VERTEX
  8
1
 10
19.558
 20
65.607
  0
VERTEX
  8
1
 10
19.610
 20
65.721
  0
VERTEX
  8
1
 10
19.669
 20
65.832
  0
VERTEX
  8
1
 10
19.735
 20
65.939
  0
VERTEX
  8
1
 10
19.801
 20
66.031
  0
VERTEX
  8
1
 10
22.093
 20
68.793
  0
VERTEX
  8
1
 10
26.022
 20
73.401
  0
VERTEX
  8
1
 10
28.798
 20
76.633
  0
VERTEX
  8
1
 10
31.597
 20
79.845
  0
VERTEX
  8
1
 10
34.447
 20
83.015
  0
VERTEX
  8
1
 10
37.378
 20
86.121
  0
VERTEX
  8
1
 10
40.176
 20
88.905
  0
VERTEX
  8
1
 10
43.088
 20
91.565
  0
VERTEX
  8
1
 10
46.137
 20
94.053
  0
VERTEX
  8
1
 10
49.344
 20
96.318
  0
VERTEX
  8
1
 10
51.280
 20
97.511
  0
VERTEX
  8
1
 10
53.272
 20
98.615
  0
VERTEX
  8
1
 10
55.312
 20
99.633
  0
VERTEX
  8
1
 10
57.397
 20
100.569
  0
VERTEX
  8
1
 10
59.519
 20
101.424
  0
VERTEX
  8
1
 10
61.674
 20
102.204
  0
VERTEX
  8
1
 10
63.857
 20
102.909
  0
VERTEX
  8
1
 10
66.061
 20
103.543
  0
VERTEX
  8
1
 10
70.917
 20
104.688
  0
VERTEX
  8
1
 10
75.828
 20
105.504
  0
VERTEX
  8
1
 10
80.772
 20
105.985
  0
VERTEX
  8
1
 10
85.729
 20
106.124
  0
VERTEX
  8
1
 10
88.434
 20
106.054
  0
VERTEX
  8
1
 10
91.135
 20
105.890
  0
VERTEX
  8
1
 10
93.832
 20
105.641
  0
VERTEX
  8
1
 10
96.524
 20
105.316
  0
VERTEX
  8
1
 10
99.210
 20
104.926
  0
VERTEX
  8
1
 10
101.891
 20
104.478
  0
VERTEX
  8
1
 10
104.563
 20
103.983
  0
VERTEX
  8
1
 10
107.228
 20
103.451
  0
VERTEX
  8
1
 10
114.072
 20
101.947
  0
VERTEX
  8
1
 10
120.869
 20
100.293
  0
VERTEX
  8
1
 10
121.342
 20
98.109
  0
VERTEX
  8
1
 10
122.810
 20
99.803
  0
VERTEX
  8
1
 10
129.577
 20
98.035
  0
VERTEX
  8
1
 10
136.313
 20
96.112
  0
VERTEX
  8
1
 10
138.912
 20
95.317
  0
VERTEX
  8
1
 10
141.500
 20
94.484
  0
VERTEX
  8
1
 10
144.071
 20
93.607
  0
VERTEX
  8
1
 10
146.621
 20
92.676
  0
VERTEX
  8
1
 10
149.145
 20
91.685
  0
VERTEX
  8
1
 10
151.638
 20
90.625
  0
VERTEX
  8
1
 10
154.093
 20
89.488
  0
VERTEX
  8
1
 10
156.507
 20
88.265
  0
VERTEX
  8
1
 10
160.805
 20
85.792
  0
VERTEX
  8
1
 10
164.930
 20
83.023
  0
VERTEX
  8
1
 10
168.866
 20
79.975
  0
VERTEX
  8
1
 10
172.597
 20
76.664
  0
VERTEX
  8
1
 10
174.236
 20
75.059
  0
VERTEX
  8
1
 10
175.823
 20
73.403
  0
VERTEX
  8
1
 10
177.350
 20
71.695
  0
VERTEX
  8
1
 10
178.813
 20
69.934
  0
VERTEX
  8
1
 10
180.204
 20
68.122
  0
VERTEX
  8
1
 10
181.517
 20
66.257
  0
VERTEX
  8
1
 10
182.746
 20
64.341
  0
VERTEX
  8
1
 10
183.885
 20
62.372
  0
VERTEX
  8
1
 10
185.634
 20
58.857
  0
VERTEX
  8
1
 10
187.137
 20
55.220
  0
VERTEX
  8
1
 10
188.439
 20
51.497
  0
VERTEX
  8
1
 10
189.581
 20
47.719
  0
VERTEX
  8
1
 10
190.688
 20
43.594
  0
VERTEX
  8
1
 10
191.693
 20
39.452
  0
VERTEX
  8
1
 10
192.633
 20
35.296
  0
VERTEX
  8
1
 10
193.544
 20
31.134
  0
VERTEX
  8
1
 10
194.816
 20
25.213
  0
VERTEX
  8
1
 10
195.526
 20
21.697
  0
VERTEX
  8
1
 10
195.536
 20
21.572
  0
VERTEX
  8
1
 10
195.543
 20
21.446
  0
VERTEX
  8
1
 10
195.542
 20
21.321
  0
VERTEX
  8
1
 10
195.533
 20
21.196
  0
VERTEX
  8
1
 10
195.517
 20
21.071
  0
VERTEX
  8
1
 10
195.492
 20
20.948
  0
VERTEX
  8
1
 10
195.460
 20
20.827
  0
VERTEX
  8
1
 10
195.420
 20
20.708
  0
VERTEX
  8
1
 10
195.373
 20
20.592
  0
VERTEX
  8
1
 10
195.319
 20
20.478
  0
VERTEX
  8
1
 10
195.257
 20
20.369
  0
VERTEX
  8
1
 10
195.189
 20
20.263
  0
VERTEX
  8
1
 10
195.115
 20
20.163
  0
VERTEX
  8
1
 10
195.034
 20
20.066
  0
VERTEX
  8
1
 10
194.947
 20
19.976
  0
VERTEX
  8
1
 10
194.855
 20
19.891
  0
VERTEX
  8
1
 10
194.758
 20
19.811
  0
VERTEX
  8
1
 10
194.655
 20
19.738
  0
VERTEX
  8
1
 10
194.549
 20
19.672
  0
VERTEX
  8
1
 10
194.438
 20
19.612
  0
VERTEX
  8
1
 10
194.324
 20
19.560
  0
VERTEX
  8
1
 10
194.207
 20
19.515
  0
VERTEX
  8
1
 10
194.088
 20
19.477
  0
VERTEX
  8
1
 10
193.966
 20
19.447
  0
VERTEX
  8
1
 10
193.842
 20
19.424
  0
VERTEX
  8
1
 10
193.718
 20
19.409
  0
VERTEX
  8
1
 10
193.592
 20
19.403
  0
VERTEX
  8
1
 10
193.467
 20
19.404
  0
VERTEX
  8
1
 10
193.342
 20
19.413
  0
VERTEX
  8
1
 10
193.228
 20
19.427
  0
VERTEX
  8
1
 10
188.483
 20
20.793
  0
VERTEX
  8
1
 10
174.193
 20
24.842
  0
VERTEX
  8
1
 10
159.903
 20
28.895
  0
VERTEX
  8
1
 10
152.446
 20
31.083
  0
VERTEX
  8
1
 10
144.995
 20
33.292
  0
VERTEX
  8
1
 10
137.539
 20
35.478
  0
VERTEX
  8
1
 10
130.064
 20
37.596
  0
VERTEX
  8
1
 10
119.312
 20
40.456
  0
VERTEX
  8
1
 10
108.514
 20
43.146
  0
VERTEX
  8
1
 10
108.011
 20
45.328
  0
VERTEX
  8
1
 10
106.582
 20
43.633
  0
VERTEX
  8
1
 10
95.795
 20
46.389
  0
VERTEX
  8
1
 10
84.969
 20
48.974
  0
VERTEX
  8
1
 10
73.323
 20
51.523
  0
VERTEX
  8
1
 10
72.758
 20
53.687
  0
VERTEX
  8
1
 10
71.366
 20
51.937
  0
VERTEX
  8
1
 10
70.880
 20
52.038
  0
VERTEX
  8
1
 10
70.312
 20
54.201
  0
VERTEX
  8
1
 10
68.923
 20
52.449
  0
VERTEX
  8
1
 10
68.429
 20
52.552
  0
VERTEX
  8
1
 10
67.859
 20
54.714
  0
VERTEX
  8
1
 10
66.471
 20
52.961
  0
VERTEX
  8
1
 10
65.978
 20
53.064
  0
VERTEX
  8
1
 10
65.407
 20
55.226
  0
VERTEX
  8
1
 10
64.020
 20
53.473
  0
VERTEX
  8
1
 10
54.573
 20
55.470
  0
VERTEX
  8
1
 10
40.071
 20
58.682
  0
VERTEX
  8
1
 10
25.570
 20
61.897
  0
VERTEX
  8
1
 10
20.746
 20
62.945
  0
SEQEND
  8
1
  0
ENDBLK
  0
BLOCK
  8
0
  2
1QQFOXINGQRF050
 70
    64
 10
0.000
 20
0.000
  0
TEXT
  8
127
 10
68.274
 20
94.934
 40
2.000
 50
-13.558
  1
1__FOXING_RF  5
  0
POLYLINE
  8
1
 66
     1
 10
20.751
 20
64.167
  0
VERTEX
  8
1
 10
20.751
 20
64.167
  0
VERTEX
  8
1
 10
20.633
 20
64.211
  0
VERTEX
  8
1
 10
20.519
 20
64.263
  0
VERTEX
  8
1
 10
20.408
 20
64.322
  0
VERTEX
  8
1
 10
20.301
 20
64.388
  0
VERTEX
  8
1
 10
20.198
 20
64.460
  0
VERTEX
  8
1
 10
20.100
 20
64.539
  0
VERTEX
  8
1
 10
20.008
 20
64.624
  0
VERTEX
  8
1
 10
19.920
 20
64.714
  0
VERTEX
  8
1
 10
19.839
 20
64.810
  0
VERTEX
  8
1
 10
19.764
 20
64.911
  0
VERTEX
  8
1
 10
19.695
 20
65.016
  0
VERTEX
  8
1
 10
19.633
 20
65.125
  0
VERTEX
  8
1
 10
19.578
 20
65.238
  0
VERTEX
  8
1
 10
19.530
 20
65.354
  0
VERTEX
  8
1
 10
19.490
 20
65.473
  0
VERTEX
  8
1
 10
19.457
 20
65.594
  0
VERTEX
  8
1
 10
19.431
 20
65.717
  0
VERTEX
  8
1
 10
19.414
 20
65.841
  0
VERTEX
  8
1
 10
19.404
 20
65.967
  0
VERTEX
  8
1
 10
19.403
 20
66.092
  0
VERTEX
  8
1
 10
19.409
 20
66.218
  0
VERTEX
  8
1
 10
19.423
 20
66.343
  0
VERTEX
  8
1
 10
19.445
 20
66.466
  0
VERTEX
  8
1
 10
19.474
 20
66.588
  0
VERTEX
  8
1
 10
19.511
 20
66.708
  0
VERTEX
  8
1
 10
19.556
 20
66.826
  0
VERTEX
  8
1
 10
19.608
 20
66.940
  0
VERTEX
  8
1
 10
19.667
 20
67.051
  0
VERTEX
  8
1
 10
19.733
 20
67.158
  0
VERTEX
  8
1
 10
19.796
 20
67.248
  0
VERTEX
  8
1
 10
22.309
 20
70.304
  0
VERTEX
  8
1
 10
26.308
 20
75.035
  0
VERTEX
  8
1
 10
29.135
 20
78.350
  0
VERTEX
  8
1
 10
31.989
 20
81.642
  0
VERTEX
  8
1
 10
34.898
 20
84.888
  0
VERTEX
  8
1
 10
37.892
 20
88.067
  0
VERTEX
  8
1
 10
40.754
 20
90.914
  0
VERTEX
  8
1
 10
43.735
 20
93.633
  0
VERTEX
  8
1
 10
46.857
 20
96.173
  0
VERTEX
  8
1
 10
50.142
 20
98.483
  0
VERTEX
  8
1
 10
52.128
 20
99.699
  0
VERTEX
  8
1
 10
54.171
 20
100.823
  0
VERTEX
  8
1
 10
56.264
 20
101.859
  0
VERTEX
  8
1
 10
58.402
 20
102.810
  0
VERTEX
  8
1
 10
60.579
 20
103.678
  0
VERTEX
  8
1
 10
62.789
 20
104.466
  0
VERTEX
  8
1
 10
65.027
 20
105.178
  0
VERTEX
  8
1
 10
67.287
 20
105.817
  0
VERTEX
  8
1
 10
72.277
 20
106.965
  0
VERTEX
  8
1
 10
77.321
 20
107.774
  0
VERTEX
  8
1
 10
82.399
 20
108.240
  0
VERTEX
  8
1
 10
87.487
 20
108.358
  0
VERTEX
  8
1
 10
90.276
 20
108.276
  0
VERTEX
  8
1
 10
93.060
 20
108.097
  0
VERTEX
  8
1
 10
95.839
 20
107.832
  0
VERTEX
  8
1
 10
98.614
 20
107.491
  0
VERTEX
  8
1
 10
101.382
 20
107.083
  0
VERTEX
  8
1
 10
104.144
 20
106.618
  0
VERTEX
  8
1
 10
106.899
 20
106.105
  0
VERTEX
  8
1
 10
109.646
 20
105.556
  0
VERTEX
  8
1
 10
116.710
 20
104.007
  0
VERTEX
  8
1
 10
123.728
 20
102.311
  0
VERTEX
  8
1
 10
124.205
 20
100.133
  0
VERTEX
  8
1
 10
125.663
 20
101.823
  0
VERTEX
  8
1
 10
132.647
 20
99.990
  0
VERTEX
  8
1
 10
139.600
 20
98.006
  0
VERTEX
  8
1
 10
142.279
 20
97.188
  0
VERTEX
  8
1
 10
144.948
 20
96.334
  0
VERTEX
  8
1
 10
147.600
 20
95.434
  0
VERTEX
  8
1
 10
150.231
 20
94.481
  0
VERTEX
  8
1
 10
152.836
 20
93.467
  0
VERTEX
  8
1
 10
155.409
 20
92.382
  0
VERTEX
  8
1
 10
157.945
 20
91.220
  0
VERTEX
  8
1
 10
160.439
 20
89.971
  0
VERTEX
  8
1
 10
164.864
 20
87.455
  0
VERTEX
  8
1
 10
169.114
 20
84.638
  0
VERTEX
  8
1
 10
173.173
 20
81.535
  0
VERTEX
  8
1
 10
177.022
 20
78.159
  0
VERTEX
  8
1
 10
178.709
 20
76.525
  0
VERTEX
  8
1
 10
180.342
 20
74.837
  0
VERTEX
  8
1
 10
181.915
 20
73.095
  0
VERTEX
  8
1
 10
183.421
 20
71.299
  0
VERTEX
  8
1
 10
184.853
 20
69.449
  0
VERTEX
  8
1
 10
186.205
 20
67.545
  0
VERTEX
  8
1
 10
187.470
 20
65.587
  0
VERTEX
  8
1
 10
188.643
 20
63.574
  0
VERTEX
  8
1
 10
190.440
 20
59.984
  0
VERTEX
  8
1
 10
191.986
 20
56.267
  0
VERTEX
  8
1
 10
193.322
 20
52.460
  0
VERTEX
  8
1
 10
194.492
 20
48.597
  0
VERTEX
  8
1
 10
195.622
 20
44.379
  0
VERTEX
  8
1
 10
196.645
 20
40.141
  0
VERTEX
  8
1
 10
197.597
 20
35.890
  0
VERTEX
  8
1
 10
198.515
 20
31.631
  0
VERTEX
  8
1
 10
199.795
 20
25.570
  0
VERTEX
  8
1
 10
200.562
 20
21.687
  0
VERTEX
  8
1
 10
200.572
 20
21.562
  0
VERTEX
  8
1
 10
200.578
 20
21.437
  0
VERTEX
  8
1
 10
200.576
 20
21.311
  0
VERTEX
  8
1
 10
200.567
 20
21.186
  0
VERTEX
  8
1
 10
200.549
 20
21.062
  0
VERTEX
  8
1
 10
200.524
 20
20.939
  0
VERTEX
  8
1
 10
200.492
 20
20.818
  0
VERTEX
  8
1
 10
200.451
 20
20.699
  0
VERTEX
  8
1
 10
200.404
 20
20.583
  0
VERTEX
  8
1
 10
200.349
 20
20.470
  0
VERTEX
  8
1
 10
200.287
 20
20.361
  0
VERTEX
  8
1
 10
200.218
 20
20.256
  0
VERTEX
  8
1
 10
200.143
 20
20.155
  0
VERTEX
  8
1
 10
200.062
 20
20.059
  0
VERTEX
  8
1
 10
199.975
 20
19.969
  0
VERTEX
  8
1
 10
199.882
 20
19.884
  0
VERTEX
  8
1
 10
199.784
 20
19.806
  0
VERTEX
  8
1
 10
199.682
 20
19.733
  0
VERTEX
  8
1
 10
199.575
 20
19.667
  0
VERTEX
  8
1
 10
199.464
 20
19.608
  0
VERTEX
  8
1
 10
199.350
 20
19.556
  0
VERTEX
  8
1
 10
199.233
 20
19.512
  0
VERTEX
  8
1
 10
199.113
 20
19.474
  0
VERTEX
  8
1
 10
198.991
 20
19.445
  0
VERTEX
  8
1
 10
198.867
 20
19.423
  0
VERTEX
  8
1
 10
198.742
 20
19.409
  0
VERTEX
  8
1
 10
198.617
 20
19.403
  0
VERTEX
  8
1
 10
198.492
 20
19.404
  0
VERTEX
  8
1
 10
198.366
 20
19.414
  0
VERTEX
  8
1
 10
198.258
 20
19.428
  0
VERTEX
  8
1
 10
193.597
 20
20.766
  0
VERTEX
  8
1
 10
178.845
 20
24.934
  0
VERTEX
  8
1
 10
164.093
 20
29.108
  0
VERTEX
  8
1
 10
156.396
 20
31.360
  0
VERTEX
  8
1
 10
148.705
 20
33.634
  0
VERTEX
  8
1
 10
141.008
 20
35.885
  0
VERTEX
  8
1
 10
133.293
 20
38.068
  0
VERTEX
  8
1
 10
122.190
 20
41.018
  0
VERTEX
  8
1
 10
111.041
 20
43.797
  0
VERTEX
  8
1
 10
110.539
 20
45.979
  0
VERTEX
  8
1
 10
109.108
 20
44.284
  0
VERTEX
  8
1
 10
97.969
 20
47.123
  0
VERTEX
  8
1
 10
86.789
 20
49.789
  0
VERTEX
  8
1
 10
74.847
 20
52.404
  0
VERTEX
  8
1
 10
75.054
 20
53.382
  0
VERTEX
  8
1
 10
75.065
 20
53.444
  0
VERTEX
  8
1
 10
75.072
 20
53.507
  0
VERTEX
  8
1
 10
75.075
 20
53.569
  0
VERTEX
  8
1
 10
75.075
 20
53.632
  0
VERTEX
  8
1
 10
75.070
 20
53.695
  0
VERTEX
  8
1
 10
75.061
 20
53.757
  0
VERTEX
  8
1
 10
75.049
 20
53.819
  0
VERTEX
  8
1
 10
75.032
 20
53.879
  0
VERTEX
  8
1
 10
75.012
 20
53.939
  0
VERTEX
  8
1
 10
74.989
 20
53.997
  0
VERTEX
  8
1
 10
74.961
 20
54.053
  0
VERTEX
  8
1
 10
74.930
 20
54.108
  0
VERTEX
  8
1
 10
74.896
 20
54.161
  0
VERTEX
  8
1
 10
74.858
 20
54.211
  0
VERTEX
  8
1
 10
74.818
 20
54.259
  0
VERTEX
  8
1
 10
74.774
 20
54.304
  0
VERTEX
  8
1
 10
74.728
 20
54.347
  0
VERTEX
  8
1
 10
74.679
 20
54.386
  0
VERTEX
  8
1
 10
74.628
 20
54.423
  0
VERTEX
  8
1
 10
74.574
 20
54.456
  0
VERTEX
  8
1
 10
74.519
 20
54.485
  0
VERTEX
  8
1
 10
74.462
 20
54.511
  0
VERTEX
  8
1
 10
74.403
 20
54.534
  0
VERTEX
  8
1
 10
74.343
 20
54.553
  0
VERTEX
  8
1
 10
74.282
 20
54.567
  0
VERTEX
  8
1
 10
74.220
 20
54.579
  0
VERTEX
  8
1
 10
74.158
 20
54.586
  0
VERTEX
  8
1
 10
74.095
 20
54.589
  0
VERTEX
  8
1
 10
74.032
 20
54.588
  0
VERTEX
  8
1
 10
73.970
 20
54.583
  0
VERTEX
  8
1
 10
73.907
 20
54.575
  0
VERTEX
  8
1
 10
73.846
 20
54.562
  0
VERTEX
  8
1
 10
73.785
 20
54.546
  0
VERTEX
  8
1
 10
73.726
 20
54.526
  0
VERTEX
  8
1
 10
73.668
 20
54.502
  0
VERTEX
  8
1
 10
73.611
 20
54.475
  0
VERTEX
  8
1
 10
73.556
 20
54.444
  0
VERTEX
  8
1
 10
73.504
 20
54.410
  0
VERTEX
  8
1
 10
73.453
 20
54.372
  0
VERTEX
  8
1
 10
73.405
 20
54.331
  0
VERTEX
  8
1
 10
73.360
 20
54.288
  0
VERTEX
  8
1
 10
73.318
 20
54.242
  0
VERTEX
  8
1
 10
73.278
 20
54.193
  0
VERTEX
  8
1
 10
73.242
 20
54.141
  0
VERTEX
  8
1
 10
73.209
 20
54.088
  0
VERTEX
  8
1
 10
73.179
 20
54.033
  0
VERTEX
  8
1
 10
73.153
 20
53.975
  0
VERTEX
  8
1
 10
73.131
 20
53.917
  0
VERTEX
  8
1
 10
73.112
 20
53.857
  0
VERTEX
  8
1
 10
73.097
 20
53.796
  0
VERTEX
  8
1
 10
72.890
 20
52.817
  0
VERTEX
  8
1
 10
55.423
 20
56.497
  0
VERTEX
  8
1
 10
40.454
 20
59.814
  0
VERTEX
  8
1
 10
25.489
 20
63.136
  0
VERTEX
  8
1
 10
20.751
 20
64.167
  0
SEQEND
  8
1
  0
ENDBLK
  0
BLOCK
  8
0
  2
1QQFOXINGQRF060
 70
    64
 10
0.000
 20
0.000
  0
TEXT
  8
127
 10
69.630
 20
96.423
 40
2.000
 50
-13.558
  1
1__FOXING_RF  6
  0
POLYLINE
  8
1
 66
     1
 10
20.756
 20
65.387
  0
VERTEX
  8
1
 10
20.756
 20
65.387
  0
VERTEX
  8
1
 10
20.638
 20
65.431
  0
VERTEX
  8
1
 10
20.523
 20
65.483
  0
VERTEX
  8
1
 10
20.412
 20
65.542
  0
VERTEX
  8
1
 10
20.305
 20
65.607
  0
VERTEX
  8
1
 10
20.202
 20
65.679
  0
VERTEX
  8
1
 10
20.104
 20
65.758
  0
VERTEX
  8
1
 10
20.011
 20
65.842
  0
VERTEX
  8
1
 10
19.924
 20
65.933
  0
VERTEX
  8
1
 10
19.842
 20
66.028
  0
VERTEX
  8
1
 10
19.767
 20
66.128
  0
VERTEX
  8
1
 10
19.698
 20
66.233
  0
VERTEX
  8
1
 10
19.635
 20
66.342
  0
VERTEX
  8
1
 10
19.580
 20
66.455
  0
VERTEX
  8
1
 10
19.532
 20
66.571
  0
VERTEX
  8
1
 10
19.491
 20
66.690
  0
VERTEX
  8
1
 10
19.458
 20
66.811
  0
VERTEX
  8
1
 10
19.432
 20
66.934
  0
VERTEX
  8
1
 10
19.415
 20
67.058
  0
VERTEX
  8
1
 10
19.405
 20
67.184
  0
VERTEX
  8
1
 10
19.403
 20
67.309
  0
VERTEX
  8
1
 10
19.408
 20
67.435
  0
VERTEX
  8
1
 10
19.422
 20
67.560
  0
VERTEX
  8
1
 10
19.444
 20
67.683
  0
VERTEX
  8
1
 10
19.473
 20
67.805
  0
VERTEX
  8
1
 10
19.510
 20
67.926
  0
VERTEX
  8
1
 10
19.554
 20
68.043
  0
VERTEX
  8
1
 10
19.606
 20
68.158
  0
VERTEX
  8
1
 10
19.664
 20
68.269
  0
VERTEX
  8
1
 10
19.730
 20
68.376
  0
VERTEX
  8
1
 10
19.791
 20
68.463
  0
VERTEX
  8
1
 10
22.522
 20
71.814
  0
VERTEX
  8
1
 10
26.591
 20
76.666
  0
VERTEX
  8
1
 10
29.470
 20
80.064
  0
VERTEX
  8
1
 10
32.378
 20
83.436
  0
VERTEX
  8
1
 10
35.345
 20
86.759
  0
VERTEX
  8
1
 10
38.403
 20
90.011
  0
VERTEX
  8
1
 10
41.328
 20
92.921
  0
VERTEX
  8
1
 10
44.378
 20
95.699
  0
VERTEX
  8
1
 10
47.573
 20
98.291
  0
VERTEX
  8
1
 10
50.936
 20
100.646
  0
VERTEX
  8
1
 10
52.972
 20
101.886
  0
VERTEX
  8
1
 10
55.065
 20
103.031
  0
VERTEX
  8
1
 10
57.211
 20
104.084
  0
VERTEX
  8
1
 10
59.403
 20
105.049
  0
VERTEX
  8
1
 10
61.634
 20
105.929
  0
VERTEX
  8
1
 10
63.900
 20
106.727
  0
VERTEX
  8
1
 10
66.194
 20
107.446
  0
VERTEX
  8
1
 10
68.510
 20
108.089
  0
VERTEX
  8
1
 10
73.633
 20
109.241
  0
VERTEX
  8
1
 10
78.812
 20
110.043
  0
VERTEX
  8
1
 10
84.022
 20
110.494
  0
VERTEX
  8
1
 10
89.243
 20
110.592
  0
VERTEX
  8
1
 10
92.114
 20
110.496
  0
VERTEX
  8
1
 10
94.981
 20
110.303
  0
VERTEX
  8
1
 10
97.844
 20
110.022
  0
VERTEX
  8
1
 10
100.700
 20
109.665
  0
VERTEX
  8
1
 10
103.551
 20
109.239
  0
VERTEX
  8
1
 10
106.394
 20
108.757
  0
VERTEX
  8
1
 10
109.231
 20
108.227
  0
VERTEX
  8
1
 10
112.059
 20
107.659
  0
VERTEX
  8
1
 10
119.342
 20
106.067
  0
VERTEX
  8
1
 10
126.580
 20
104.328
  0
VERTEX
  8
1
 10
127.062
 20
102.146
  0
VERTEX
  8
1
 10
128.518
 20
103.840
  0
VERTEX
  8
1
 10
135.716
 20
101.944
  0
VERTEX
  8
1
 10
142.884
 20
99.898
  0
VERTEX
  8
1
 10
145.645
 20
99.058
  0
VERTEX
  8
1
 10
148.394
 20
98.181
  0
VERTEX
  8
1
 10
151.127
 20
97.260
  0
VERTEX
  8
1
 10
153.839
 20
96.285
  0
VERTEX
  8
1
 10
156.524
 20
95.247
  0
VERTEX
  8
1
 10
159.178
 20
94.139
  0
VERTEX
  8
1
 10
161.795
 20
92.951
  0
VERTEX
  8
1
 10
164.369
 20
91.675
  0
VERTEX
  8
1
 10
168.921
 20
89.117
  0
VERTEX
  8
1
 10
173.297
 20
86.252
  0
VERTEX
  8
1
 10
177.478
 20
83.093
  0
VERTEX
  8
1
 10
181.445
 20
79.653
  0
VERTEX
  8
1
 10
183.180
 20
77.990
  0
VERTEX
  8
1
 10
184.860
 20
76.270
  0
VERTEX
  8
1
 10
186.477
 20
74.494
  0
VERTEX
  8
1
 10
188.026
 20
72.663
  0
VERTEX
  8
1
 10
189.499
 20
70.775
  0
VERTEX
  8
1
 10
190.890
 20
68.831
  0
VERTEX
  8
1
 10
192.192
 20
66.831
  0
VERTEX
  8
1
 10
193.398
 20
64.775
  0
VERTEX
  8
1
 10
195.245
 20
61.108
  0
VERTEX
  8
1
 10
196.831
 20
57.312
  0
VERTEX
  8
1
 10
198.202
 20
53.421
  0
VERTEX
  8
1
 10
199.400
 20
49.473
  0
VERTEX
  8
1
 10
200.553
 20
45.161
  0
VERTEX
  8
1
 10
201.593
 20
40.828
  0
VERTEX
  8
1
 10
202.558
 20
36.481
  0
VERTEX
  8
1
 10
203.484
 20
32.125
  0
VERTEX
  8
1
 10
204.770
 20
25.925
  0
VERTEX
  8
1
 10
205.592
 20
21.680
  0
VERTEX
  8
1
 10
205.601
 20
21.554
  0
VERTEX
  8
1
 10
205.607
 20
21.429
  0
VERTEX
  8
1
 10
205.605
 20
21.304
  0
VERTEX
  8
1
 10
205.595
 20
21.178
  0
VERTEX
  8
1
 10
205.577
 20
21.054
  0
VERTEX
  8
1
 10
205.552
 20
20.931
  0
VERTEX
  8
1
 10
205.518
 20
20.810
  0
VERTEX
  8
1
 10
205.477
 20
20.692
  0
VERTEX
  8
1
 10
205.429
 20
20.576
  0
VERTEX
  8
1
 10
205.374
 20
20.463
  0
VERTEX
  8
1
 10
205.311
 20
20.354
  0
VERTEX
  8
1
 10
205.242
 20
20.249
  0
VERTEX
  8
1
 10
205.167
 20
20.149
  0
VERTEX
  8
1
 10
205.085
 20
20.054
  0
VERTEX
  8
1
 10
204.998
 20
19.964
  0
VERTEX
  8
1
 10
204.905
 20
19.879
  0
VERTEX
  8
1
 10
204.807
 20
19.801
  0
VERTEX
  8
1
 10
204.704
 20
19.729
  0
VERTEX
  8
1
 10
204.597
 20
19.663
  0
VERTEX
  8
1
 10
204.486
 20
19.605
  0
VERTEX
  8
1
 10
204.371
 20
19.553
  0
VERTEX
  8
1
 10
204.254
 20
19.509
  0
VERTEX
  8
1
 10
204.134
 20
19.472
  0
VERTEX
  8
1
 10
204.012
 20
19.443
  0
VERTEX
  8
1
 10
203.888
 20
19.422
  0
VERTEX
  8
1
 10
203.763
 20
19.408
  0
VERTEX
  8
1
 10
203.638
 20
19.403
  0
VERTEX
  8
1
 10
203.512
 20
19.405
  0
VERTEX
  8
1
 10
203.387
 20
19.415
  0
VERTEX
  8
1
 10
203.283
 20
19.429
  0
VERTEX
  8
1
 10
198.709
 20
20.737
  0
VERTEX
  8
1
 10
183.494
 20
25.025
  0
VERTEX
  8
1
 10
168.280
 20
29.319
  0
VERTEX
  8
1
 10
160.343
 20
31.636
  0
VERTEX
  8
1
 10
152.412
 20
33.975
  0
VERTEX
  8
1
 10
144.475
 20
36.291
  0
VERTEX
  8
1
 10
136.520
 20
38.538
  0
VERTEX
  8
1
 10
125.066
 20
41.580
  0
VERTEX
  8
1
 10
113.564
 20
44.448
  0
VERTEX
  8
1
 10
113.063
 20
46.627
  0
VERTEX
  8
1
 10
111.633
 20
44.934
  0
VERTEX
  8
1
 10
100.140
 20
47.856
  0
VERTEX
  8
1
 10
88.607
 20
50.602
  0
VERTEX
  8
1
 10
76.383
 20
53.280
  0
VERTEX
  8
1
 10
76.590
 20
54.258
  0
VERTEX
  8
1
 10
76.601
 20
54.320
  0
VERTEX
  8
1
 10
76.608
 20
54.383
  0
VERTEX
  8
1
 10
76.611
 20
54.445
  0
VERTEX
  8
1
 10
76.610
 20
54.508
  0
VERTEX
  8
1
 10
76.606
 20
54.571
  0
VERTEX
  8
1
 10
76.597
 20
54.633
  0
VERTEX
  8
1
 10
76.585
 20
54.695
  0
VERTEX
  8
1
 10
76.568
 20
54.755
  0
VERTEX
  8
1
 10
76.548
 20
54.815
  0
VERTEX
  8
1
 10
76.524
 20
54.873
  0
VERTEX
  8
1
 10
76.497
 20
54.930
  0
VERTEX
  8
1
 10
76.466
 20
54.984
  0
VERTEX
  8
1
 10
76.432
 20
55.037
  0
VERTEX
  8
1
 10
76.394
 20
55.087
  0
VERTEX
  8
1
 10
76.354
 20
55.135
  0
VERTEX
  8
1
 10
76.310
 20
55.181
  0
VERTEX
  8
1
 10
76.264
 20
55.223
  0
VERTEX
  8
1
 10
76.215
 20
55.263
  0
VERTEX
  8
1
 10
76.164
 20
55.299
  0
VERTEX
  8
1
 10
76.110
 20
55.332
  0
VERTEX
  8
1
 10
76.055
 20
55.362
  0
VERTEX
  8
1
 10
75.998
 20
55.388
  0
VERTEX
  8
1
 10
75.939
 20
55.410
  0
VERTEX
  8
1
 10
75.879
 20
55.429
  0
VERTEX
  8
1
 10
75.818
 20
55.444
  0
VERTEX
  8
1
 10
75.756
 20
55.455
  0
VERTEX
  8
1
 10
75.694
 20
55.462
  0
VERTEX
  8
1
 10
75.631
 20
55.465
  0
VERTEX
  8
1
 10
75.568
 20
55.465
  0
VERTEX
  8
1
 10
75.506
 20
55.460
  0
VERTEX
  8
1
 10
75.444
 20
55.451
  0
VERTEX
  8
1
 10
75.382
 20
55.439
  0
VERTEX
  8
1
 10
75.321
 20
55.423
  0
VERTEX
  8
1
 10
75.262
 20
55.402
  0
VERTEX
  8
1
 10
75.204
 20
55.379
  0
VERTEX
  8
1
 10
75.147
 20
55.351
  0
VERTEX
  8
1
 10
75.092
 20
55.320
  0
VERTEX
  8
1
 10
75.040
 20
55.286
  0
VERTEX
  8
1
 10
74.989
 20
55.249
  0
VERTEX
  8
1
 10
74.941
 20
55.208
  0
VERTEX
  8
1
 10
74.896
 20
55.165
  0
VERTEX
  8
1
 10
74.854
 20
55.118
  0
VERTEX
  8
1
 10
74.814
 20
55.069
  0
VERTEX
  8
1
 10
74.778
 20
55.018
  0
VERTEX
  8
1
 10
74.745
 20
54.965
  0
VERTEX
  8
1
 10
74.715
 20
54.909
  0
VERTEX
  8
1
 10
74.689
 20
54.852
  0
VERTEX
  8
1
 10
74.667
 20
54.793
  0
VERTEX
  8
1
 10
74.648
 20
54.734
  0
VERTEX
  8
1
 10
74.633
 20
54.672
  0
VERTEX
  8
1
 10
74.426
 20
53.694
  0
VERTEX
  8
1
 10
73.934
 20
53.797
  0
VERTEX
  8
1
 10
73.367
 20
55.961
  0
VERTEX
  8
1
 10
71.976
 20
54.209
  0
VERTEX
  8
1
 10
56.269
 20
57.523
  0
VERTEX
  8
1
 10
40.835
 20
60.946
  0
VERTEX
  8
1
 10
25.404
 20
64.374
  0
VERTEX
  8
1
 10
20.756
 20
65.387
  0
SEQEND
  8
1
  0
ENDBLK
  0
BLOCK
  8
0
  2
1QQFOXINGQRF070
 70
    64
 10
0.000
 20
0.000
  0
TEXT
  8
127
 10
70.985
 20
97.911
 40
2.000
 50
-13.558
  1
1__FOXING_RF  7
  0
POLYLINE
  8
1
 66
     1
 10
20.760
 20
66.606
  0
VERTEX
  8
1
 10
20.760
 20
66.606
  0
VERTEX
  8
1
 10
20.642
 20
66.650
  0
VERTEX
  8
1
 10
20.527
 20
66.702
  0
VERTEX
  8
1
 10
20.416
 20
66.760
  0
VERTEX
  8
1
 10
20.309
 20
66.825
  0
VERTEX
  8
1
 10
20.206
 20
66.897
  0
VERTEX
  8
1
 10
20.108
 20
66.976
  0
VERTEX
  8
1
 10
20.015
 20
67.060
  0
VERTEX
  8
1
 10
19.927
 20
67.150
  0
VERTEX
  8
1
 10
19.845
 20
67.245
  0
VERTEX
  8
1
 10
19.769
 20
67.345
  0
VERTEX
  8
1
 10
19.700
 20
67.450
  0
VERTEX
  8
1
 10
19.638
 20
67.559
  0
VERTEX
  8
1
 10
19.582
 20
67.672
  0
VERTEX
  8
1
 10
19.534
 20
67.788
  0
VERTEX
  8
1
 10
19.492
 20
67.906
  0
VERTEX
  8
1
 10
19.459
 20
68.027
  0
VERTEX
  8
1
 10
19.433
 20
68.150
  0
VERTEX
  8
1
 10
19.415
 20
68.275
  0
VERTEX
  8
1
 10
19.405
 20
68.400
  0
VERTEX
  8
1
 10
19.403
 20
68.525
  0
VERTEX
  8
1
 10
19.408
 20
68.651
  0
VERTEX
  8
1
 10
19.422
 20
68.776
  0
VERTEX
  8
1
 10
19.443
 20
68.900
  0
VERTEX
  8
1
 10
19.472
 20
69.022
  0
VERTEX
  8
1
 10
19.508
 20
69.142
  0
VERTEX
  8
1
 10
19.552
 20
69.260
  0
VERTEX
  8
1
 10
19.604
 20
69.374
  0
VERTEX
  8
1
 10
19.662
 20
69.485
  0
VERTEX
  8
1
 10
19.728
 20
69.593
  0
VERTEX
  8
1
 10
19.787
 20
69.679
  0
VERTEX
  8
1
 10
22.733
 20
73.322
  0
VERTEX
  8
1
 10
26.871
 20
78.296
  0
VERTEX
  8
1
 10
29.801
 20
81.776
  0
VERTEX
  8
1
 10
32.764
 20
85.228
  0
VERTEX
  8
1
 10
35.790
 20
88.629
  0
VERTEX
  8
1
 10
38.911
 20
91.953
  0
VERTEX
  8
1
 10
41.900
 20
94.927
  0
VERTEX
  8
1
 10
45.018
 20
97.763
  0
VERTEX
  8
1
 10
48.286
 20
100.408
  0
VERTEX
  8
1
 10
51.726
 20
102.807
  0
VERTEX
  8
1
 10
53.812
 20
104.071
  0
VERTEX
  8
1
 10
55.957
 20
105.236
  0
VERTEX
  8
1
 10
58.155
 20
106.308
  0
VERTEX
  8
1
 10
60.400
 20
107.288
  0
VERTEX
  8
1
 10
62.687
 20
108.180
  0
VERTEX
  8
1
 10
65.007
 20
108.987
  0
VERTEX
  8
1
 10
67.357
 20
109.713
  0
VERTEX
  8
1
 10
69.729
 20
110.360
  0
VERTEX
  8
1
 10
74.986
 20
111.516
  0
VERTEX
  8
1
 10
80.298
 20
112.311
  0
VERTEX
  8
1
 10
85.642
 20
112.747
  0
VERTEX
  8
1
 10
90.995
 20
112.824
  0
VERTEX
  8
1
 10
93.950
 20
112.716
  0
VERTEX
  8
1
 10
96.900
 20
112.508
  0
VERTEX
  8
1
 10
99.845
 20
112.212
  0
VERTEX
  8
1
 10
102.784
 20
111.837
  0
VERTEX
  8
1
 10
105.716
 20
111.395
  0
VERTEX
  8
1
 10
108.642
 20
110.895
  0
VERTEX
  8
1
 10
111.560
 20
110.347
  0
VERTEX
  8
1
 10
114.471
 20
109.763
  0
VERTEX
  8
1
 10
121.973
 20
108.126
  0
VERTEX
  8
1
 10
129.431
 20
106.345
  0
VERTEX
  8
1
 10
129.918
 20
104.163
  0
VERTEX
  8
1
 10
131.368
 20
105.858
  0
VERTEX
  8
1
 10
138.782
 20
103.897
  0
VERTEX
  8
1
 10
146.167
 20
101.789
  0
VERTEX
  8
1
 10
149.008
 20
100.927
  0
VERTEX
  8
1
 10
151.838
 20
100.028
  0
VERTEX
  8
1
 10
154.652
 20
99.085
  0
VERTEX
  8
1
 10
157.445
 20
98.087
  0
VERTEX
  8
1
 10
160.211
 20
97.026
  0
VERTEX
  8
1
 10
162.945
 20
95.894
  0
VERTEX
  8
1
 10
165.643
 20
94.681
  0
VERTEX
  8
1
 10
168.298
 20
93.379
  0
VERTEX
  8
1
 10
172.976
 20
90.777
  0
VERTEX
  8
1
 10
177.478
 20
87.865
  0
VERTEX
  8
1
 10
181.782
 20
84.651
  0
VERTEX
  8
1
 10
185.866
 20
81.145
  0
VERTEX
  8
1
 10
187.650
 20
79.453
  0
VERTEX
  8
1
 10
189.376
 20
77.702
  0
VERTEX
  8
1
 10
191.039
 20
75.892
  0
VERTEX
  8
1
 10
192.630
 20
74.025
  0
VERTEX
  8
1
 10
194.145
 20
72.099
  0
VERTEX
  8
1
 10
195.574
 20
70.115
  0
VERTEX
  8
1
 10
196.912
 20
68.073
  0
VERTEX
  8
1
 10
198.152
 20
65.973
  0
VERTEX
  8
1
 10
200.048
 20
62.231
  0
VERTEX
  8
1
 10
201.675
 20
58.355
  0
VERTEX
  8
1
 10
203.080
 20
54.381
  0
VERTEX
  8
1
 10
204.307
 20
50.347
  0
VERTEX
  8
1
 10
205.483
 20
45.942
  0
VERTEX
  8
1
 10
206.540
 20
41.514
  0
VERTEX
  8
1
 10
207.516
 20
37.071
  0
VERTEX
  8
1
 10
208.451
 20
32.618
  0
VERTEX
  8
1
 10
209.743
 20
26.279
  0
VERTEX
  8
1
 10
210.617
 20
21.672
  0
VERTEX
  8
1
 10
210.627
 20
21.546
  0
VERTEX
  8
1
 10
210.632
 20
21.421
  0
VERTEX
  8
1
 10
210.629
 20
21.296
  0
VERTEX
  8
1
 10
210.619
 20
21.170
  0
VERTEX
  8
1
 10
210.600
 20
21.046
  0
VERTEX
  8
1
 10
210.574
 20
20.924
  0
VERTEX
  8
1
 10
210.541
 20
20.803
  0
VERTEX
  8
1
 10
210.499
 20
20.684
  0
VERTEX
  8
1
 10
210.451
 20
20.568
  0
VERTEX
  8
1
 10
210.395
 20
20.456
  0
VERTEX
  8
1
 10
210.332
 20
20.347
  0
VERTEX
  8
1
 10
210.262
 20
20.243
  0
VERTEX
  8
1
 10
210.187
 20
20.143
  0
VERTEX
  8
1
 10
210.105
 20
20.048
  0
VERTEX
  8
1
 10
210.017
 20
19.958
  0
VERTEX
  8
1
 10
209.923
 20
19.874
  0
VERTEX
  8
1
 10
209.825
 20
19.796
  0
VERTEX
  8
1
 10
209.722
 20
19.725
  0
VERTEX
  8
1
 10
209.615
 20
19.660
  0
VERTEX
  8
1
 10
209.503
 20
19.601
  0
VERTEX
  8
1
 10
209.389
 20
19.550
  0
VERTEX
  8
1
 10
209.271
 20
19.507
  0
VERTEX
  8
1
 10
209.151
 20
19.470
  0
VERTEX
  8
1
 10
209.029
 20
19.442
  0
VERTEX
  8
1
 10
208.905
 20
19.421
  0
VERTEX
  8
1
 10
208.780
 20
19.408
  0
VERTEX
  8
1
 10
208.655
 20
19.403
  0
VERTEX
  8
1
 10
208.529
 20
19.405
  0
VERTEX
  8
1
 10
208.404
 20
19.416
  0
VERTEX
  8
1
 10
208.304
 20
19.430
  0
VERTEX
  8
1
 10
203.819
 20
20.709
  0
VERTEX
  8
1
 10
188.142
 20
25.115
  0
VERTEX
  8
1
 10
172.466
 20
29.530
  0
VERTEX
  8
1
 10
164.288
 20
31.912
  0
VERTEX
  8
1
 10
156.117
 20
34.316
  0
VERTEX
  8
1
 10
147.941
 20
36.697
  0
VERTEX
  8
1
 10
139.745
 20
39.008
  0
VERTEX
  8
1
 10
127.940
 20
42.141
  0
VERTEX
  8
1
 10
116.086
 20
45.097
  0
VERTEX
  8
1
 10
115.586
 20
47.277
  0
VERTEX
  8
1
 10
114.154
 20
45.583
  0
VERTEX
  8
1
 10
102.309
 20
48.589
  0
VERTEX
  8
1
 10
90.422
 20
51.415
  0
VERTEX
  8
1
 10
77.914
 20
54.156
  0
VERTEX
  8
1
 10
78.122
 20
55.134
  0
VERTEX
  8
1
 10
78.133
 20
55.196
  0
VERTEX
  8
1
 10
78.140
 20
55.258
  0
VERTEX
  8
1
 10
78.143
 20
55.321
  0
VERTEX
  8
1
 10
78.142
 20
55.384
  0
VERTEX
  8
1
 10
78.138
 20
55.447
  0
VERTEX
  8
1
 10
78.129
 20
55.509
  0
VERTEX
  8
1
 10
78.117
 20
55.570
  0
VERTEX
  8
1
 10
78.100
 20
55.631
  0
VERTEX
  8
1
 10
78.080
 20
55.691
  0
VERTEX
  8
1
 10
78.057
 20
55.749
  0
VERTEX
  8
1
 10
78.029
 20
55.805
  0
VERTEX
  8
1
 10
77.998
 20
55.860
  0
VERTEX
  8
1
 10
77.964
 20
55.913
  0
VERTEX
  8
1
 10
77.927
 20
55.963
  0
VERTEX
  8
1
 10
77.886
 20
56.011
  0
VERTEX
  8
1
 10
77.842
 20
56.056
  0
VERTEX
  8
1
 10
77.796
 20
56.099
  0
VERTEX
  8
1
 10
77.747
 20
56.138
  0
VERTEX
  8
1
 10
77.696
 20
56.175
  0
VERTEX
  8
1
 10
77.643
 20
56.208
  0
VERTEX
  8
1
 10
77.587
 20
56.237
  0
VERTEX
  8
1
 10
77.530
 20
56.263
  0
VERTEX
  8
1
 10
77.471
 20
56.286
  0
VERTEX
  8
1
 10
77.411
 20
56.305
  0
VERTEX
  8
1
 10
77.350
 20
56.320
  0
VERTEX
  8
1
 10
77.289
 20
56.331
  0
VERTEX
  8
1
 10
77.226
 20
56.338
  0
VERTEX
  8
1
 10
77.163
 20
56.341
  0
VERTEX
  8
1
 10
77.101
 20
56.340
  0
VERTEX
  8
1
 10
77.038
 20
56.336
  0
VERTEX
  8
1
 10
76.976
 20
56.327
  0
VERTEX
  8
1
 10
76.914
 20
56.315
  0
VERTEX
  8
1
 10
76.854
 20
56.298
  0
VERTEX
  8
1
 10
76.794
 20
56.278
  0
VERTEX
  8
1
 10
76.736
 20
56.254
  0
VERTEX
  8
1
 10
76.679
 20
56.227
  0
VERTEX
  8
1
 10
76.625
 20
56.196
  0
VERTEX
  8
1
 10
76.572
 20
56.162
  0
VERTEX
  8
1
 10
76.522
 20
56.124
  0
VERTEX
  8
1
 10
76.474
 20
56.084
  0
VERTEX
  8
1
 10
76.428
 20
56.040
  0
VERTEX
  8
1
 10
76.386
 20
55.994
  0
VERTEX
  8
1
 10
76.346
 20
55.945
  0
VERTEX
  8
1
 10
76.310
 20
55.894
  0
VERTEX
  8
1
 10
76.277
 20
55.841
  0
VERTEX
  8
1
 10
76.247
 20
55.785
  0
VERTEX
  8
1
 10
76.221
 20
55.728
  0
VERTEX
  8
1
 10
76.199
 20
55.669
  0
VERTEX
  8
1
 10
76.180
 20
55.609
  0
VERTEX
  8
1
 10
76.165
 20
55.548
  0
VERTEX
  8
1
 10
75.958
 20
54.570
  0
VERTEX
  8
1
 10
75.474
 20
54.672
  0
VERTEX
  8
1
 10
74.907
 20
56.835
  0
VERTEX
  8
1
 10
73.516
 20
55.084
  0
VERTEX
  8
1
 10
73.032
 20
55.186
  0
VERTEX
  8
1
 10
72.463
 20
57.349
  0
VERTEX
  8
1
 10
71.074
 20
55.596
  0
VERTEX
  8
1
 10
57.112
 20
58.548
  0
VERTEX
  8
1
 10
41.213
 20
62.076
  0
VERTEX
  8
1
 10
25.317
 20
65.612
  0
VERTEX
  8
1
 10
20.760
 20
66.606
  0
SEQEND
  8
1
  0
ENDBLK
  0
BLOCK
  8
0
  2
1QQFOXINGQRF080
 70
    64
 10
0.000
 20
0.000
  0
TEXT
  8
127
 10
72.338
 20
99.400
 40
2.000
 50
-13.558
  1
1__FOXING_RF  8
  0
POLYLINE
  8
1
 66
     1
 10
20.763
 20
67.824
  0
VERTEX
  8
1
 10
20.763
 20
67.824
  0
VERTEX
  8
1
 10
20.646
 20
67.868
  0
VERTEX
  8
1
 10
20.531
 20
67.919
  0
VERTEX
  8
1
 10
20.420
 20
67.977
  0
VERTEX
  8
1
 10
20.312
 20
68.042
  0
VERTEX
  8
1
 10
20.209
 20
68.114
  0
VERTEX
  8
1
 10
20.111
 20
68.192
  0
VERTEX
  8
1
 10
20.017
 20
68.276
  0
VERTEX
  8
1
 10
19.930
 20
68.366
  0
VERTEX
  8
1
 10
19.848
 20
68.461
  0
VERTEX
  8
1
 10
19.772
 20
68.561
  0
VERTEX
  8
1
 10
19.702
 20
68.666
  0
VERTEX
  8
1
 10
19.639
 20
68.775
  0
VERTEX
  8
1
 10
19.584
 20
68.887
  0
VERTEX
  8
1
 10
19.535
 20
69.003
  0
VERTEX
  8
1
 10
19.494
 20
69.122
  0
VERTEX
  8
1
 10
19.460
 20
69.243
  0
VERTEX
  8
1
 10
19.434
 20
69.365
  0
VERTEX
  8
1
 10
19.416
 20
69.490
  0
VERTEX
  8
1
 10
19.405
 20
69.615
  0
VERTEX
  8
1
 10
19.403
 20
69.740
  0
VERTEX
  8
1
 10
19.408
 20
69.866
  0
VERTEX
  8
1
 10
19.421
 20
69.991
  0
VERTEX
  8
1
 10
19.442
 20
70.115
  0
VERTEX
  8
1
 10
19.471
 20
70.237
  0
VERTEX
  8
1
 10
19.507
 20
70.357
  0
VERTEX
  8
1
 10
19.551
 20
70.475
  0
VERTEX
  8
1
 10
19.602
 20
70.590
  0
VERTEX
  8
1
 10
19.660
 20
70.701
  0
VERTEX
  8
1
 10
19.725
 20
70.808
  0
VERTEX
  8
1
 10
19.780
 20
70.888
  0
VERTEX
  8
1
 10
22.940
 20
74.829
  0
VERTEX
  8
1
 10
27.149
 20
79.924
  0
VERTEX
  8
1
 10
30.130
 20
83.488
  0
VERTEX
  8
1
 10
33.147
 20
87.020
  0
VERTEX
  8
1
 10
36.232
 20
90.497
  0
VERTEX
  8
1
 10
39.416
 20
93.894
  0
VERTEX
  8
1
 10
42.469
 20
96.931
  0
VERTEX
  8
1
 10
45.655
 20
99.826
  0
VERTEX
  8
1
 10
48.996
 20
102.523
  0
VERTEX
  8
1
 10
52.514
 20
104.967
  0
VERTEX
  8
1
 10
54.649
 20
106.254
  0
VERTEX
  8
1
 10
56.846
 20
107.441
  0
VERTEX
  8
1
 10
59.096
 20
108.530
  0
VERTEX
  8
1
 10
61.395
 20
109.525
  0
VERTEX
  8
1
 10
63.736
 20
110.429
  0
VERTEX
  8
1
 10
66.112
 20
111.246
  0
VERTEX
  8
1
 10
68.517
 20
111.978
  0
VERTEX
  8
1
 10
70.944
 20
112.630
  0
VERTEX
  8
1
 10
76.336
 20
113.789
  0
VERTEX
  8
1
 10
81.782
 20
114.578
  0
VERTEX
  8
1
 10
87.260
 20
114.999
  0
VERTEX
  8
1
 10
92.744
 20
115.056
  0
VERTEX
  8
1
 10
95.783
 20
114.935
  0
VERTEX
  8
1
 10
98.816
 20
114.712
  0
VERTEX
  8
1
 10
101.843
 20
114.400
  0
VERTEX
  8
1
 10
104.864
 20
114.009
  0
VERTEX
  8
1
 10
107.879
 20
113.550
  0
VERTEX
  8
1
 10
110.886
 20
113.032
  0
VERTEX
  8
1
 10
113.886
 20
112.467
  0
VERTEX
  8
1
 10
116.879
 20
111.865
  0
VERTEX
  8
1
 10
124.603
 20
110.183
  0
VERTEX
  8
1
 10
132.284
 20
108.360
  0
VERTEX
  8
1
 10
132.772
 20
106.185
  0
VERTEX
  8
1
 10
134.213
 20
107.875
  0
VERTEX
  8
1
 10
141.845
 20
105.850
  0
VERTEX
  8
1
 10
149.448
 20
103.680
  0
VERTEX
  8
1
 10
152.370
 20
102.795
  0
VERTEX
  8
1
 10
155.281
 20
101.875
  0
VERTEX
  8
1
 10
158.176
 20
100.909
  0
VERTEX
  8
1
 10
161.049
 20
99.889
  0
VERTEX
  8
1
 10
163.896
 20
98.805
  0
VERTEX
  8
1
 10
166.711
 20
97.648
  0
VERTEX
  8
1
 10
169.489
 20
96.410
  0
VERTEX
  8
1
 10
172.224
 20
95.081
  0
VERTEX
  8
1
 10
177.030
 20
92.437
  0
VERTEX
  8
1
 10
181.657
 20
89.477
  0
VERTEX
  8
1
 10
186.084
 20
86.207
  0
VERTEX
  8
1
 10
190.287
 20
82.636
  0
VERTEX
  8
1
 10
192.118
 20
80.914
  0
VERTEX
  8
1
 10
193.891
 20
79.131
  0
VERTEX
  8
1
 10
195.598
 20
77.288
  0
VERTEX
  8
1
 10
197.233
 20
75.385
  0
VERTEX
  8
1
 10
198.788
 20
73.421
  0
VERTEX
  8
1
 10
200.257
 20
71.398
  0
VERTEX
  8
1
 10
201.631
 20
69.314
  0
VERTEX
  8
1
 10
202.904
 20
67.170
  0
VERTEX
  8
1
 10
204.848
 20
63.353
  0
VERTEX
  8
1
 10
206.517
 20
59.397
  0
VERTEX
  8
1
 10
207.956
 20
55.340
  0
VERTEX
  8
1
 10
209.210
 20
51.220
  0
VERTEX
  8
1
 10
210.410
 20
46.721
  0
VERTEX
  8
1
 10
211.484
 20
42.199
  0
VERTEX
  8
1
 10
212.473
 20
37.660
  0
VERTEX
  8
1
 10
213.415
 20
33.111
  0
VERTEX
  8
1
 10
214.715
 20
26.631
  0
VERTEX
  8
1
 10
215.638
 20
21.665
  0
VERTEX
  8
1
 10
215.647
 20
21.540
  0
VERTEX
  8
1
 10
215.652
 20
21.415
  0
VERTEX
  8
1
 10
215.649
 20
21.289
  0
VERTEX
  8
1
 10
215.638
 20
21.164
  0
VERTEX
  8
1
 10
215.619
 20
21.040
  0
VERTEX
  8
1
 10
215.593
 20
20.917
  0
VERTEX
  8
1
 10
215.559
 20
20.796
  0
VERTEX
  8
1
 10
215.517
 20
20.678
  0
VERTEX
  8
1
 10
215.468
 20
20.563
  0
VERTEX
  8
1
 10
215.412
 20
20.450
  0
VERTEX
  8
1
 10
215.349
 20
20.342
  0
VERTEX
  8
1
 10
215.279
 20
20.238
  0
VERTEX
  8
1
 10
215.203
 20
20.138
  0
VERTEX
  8
1
 10
215.120
 20
20.043
  0
VERTEX
  8
1
 10
215.032
 20
19.954
  0
VERTEX
  8
1
 10
214.939
 20
19.870
  0
VERTEX
  8
1
 10
214.840
 20
19.792
  0
VERTEX
  8
1
 10
214.737
 20
19.721
  0
VERTEX
  8
1
 10
214.629
 20
19.656
  0
VERTEX
  8
1
 10
214.518
 20
19.599
  0
VERTEX
  8
1
 10
214.403
 20
19.548
  0
VERTEX
  8
1
 10
214.285
 20
19.505
  0
VERTEX
  8
1
 10
214.165
 20
19.469
  0
VERTEX
  8
1
 10
214.042
 20
19.441
  0
VERTEX
  8
1
 10
213.919
 20
19.420
  0
VERTEX
  8
1
 10
213.794
 20
19.407
  0
VERTEX
  8
1
 10
213.668
 20
19.403
  0
VERTEX
  8
1
 10
213.543
 20
19.406
  0
VERTEX
  8
1
 10
213.418
 20
19.417
  0
VERTEX
  8
1
 10
213.321
 20
19.431
  0
VERTEX
  8
1
 10
208.927
 20
20.679
  0
VERTEX
  8
1
 10
192.788
 20
25.205
  0
VERTEX
  8
1
 10
176.650
 20
29.741
  0
VERTEX
  8
1
 10
168.232
 20
32.187
  0
VERTEX
  8
1
 10
159.821
 20
34.656
  0
VERTEX
  8
1
 10
151.404
 20
37.102
  0
VERTEX
  8
1
 10
142.968
 20
39.477
  0
VERTEX
  8
1
 10
130.812
 20
42.701
  0
VERTEX
  8
1
 10
118.607
 20
45.745
  0
VERTEX
  8
1
 10
118.106
 20
47.927
  0
VERTEX
  8
1
 10
116.673
 20
46.231
  0
VERTEX
  8
1
 10
104.475
 20
49.320
  0
VERTEX
  8
1
 10
92.235
 20
52.228
  0
VERTEX
  8
1
 10
79.434
 20
55.033
  0
VERTEX
  8
1
 10
79.641
 20
56.011
  0
VERTEX
  8
1
 10
79.652
 20
56.073
  0
VERTEX
  8
1
 10
79.659
 20
56.135
  0
VERTEX
  8
1
 10
79.663
 20
56.198
  0
VERTEX
  8
1
 10
79.662
 20
56.261
  0
VERTEX
  8
1
 10
79.657
 20
56.324
  0
VERTEX
  8
1
 10
79.649
 20
56.386
  0
VERTEX
  8
1
 10
79.636
 20
56.447
  0
VERTEX
  8
1
 10
79.620
 20
56.508
  0
VERTEX
  8
1
 10
79.600
 20
56.568
  0
VERTEX
  8
1
 10
79.576
 20
56.626
  0
VERTEX
  8
1
 10
79.549
 20
56.682
  0
VERTEX
  8
1
 10
79.518
 20
56.737
  0
VERTEX
  8
1
 10
79.484
 20
56.790
  0
VERTEX
  8
1
 10
79.446
 20
56.840
  0
VERTEX
  8
1
 10
79.405
 20
56.888
  0
VERTEX
  8
1
 10
79.362
 20
56.933
  0
VERTEX
  8
1
 10
79.316
 20
56.976
  0
VERTEX
  8
1
 10
79.267
 20
57.015
  0
VERTEX
  8
1
 10
79.216
 20
57.052
  0
VERTEX
  8
1
 10
79.162
 20
57.085
  0
VERTEX
  8
1
 10
79.107
 20
57.114
  0
VERTEX
  8
1
 10
79.050
 20
57.141
  0
VERTEX
  8
1
 10
78.991
 20
57.163
  0
VERTEX
  8
1
 10
78.931
 20
57.182
  0
VERTEX
  8
1
 10
78.870
 20
57.197
  0
VERTEX
  8
1
 10
78.808
 20
57.208
  0
VERTEX
  8
1
 10
78.746
 20
57.215
  0
VERTEX
  8
1
 10
78.683
 20
57.218
  0
VERTEX
  8
1
 10
78.620
 20
57.218
  0
VERTEX
  8
1
 10
78.558
 20
57.213
  0
VERTEX
  8
1
 10
78.495
 20
57.204
  0
VERTEX
  8
1
 10
78.434
 20
57.192
  0
VERTEX
  8
1
 10
78.373
 20
57.176
  0
VERTEX
  8
1
 10
78.314
 20
57.156
  0
VERTEX
  8
1
 10
78.255
 20
57.132
  0
VERTEX
  8
1
 10
78.199
 20
57.104
  0
VERTEX
  8
1
 10
78.144
 20
57.074
  0
VERTEX
  8
1
 10
78.092
 20
57.039
  0
VERTEX
  8
1
 10
78.041
 20
57.002
  0
VERTEX
  8
1
 10
77.993
 20
56.961
  0
VERTEX
  8
1
 10
77.948
 20
56.918
  0
VERTEX
  8
1
 10
77.905
 20
56.871
  0
VERTEX
  8
1
 10
77.866
 20
56.823
  0
VERTEX
  8
1
 10
77.829
 20
56.771
  0
VERTEX
  8
1
 10
77.796
 20
56.718
  0
VERTEX
  8
1
 10
77.767
 20
56.663
  0
VERTEX
  8
1
 10
77.741
 20
56.605
  0
VERTEX
  8
1
 10
77.718
 20
56.547
  0
VERTEX
  8
1
 10
77.699
 20
56.487
  0
VERTEX
  8
1
 10
77.684
 20
56.426
  0
VERTEX
  8
1
 10
77.477
 20
55.448
  0
VERTEX
  8
1
 10
76.988
 20
55.550
  0
VERTEX
  8
1
 10
76.422
 20
57.714
  0
VERTEX
  8
1
 10
75.031
 20
55.963
  0
VERTEX
  8
1
 10
74.543
 20
56.066
  0
VERTEX
  8
1
 10
73.975
 20
58.229
  0
VERTEX
  8
1
 10
72.585
 20
56.477
  0
VERTEX
  8
1
 10
72.096
 20
56.579
  0
VERTEX
  8
1
 10
71.528
 20
58.742
  0
VERTEX
  8
1
 10
70.139
 20
56.990
  0
VERTEX
  8
1
 10
57.953
 20
59.573
  0
VERTEX
  8
1
 10
41.588
 20
63.206
  0
VERTEX
  8
1
 10
25.226
 20
66.848
  0
VERTEX
  8
1
 10
20.763
 20
67.824
  0
SEQEND
  8
1
  0
ENDBLK
  0
BLOCK
  8
0
  2
1QQFOXINGQRF090
 70
    64
 10
0.000
 20
0.000
  0
TEXT
  8
127
 10
73.690
 20
100.887
 40
2.000
 50
-13.558
  1
1__FOXING_RF  9
  0
POLYLINE
  8
1
 66
     1
 10
20.768
 20
69.040
  0
VERTEX
  8
1
 10
20.768
 20
69.040
  0
VERTEX
  8
1
 10
20.651
 20
69.084
  0
VERTEX
  8
1
 10
20.536
 20
69.134
  0
VERTEX
  8
1
 10
20.424
 20
69.192
  0
VERTEX
  8
1
 10
20.317
 20
69.257
  0
VERTEX
  8
1
 10
20.213
 20
69.329
  0
VERTEX
  8
1
 10
20.115
 20
69.406
  0
VERTEX
  8
1
 10
20.021
 20
69.490
  0
VERTEX
  8
1
 10
19.933
 20
69.580
  0
VERTEX
  8
1
 10
19.851
 20
69.675
  0
VERTEX
  8
1
 10
19.775
 20
69.775
  0
VERTEX
  8
1
 10
19.705
 20
69.879
  0
VERTEX
  8
1
 10
19.642
 20
69.988
  0
VERTEX
  8
1
 10
19.586
 20
70.100
  0
VERTEX
  8
1
 10
19.537
 20
70.216
  0
VERTEX
  8
1
 10
19.495
 20
70.334
  0
VERTEX
  8
1
 10
19.461
 20
70.455
  0
VERTEX
  8
1
 10
19.435
 20
70.578
  0
VERTEX
  8
1
 10
19.416
 20
70.702
  0
VERTEX
  8
1
 10
19.405
 20
70.827
  0
VERTEX
  8
1
 10
19.403
 20
70.953
  0
VERTEX
  8
1
 10
19.408
 20
71.078
  0
VERTEX
  8
1
 10
19.420
 20
71.203
  0
VERTEX
  8
1
 10
19.441
 20
71.327
  0
VERTEX
  8
1
 10
19.470
 20
71.450
  0
VERTEX
  8
1
 10
19.506
 20
71.570
  0
VERTEX
  8
1
 10
19.549
 20
71.688
  0
VERTEX
  8
1
 10
19.600
 20
71.803
  0
VERTEX
  8
1
 10
19.658
 20
71.914
  0
VERTEX
  8
1
 10
19.723
 20
72.022
  0
VERTEX
  8
1
 10
19.776
 20
72.100
  0
VERTEX
  8
1
 10
23.146
 20
76.334
  0
VERTEX
  8
1
 10
27.424
 20
81.551
  0
VERTEX
  8
1
 10
30.457
 20
85.197
  0
VERTEX
  8
1
 10
33.528
 20
88.810
  0
VERTEX
  8
1
 10
36.671
 20
92.363
  0
VERTEX
  8
1
 10
39.919
 20
95.834
  0
VERTEX
  8
1
 10
43.035
 20
98.934
  0
VERTEX
  8
1
 10
46.289
 20
101.887
  0
VERTEX
  8
1
 10
49.703
 20
104.636
  0
VERTEX
  8
1
 10
53.299
 20
107.126
  0
VERTEX
  8
1
 10
55.484
 20
108.436
  0
VERTEX
  8
1
 10
57.731
 20
109.644
  0
VERTEX
  8
1
 10
60.034
 20
110.751
  0
VERTEX
  8
1
 10
62.387
 20
111.761
  0
VERTEX
  8
1
 10
64.782
 20
112.677
  0
VERTEX
  8
1
 10
67.213
 20
113.503
  0
VERTEX
  8
1
 10
69.673
 20
114.243
  0
VERTEX
  8
1
 10
72.157
 20
114.899
  0
VERTEX
  8
1
 10
77.683
 20
116.063
  0
VERTEX
  8
1
 10
83.263
 20
116.844
  0
VERTEX
  8
1
 10
88.874
 20
117.251
  0
VERTEX
  8
1
 10
94.491
 20
117.288
  0
VERTEX
  8
1
 10
97.613
 20
117.153
  0
VERTEX
  8
1
 10
100.729
 20
116.916
  0
VERTEX
  8
1
 10
103.839
 20
116.588
  0
VERTEX
  8
1
 10
106.942
 20
116.181
  0
VERTEX
  8
1
 10
110.039
 20
115.704
  0
VERTEX
  8
1
 10
113.128
 20
115.169
  0
VERTEX
  8
1
 10
116.210
 20
114.586
  0
VERTEX
  8
1
 10
119.285
 20
113.967
  0
VERTEX
  8
1
 10
127.229
 20
112.240
  0
VERTEX
  8
1
 10
135.131
 20
110.375
  0
VERTEX
  8
1
 10
135.624
 20
108.201
  0
VERTEX
  8
1
 10
137.060
 20
109.891
  0
VERTEX
  8
1
 10
144.908
 20
107.801
  0
VERTEX
  8
1
 10
152.728
 20
105.569
  0
VERTEX
  8
1
 10
155.730
 20
104.663
  0
VERTEX
  8
1
 10
158.722
 20
103.720
  0
VERTEX
  8
1
 10
161.698
 20
102.732
  0
VERTEX
  8
1
 10
164.652
 20
101.689
  0
VERTEX
  8
1
 10
167.580
 20
100.582
  0
VERTEX
  8
1
 10
170.476
 20
99.402
  0
VERTEX
  8
1
 10
173.334
 20
98.139
  0
VERTEX
  8
1
 10
176.149
 20
96.783
  0
VERTEX
  8
1
 10
181.082
 20
94.096
  0
VERTEX
  8
1
 10
185.836
 20
91.087
  0
VERTEX
  8
1
 10
190.385
 20
87.762
  0
VERTEX
  8
1
 10
194.705
 20
84.126
  0
VERTEX
  8
1
 10
196.584
 20
82.375
  0
VERTEX
  8
1
 10
198.404
 20
80.560
  0
VERTEX
  8
1
 10
200.156
 20
78.683
  0
VERTEX
  8
1
 10
201.834
 20
76.744
  0
VERTEX
  8
1
 10
203.430
 20
74.743
  0
VERTEX
  8
1
 10
204.937
 20
72.679
  0
VERTEX
  8
1
 10
206.348
 20
70.553
  0
VERTEX
  8
1
 10
207.654
 20
68.366
  0
VERTEX
  8
1
 10
209.647
 20
64.473
  0
VERTEX
  8
1
 10
211.357
 20
60.437
  0
VERTEX
  8
1
 10
212.831
 20
56.297
  0
VERTEX
  8
1
 10
214.112
 20
52.092
  0
VERTEX
  8
1
 10
215.335
 20
47.500
  0
VERTEX
  8
1
 10
216.426
 20
42.883
  0
VERTEX
  8
1
 10
217.427
 20
38.248
  0
VERTEX
  8
1
 10
218.377
 20
33.602
  0
VERTEX
  8
1
 10
219.683
 20
26.982
  0
VERTEX
  8
1
 10
220.655
 20
21.657
  0
VERTEX
  8
1
 10
220.664
 20
21.532
  0
VERTEX
  8
1
 10
220.668
 20
21.407
  0
VERTEX
  8
1
 10
220.665
 20
21.281
  0
VERTEX
  8
1
 10
220.653
 20
21.156
  0
VERTEX
  8
1
 10
220.634
 20
21.032
  0
VERTEX
  8
1
 10
220.607
 20
20.910
  0
VERTEX
  8
1
 10
220.572
 20
20.789
  0
VERTEX
  8
1
 10
220.530
 20
20.671
  0
VERTEX
  8
1
 10
220.481
 20
20.556
  0
VERTEX
  8
1
 10
220.424
 20
20.443
  0
VERTEX
  8
1
 10
220.361
 20
20.335
  0
VERTEX
  8
1
 10
220.290
 20
20.231
  0
VERTEX
  8
1
 10
220.214
 20
20.132
  0
VERTEX
  8
1
 10
220.131
 20
20.037
  0
VERTEX
  8
1
 10
220.042
 20
19.948
  0
VERTEX
  8
1
 10
219.949
 20
19.865
  0
VERTEX
  8
1
 10
219.850
 20
19.788
  0
VERTEX
  8
1
 10
219.746
 20
19.717
  0
VERTEX
  8
1
 10
219.638
 20
19.653
  0
VERTEX
  8
1
 10
219.527
 20
19.595
  0
VERTEX
  8
1
 10
219.411
 20
19.545
  0
VERTEX
  8
1
 10
219.294
 20
19.502
  0
VERTEX
  8
1
 10
219.173
 20
19.467
  0
VERTEX
  8
1
 10
219.051
 20
19.439
  0
VERTEX
  8
1
 10
218.927
 20
19.419
  0
VERTEX
  8
1
 10
218.802
 20
19.407
  0
VERTEX
  8
1
 10
218.676
 20
19.403
  0
VERTEX
  8
1
 10
218.551
 20
19.406
  0
VERTEX
  8
1
 10
218.426
 20
19.418
  0
VERTEX
  8
1
 10
218.333
 20
19.431
  0
VERTEX
  8
1
 10
214.033
 20
20.650
  0
VERTEX
  8
1
 10
197.432
 20
25.295
  0
VERTEX
  8
1
 10
180.832
 20
29.951
  0
VERTEX
  8
1
 10
172.174
 20
32.461
  0
VERTEX
  8
1
 10
163.523
 20
34.995
  0
VERTEX
  8
1
 10
154.866
 20
37.506
  0
VERTEX
  8
1
 10
146.190
 20
39.945
  0
VERTEX
  8
1
 10
133.682
 20
43.260
  0
VERTEX
  8
1
 10
121.125
 20
46.393
  0
VERTEX
  8
1
 10
120.624
 20
48.575
  0
VERTEX
  8
1
 10
119.190
 20
46.879
  0
VERTEX
  8
1
 10
106.639
 20
50.051
  0
VERTEX
  8
1
 10
94.045
 20
53.039
  0
VERTEX
  8
1
 10
80.956
 20
55.908
  0
VERTEX
  8
1
 10
81.164
 20
56.886
  0
VERTEX
  8
1
 10
81.175
 20
56.948
  0
VERTEX
  8
1
 10
81.182
 20
57.011
  0
VERTEX
  8
1
 10
81.185
 20
57.073
  0
VERTEX
  8
1
 10
81.185
 20
57.136
  0
VERTEX
  8
1
 10
81.180
 20
57.199
  0
VERTEX
  8
1
 10
81.171
 20
57.261
  0
VERTEX
  8
1
 10
81.159
 20
57.323
  0
VERTEX
  8
1
 10
81.143
 20
57.383
  0
VERTEX
  8
1
 10
81.123
 20
57.443
  0
VERTEX
  8
1
 10
81.099
 20
57.501
  0
VERTEX
  8
1
 10
81.071
 20
57.557
  0
VERTEX
  8
1
 10
81.041
 20
57.612
  0
VERTEX
  8
1
 10
81.006
 20
57.665
  0
VERTEX
  8
1
 10
80.969
 20
57.715
  0
VERTEX
  8
1
 10
80.928
 20
57.763
  0
VERTEX
  8
1
 10
80.885
 20
57.809
  0
VERTEX
  8
1
 10
80.839
 20
57.851
  0
VERTEX
  8
1
 10
80.790
 20
57.891
  0
VERTEX
  8
1
 10
80.739
 20
57.927
  0
VERTEX
  8
1
 10
80.685
 20
57.960
  0
VERTEX
  8
1
 10
80.630
 20
57.990
  0
VERTEX
  8
1
 10
80.573
 20
58.016
  0
VERTEX
  8
1
 10
80.514
 20
58.038
  0
VERTEX
  8
1
 10
80.454
 20
58.057
  0
VERTEX
  8
1
 10
80.393
 20
58.072
  0
VERTEX
  8
1
 10
80.331
 20
58.083
  0
VERTEX
  8
1
 10
80.269
 20
58.090
  0
VERTEX
  8
1
 10
80.206
 20
58.094
  0
VERTEX
  8
1
 10
80.143
 20
58.093
  0
VERTEX
  8
1
 10
80.081
 20
58.088
  0
VERTEX
  8
1
 10
80.018
 20
58.080
  0
VERTEX
  8
1
 10
79.957
 20
58.067
  0
VERTEX
  8
1
 10
79.896
 20
58.051
  0
VERTEX
  8
1
 10
79.837
 20
58.031
  0
VERTEX
  8
1
 10
79.778
 20
58.007
  0
VERTEX
  8
1
 10
79.722
 20
57.980
  0
VERTEX
  8
1
 10
79.667
 20
57.949
  0
VERTEX
  8
1
 10
79.614
 20
57.915
  0
VERTEX
  8
1
 10
79.564
 20
57.877
  0
VERTEX
  8
1
 10
79.516
 20
57.837
  0
VERTEX
  8
1
 10
79.471
 20
57.793
  0
VERTEX
  8
1
 10
79.428
 20
57.747
  0
VERTEX
  8
1
 10
79.389
 20
57.698
  0
VERTEX
  8
1
 10
79.352
 20
57.647
  0
VERTEX
  8
1
 10
79.319
 20
57.593
  0
VERTEX
  8
1
 10
79.290
 20
57.538
  0
VERTEX
  8
1
 10
79.263
 20
57.481
  0
VERTEX
  8
1
 10
79.241
 20
57.422
  0
VERTEX
  8
1
 10
79.222
 20
57.362
  0
VERTEX
  8
1
 10
79.207
 20
57.301
  0
VERTEX
  8
1
 10
79.000
 20
56.323
  0
VERTEX
  8
1
 10
78.511
 20
56.426
  0
VERTEX
  8
1
 10
77.945
 20
58.590
  0
VERTEX
  8
1
 10
76.554
 20
56.839
  0
VERTEX
  8
1
 10
76.064
 20
56.942
  0
VERTEX
  8
1
 10
75.497
 20
59.105
  0
VERTEX
  8
1
 10
74.107
 20
57.354
  0
VERTEX
  8
1
 10
73.618
 20
57.456
  0
VERTEX
  8
1
 10
73.050
 20
59.619
  0
VERTEX
  8
1
 10
71.660
 20
57.867
  0
VERTEX
  8
1
 10
71.171
 20
57.970
  0
VERTEX
  8
1
 10
70.603
 20
60.132
  0
VERTEX
  8
1
 10
69.213
 20
58.381
  0
VERTEX
  8
1
 10
58.791
 20
60.597
  0
VERTEX
  8
1
 10
41.961
 20
64.335
  0
VERTEX
  8
1
 10
25.134
 20
68.084
  0
VERTEX
  8
1
 10
20.768
 20
69.040
  0
SEQEND
  8
1
  0
ENDBLK
  0
BLOCK
  8
0
  2
1QQFOXINGQRF100
 70
    64
 10
0.000
 20
0.000
  0
TEXT
  8
127
 10
75.042
 20
102.375
 40
2.000
 50
-13.558
  1
1__FOXING_RF  10
  0
POLYLINE
  8
1
 66
     1
 10
20.771
 20
70.256
  0
VERTEX
  8
1
 10
20.771
 20
70.256
  0
VERTEX
  8
1
 10
20.653
 20
70.299
  0
VERTEX
  8
1
 10
20.538
 20
70.350
  0
VERTEX
  8
1
 10
20.427
 20
70.407
  0
VERTEX
  8
1
 10
20.319
 20
70.472
  0
VERTEX
  8
1
 10
20.215
 20
70.544
  0
VERTEX
  8
1
 10
20.117
 20
70.621
  0
VERTEX
  8
1
 10
20.023
 20
70.705
  0
VERTEX
  8
1
 10
19.935
 20
70.794
  0
VERTEX
  8
1
 10
19.853
 20
70.889
  0
VERTEX
  8
1
 10
19.776
 20
70.989
  0
VERTEX
  8
1
 10
19.706
 20
71.093
  0
VERTEX
  8
1
 10
19.643
 20
71.202
  0
VERTEX
  8
1
 10
19.587
 20
71.314
  0
VERTEX
  8
1
 10
19.538
 20
71.430
  0
VERTEX
  8
1
 10
19.496
 20
71.548
  0
VERTEX
  8
1
 10
19.462
 20
71.669
  0
VERTEX
  8
1
 10
19.435
 20
71.792
  0
VERTEX
  8
1
 10
19.417
 20
71.916
  0
VERTEX
  8
1
 10
19.406
 20
72.041
  0
VERTEX
  8
1
 10
19.403
 20
72.167
  0
VERTEX
  8
1
 10
19.407
 20
72.292
  0
VERTEX
  8
1
 10
19.420
 20
72.417
  0
VERTEX
  8
1
 10
19.441
 20
72.541
  0
VERTEX
  8
1
 10
19.469
 20
72.664
  0
VERTEX
  8
1
 10
19.505
 20
72.784
  0
VERTEX
  8
1
 10
19.548
 20
72.902
  0
VERTEX
  8
1
 10
19.599
 20
73.017
  0
VERTEX
  8
1
 10
19.657
 20
73.128
  0
VERTEX
  8
1
 10
19.721
 20
73.236
  0
VERTEX
  8
1
 10
19.774
 20
73.314
  0
VERTEX
  8
1
 10
23.349
 20
77.839
  0
VERTEX
  8
1
 10
27.698
 20
83.178
  0
VERTEX
  8
1
 10
30.781
 20
86.906
  0
VERTEX
  8
1
 10
33.907
 20
90.599
  0
VERTEX
  8
1
 10
37.108
 20
94.229
  0
VERTEX
  8
1
 10
40.419
 20
97.772
  0
VERTEX
  8
1
 10
43.599
 20
100.936
  0
VERTEX
  8
1
 10
46.921
 20
103.947
  0
VERTEX
  8
1
 10
50.408
 20
106.749
  0
VERTEX
  8
1
 10
54.081
 20
109.283
  0
VERTEX
  8
1
 10
56.315
 20
110.618
  0
VERTEX
  8
1
 10
58.614
 20
111.846
  0
VERTEX
  8
1
 10
60.970
 20
112.970
  0
VERTEX
  8
1
 10
63.376
 20
113.995
  0
VERTEX
  8
1
 10
65.825
 20
114.924
  0
VERTEX
  8
1
 10
68.311
 20
115.760
  0
VERTEX
  8
1
 10
70.828
 20
116.507
  0
VERTEX
  8
1
 10
73.367
 20
117.168
  0
VERTEX
  8
1
 10
76.189
 20
117.801
  0
VERTEX
  8
1
 10
79.027
 20
118.335
  0
VERTEX
  8
1
 10
81.879
 20
118.771
  0
VERTEX
  8
1
 10
84.741
 20
119.110
  0
VERTEX
  8
1
 10
87.612
 20
119.353
  0
VERTEX
  8
1
 10
90.486
 20
119.502
  0
VERTEX
  8
1
 10
93.361
 20
119.556
  0
VERTEX
  8
1
 10
96.235
 20
119.519
  0
VERTEX
  8
1
 10
99.441
 20
119.371
  0
VERTEX
  8
1
 10
102.640
 20
119.119
  0
VERTEX
  8
1
 10
105.832
 20
118.776
  0
VERTEX
  8
1
 10
109.018
 20
118.352
  0
VERTEX
  8
1
 10
112.196
 20
117.858
  0
VERTEX
  8
1
 10
115.368
 20
117.305
  0
VERTEX
  8
1
 10
118.532
 20
116.705
  0
VERTEX
  8
1
 10
121.689
 20
116.068
  0
VERTEX
  8
1
 10
129.852
 20
114.298
  0
VERTEX
  8
1
 10
137.974
 20
112.390
  0
VERTEX
  8
1
 10
138.471
 20
110.211
  0
VERTEX
  8
1
 10
139.907
 20
111.905
  0
VERTEX
  8
1
 10
147.971
 20
109.752
  0
VERTEX
  8
1
 10
156.006
 20
107.458
  0
VERTEX
  8
1
 10
159.090
 20
106.529
  0
VERTEX
  8
1
 10
162.162
 20
105.565
  0
VERTEX
  8
1
 10
165.219
 20
104.554
  0
VERTEX
  8
1
 10
168.254
 20
103.489
  0
VERTEX
  8
1
 10
171.263
 20
102.359
  0
VERTEX
  8
1
 10
174.239
 20
101.155
  0
VERTEX
  8
1
 10
177.178
 20
99.866
  0
VERTEX
  8
1
 10
180.074
 20
98.484
  0
VERTEX
  8
1
 10
182.625
 20
97.160
  0
VERTEX
  8
1
 10
185.134
 20
95.754
  0
VERTEX
  8
1
 10
187.598
 20
94.267
  0
VERTEX
  8
1
 10
190.013
 20
92.697
  0
VERTEX
  8
1
 10
192.377
 20
91.047
  0
VERTEX
  8
1
 10
194.685
 20
89.316
  0
VERTEX
  8
1
 10
196.935
 20
87.506
  0
VERTEX
  8
1
 10
199.123
 20
85.616
  0
VERTEX
  8
1
 10
201.050
 20
83.834
  0
VERTEX
  8
1
 10
202.916
 20
81.988
  0
VERTEX
  8
1
 10
204.713
 20
80.077
  0
VERTEX
  8
1
 10
206.434
 20
78.102
  0
VERTEX
  8
1
 10
208.071
 20
76.063
  0
VERTEX
  8
1
 10
209.617
 20
73.959
  0
VERTEX
  8
1
 10
211.063
 20
71.792
  0
VERTEX
  8
1
 10
212.403
 20
69.560
  0
VERTEX
  8
1
 10
214.445
 20
65.592
  0
VERTEX
  8
1
 10
216.196
 20
61.476
  0
VERTEX
  8
1
 10
217.703
 20
57.253
  0
VERTEX
  8
1
 10
219.013
 20
52.963
  0
VERTEX
  8
1
 10
220.258
 20
48.277
  0
VERTEX
  8
1
 10
221.367
 20
43.565
  0
VERTEX
  8
1
 10
222.379
 20
38.835
  0
VERTEX
  8
1
 10
223.337
 20
34.092
  0
VERTEX
  8
1
 10
224.651
 20
27.333
  0
VERTEX
  8
1
 10
225.669
 20
21.651
  0
VERTEX
  8
1
 10
225.677
 20
21.526
  0
VERTEX
  8
1
 10
225.681
 20
21.401
  0
VERTEX
  8
1
 10
225.677
 20
21.275
  0
VERTEX
  8
1
 10
225.665
 20
21.150
  0
VERTEX
  8
1
 10
225.646
 20
21.026
  0
VERTEX
  8
1
 10
225.618
 20
20.904
  0
VERTEX
  8
1
 10
225.583
 20
20.783
  0
VERTEX
  8
1
 10
225.541
 20
20.665
  0
VERTEX
  8
1
 10
225.491
 20
20.550
  0
VERTEX
  8
1
 10
225.434
 20
20.438
  0
VERTEX
  8
1
 10
225.370
 20
20.330
  0
VERTEX
  8
1
 10
225.299
 20
20.226
  0
VERTEX
  8
1
 10
225.222
 20
20.127
  0
VERTEX
  8
1
 10
225.139
 20
20.033
  0
VERTEX
  8
1
 10
225.051
 20
19.944
  0
VERTEX
  8
1
 10
224.956
 20
19.861
  0
VERTEX
  8
1
 10
224.857
 20
19.784
  0
VERTEX
  8
1
 10
224.753
 20
19.714
  0
VERTEX
  8
1
 10
224.645
 20
19.650
  0
VERTEX
  8
1
 10
224.533
 20
19.593
  0
VERTEX
  8
1
 10
224.418
 20
19.543
  0
VERTEX
  8
1
 10
224.300
 20
19.500
  0
VERTEX
  8
1
 10
224.180
 20
19.465
  0
VERTEX
  8
1
 10
224.057
 20
19.438
  0
VERTEX
  8
1
 10
223.933
 20
19.418
  0
VERTEX
  8
1
 10
223.808
 20
19.407
  0
VERTEX
  8
1
 10
223.683
 20
19.403
  0
VERTEX
  8
1
 10
223.557
 20
19.407
  0
VERTEX
  8
1
 10
223.432
 20
19.418
  0
VERTEX
  8
1
 10
223.343
 20
19.432
  0
VERTEX
  8
1
 10
219.139
 20
20.620
  0
VERTEX
  8
1
 10
202.075
 20
25.384
  0
VERTEX
  8
1
 10
185.013
 20
30.161
  0
VERTEX
  8
1
 10
176.115
 20
32.735
  0
VERTEX
  8
1
 10
167.224
 20
35.334
  0
VERTEX
  8
1
 10
158.326
 20
37.910
  0
VERTEX
  8
1
 10
149.410
 20
40.413
  0
VERTEX
  8
1
 10
136.550
 20
43.819
  0
VERTEX
  8
1
 10
123.641
 20
47.040
  0
VERTEX
  8
1
 10
123.141
 20
49.222
  0
VERTEX
  8
1
 10
121.706
 20
47.526
  0
VERTEX
  8
1
 10
108.801
 20
50.781
  0
VERTEX
  8
1
 10
95.853
 20
53.850
  0
VERTEX
  8
1
 10
82.482
 20
56.781
  0
VERTEX
  8
1
 10
82.898
 20
58.738
  0
VERTEX
  8
1
 10
80.941
 20
59.153
  0
VERTEX
  8
1
 10
80.526
 20
57.197
  0
VERTEX
  8
1
 10
70.074
 20
59.396
  0
VERTEX
  8
1
 10
59.627
 20
61.620
  0
VERTEX
  8
1
 10
42.331
 20
65.464
  0
VERTEX
  8
1
 10
25.039
 20
69.320
  0
VERTEX
  8
1
 10
20.771
 20
70.256
  0
SEQEND
  8
1
  0
ENDBLK
  0
BLOCK
  8
0
  2
1QQFOXINGQRF110
 70
    64
 10
0.000
 20
0.000
  0
TEXT
  8
127
 10
76.392
 20
103.861
 40
2.000
 50
-13.558
  1
1__FOXING_RF  11
  0
POLYLINE
  8
1
 66
     1
 10
20.774
 20
71.470
  0
VERTEX
  8
1
 10
20.774
 20
71.470
  0
VERTEX
  8
1
 10
20.656
 20
71.513
  0
VERTEX
  8
1
 10
20.541
 20
71.563
  0
VERTEX
  8
1
 10
20.429
 20
71.621
  0
VERTEX
  8
1
 10
20.322
 20
71.685
  0
VERTEX
  8
1
 10
20.218
 20
71.757
  0
VERTEX
  8
1
 10
20.119
 20
71.834
  0
VERTEX
  8
1
 10
20.025
 20
71.918
  0
VERTEX
  8
1
 10
19.937
 20
72.007
  0
VERTEX
  8
1
 10
19.855
 20
72.102
  0
VERTEX
  8
1
 10
19.778
 20
72.201
  0
VERTEX
  8
1
 10
19.708
 20
72.306
  0
VERTEX
  8
1
 10
19.645
 20
72.414
  0
VERTEX
  8
1
 10
19.588
 20
72.526
  0
VERTEX
  8
1
 10
19.539
 20
72.642
  0
VERTEX
  8
1
 10
19.497
 20
72.760
  0
VERTEX
  8
1
 10
19.463
 20
72.881
  0
VERTEX
  8
1
 10
19.436
 20
73.004
  0
VERTEX
  8
1
 10
19.417
 20
73.128
  0
VERTEX
  8
1
 10
19.406
 20
73.253
  0
VERTEX
  8
1
 10
19.403
 20
73.379
  0
VERTEX
  8
1
 10
19.407
 20
73.504
  0
VERTEX
  8
1
 10
19.420
 20
73.629
  0
VERTEX
  8
1
 10
19.440
 20
73.753
  0
VERTEX
  8
1
 10
19.468
 20
73.875
  0
VERTEX
  8
1
 10
19.504
 20
73.996
  0
VERTEX
  8
1
 10
19.547
 20
74.114
  0
VERTEX
  8
1
 10
19.597
 20
74.229
  0
VERTEX
  8
1
 10
19.655
 20
74.340
  0
VERTEX
  8
1
 10
19.720
 20
74.448
  0
VERTEX
  8
1
 10
19.768
 20
74.520
  0
VERTEX
  8
1
 10
23.550
 20
79.342
  0
VERTEX
  8
1
 10
27.969
 20
84.803
  0
VERTEX
  8
1
 10
31.103
 20
88.614
  0
VERTEX
  8
1
 10
34.283
 20
92.386
  0
VERTEX
  8
1
 10
37.543
 20
96.093
  0
VERTEX
  8
1
 10
40.917
 20
99.709
  0
VERTEX
  8
1
 10
44.160
 20
102.936
  0
VERTEX
  8
1
 10
47.550
 20
106.006
  0
VERTEX
  8
1
 10
51.110
 20
108.860
  0
VERTEX
  8
1
 10
54.860
 20
111.439
  0
VERTEX
  8
1
 10
57.144
 20
112.797
  0
VERTEX
  8
1
 10
59.494
 20
114.046
  0
VERTEX
  8
1
 10
61.902
 20
115.189
  0
VERTEX
  8
1
 10
64.362
 20
116.229
  0
VERTEX
  8
1
 10
66.866
 20
117.170
  0
VERTEX
  8
1
 10
69.407
 20
118.016
  0
VERTEX
  8
1
 10
71.979
 20
118.769
  0
VERTEX
  8
1
 10
74.574
 20
119.435
  0
VERTEX
  8
1
 10
77.463
 20
120.072
  0
VERTEX
  8
1
 10
80.368
 20
120.606
  0
VERTEX
  8
1
 10
83.287
 20
121.040
  0
VERTEX
  8
1
 10
86.217
 20
121.374
  0
VERTEX
  8
1
 10
89.154
 20
121.611
  0
VERTEX
  8
1
 10
92.095
 20
121.752
  0
VERTEX
  8
1
 10
95.037
 20
121.797
  0
VERTEX
  8
1
 10
97.977
 20
121.749
  0
VERTEX
  8
1
 10
101.266
 20
121.587
  0
VERTEX
  8
1
 10
104.548
 20
121.321
  0
VERTEX
  8
1
 10
107.823
 20
120.962
  0
VERTEX
  8
1
 10
111.091
 20
120.521
  0
VERTEX
  8
1
 10
114.352
 20
120.010
  0
VERTEX
  8
1
 10
117.605
 20
119.440
  0
VERTEX
  8
1
 10
120.851
 20
118.823
  0
VERTEX
  8
1
 10
124.090
 20
118.169
  0
VERTEX
  8
1
 10
132.476
 20
116.353
  0
VERTEX
  8
1
 10
140.820
 20
114.402
  0
VERTEX
  8
1
 10
141.320
 20
112.230
  0
VERTEX
  8
1
 10
142.747
 20
113.920
  0
VERTEX
  8
1
 10
151.028
 20
111.702
  0
VERTEX
  8
1
 10
159.283
 20
109.346
  0
VERTEX
  8
1
 10
162.447
 20
108.395
  0
VERTEX
  8
1
 10
165.600
 20
107.408
  0
VERTEX
  8
1
 10
168.738
 20
106.376
  0
VERTEX
  8
1
 10
171.854
 20
105.288
  0
VERTEX
  8
1
 10
174.943
 20
104.135
  0
VERTEX
  8
1
 10
178.000
 20
102.907
  0
VERTEX
  8
1
 10
181.020
 20
101.593
  0
VERTEX
  8
1
 10
183.996
 20
100.184
  0
VERTEX
  8
1
 10
186.611
 20
98.840
  0
VERTEX
  8
1
 10
189.184
 20
97.412
  0
VERTEX
  8
1
 10
191.711
 20
95.901
  0
VERTEX
  8
1
 10
194.189
 20
94.306
  0
VERTEX
  8
1
 10
196.614
 20
92.629
  0
VERTEX
  8
1
 10
198.983
 20
90.870
  0
VERTEX
  8
1
 10
201.293
 20
89.028
  0
VERTEX
  8
1
 10
203.540
 20
87.104
  0
VERTEX
  8
1
 10
205.514
 20
85.293
  0
VERTEX
  8
1
 10
207.426
 20
83.415
  0
VERTEX
  8
1
 10
209.268
 20
81.470
  0
VERTEX
  8
1
 10
211.032
 20
79.459
  0
VERTEX
  8
1
 10
212.710
 20
77.382
  0
VERTEX
  8
1
 10
214.294
 20
75.238
  0
VERTEX
  8
1
 10
215.777
 20
73.029
  0
VERTEX
  8
1
 10
217.150
 20
70.753
  0
VERTEX
  8
1
 10
219.240
 20
66.710
  0
VERTEX
  8
1
 10
221.033
 20
62.514
  0
VERTEX
  8
1
 10
222.574
 20
58.208
  0
VERTEX
  8
1
 10
223.911
 20
53.833
  0
VERTEX
  8
1
 10
225.180
 20
49.053
  0
VERTEX
  8
1
 10
226.305
 20
44.246
  0
VERTEX
  8
1
 10
227.330
 20
39.420
  0
VERTEX
  8
1
 10
228.295
 20
34.581
  0
VERTEX
  8
1
 10
229.615
 20
27.682
  0
VERTEX
  8
1
 10
230.678
 20
21.645
  0
VERTEX
  8
1
 10
230.686
 20
21.520
  0
VERTEX
  8
1
 10
230.690
 20
21.395
  0
VERTEX
  8
1
 10
230.685
 20
21.269
  0
VERTEX
  8
1
 10
230.673
 20
21.144
  0
VERTEX
  8
1
 10
230.653
 20
21.020
  0
VERTEX
  8
1
 10
230.625
 20
20.898
  0
VERTEX
  8
1
 10
230.590
 20
20.778
  0
VERTEX
  8
1
 10
230.547
 20
20.660
  0
VERTEX
  8
1
 10
230.497
 20
20.545
  0
VERTEX
  8
1
 10
230.439
 20
20.433
  0
VERTEX
  8
1
 10
230.375
 20
20.325
  0
VERTEX
  8
1
 10
230.304
 20
20.221
  0
VERTEX
  8
1
 10
230.227
 20
20.122
  0
VERTEX
  8
1
 10
230.144
 20
20.028
  0
VERTEX
  8
1
 10
230.055
 20
19.940
  0
VERTEX
  8
1
 10
229.960
 20
19.857
  0
VERTEX
  8
1
 10
229.861
 20
19.781
  0
VERTEX
  8
1
 10
229.757
 20
19.710
  0
VERTEX
  8
1
 10
229.649
 20
19.647
  0
VERTEX
  8
1
 10
229.537
 20
19.590
  0
VERTEX
  8
1
 10
229.421
 20
19.541
  0
VERTEX
  8
1
 10
229.303
 20
19.499
  0
VERTEX
  8
1
 10
229.182
 20
19.464
  0
VERTEX
  8
1
 10
229.060
 20
19.437
  0
VERTEX
  8
1
 10
228.936
 20
19.418
  0
VERTEX
  8
1
 10
228.811
 20
19.406
  0
VERTEX
  8
1
 10
228.685
 20
19.403
  0
VERTEX
  8
1
 10
228.560
 20
19.407
  0
VERTEX
  8
1
 10
228.435
 20
19.419
  0
VERTEX
  8
1
 10
228.349
 20
19.432
  0
VERTEX
  8
1
 10
208.753
 20
24.837
  0
VERTEX
  8
1
 10
189.192
 20
30.370
  0
VERTEX
  8
1
 10
180.059
 20
33.029
  0
VERTEX
  8
1
 10
170.930
 20
35.698
  0
VERTEX
  8
1
 10
161.790
 20
38.330
  0
VERTEX
  8
1
 10
152.628
 20
40.879
  0
VERTEX
  8
1
 10
139.411
 20
44.349
  0
VERTEX
  8
1
 10
126.156
 20
47.681
  0
VERTEX
  8
1
 10
125.655
 20
49.869
  0
VERTEX
  8
1
 10
124.215
 20
48.167
  0
VERTEX
  8
1
 10
110.953
 20
51.483
  0
VERTEX
  8
1
 10
97.659
 20
54.660
  0
VERTEX
  8
1
 10
84.007
 20
57.678
  0
VERTEX
  8
1
 10
84.418
 20
59.611
  0
VERTEX
  8
1
 10
82.462
 20
60.027
  0
VERTEX
  8
1
 10
82.052
 20
58.095
  0
VERTEX
  8
1
 10
81.551
 20
58.201
  0
VERTEX
  8
1
 10
80.994
 20
60.337
  0
VERTEX
  8
1
 10
79.620
 20
58.610
  0
VERTEX
  8
1
 10
60.461
 20
62.642
  0
VERTEX
  8
1
 10
40.603
 20
66.991
  0
VERTEX
  8
1
 10
20.774
 20
71.470
  0
SEQEND
  8
1
  0
ENDBLK
  0
BLOCK
  8
0
  2
1QQFOXINGQRF120
 70
    64
 10
0.000
 20
0.000
  0
TEXT
  8
127
 10
77.741
 20
105.348
 40
2.000
 50
-13.558
  1
1__FOXING_RF  12
  0
POLYLINE
  8
1
 66
     1
 10
20.778
 20
72.683
  0
VERTEX
  8
1
 10
20.778
 20
72.683
  0
VERTEX
  8
1
 10
20.660
 20
72.726
  0
VERTEX
  8
1
 10
20.544
 20
72.776
  0
VERTEX
  8
1
 10
20.433
 20
72.833
  0
VERTEX
  8
1
 10
20.325
 20
72.898
  0
VERTEX
  8
1
 10
20.221
 20
72.969
  0
VERTEX
  8
1
 10
20.122
 20
73.046
  0
VERTEX
  8
1
 10
20.028
 20
73.129
  0
VERTEX
  8
1
 10
19.940
 20
73.218
  0
VERTEX
  8
1
 10
19.857
 20
73.313
  0
VERTEX
  8
1
 10
19.780
 20
73.412
  0
VERTEX
  8
1
 10
19.710
 20
73.517
  0
VERTEX
  8
1
 10
19.647
 20
73.625
  0
VERTEX
  8
1
 10
19.590
 20
73.737
  0
VERTEX
  8
1
 10
19.540
 20
73.852
  0
VERTEX
  8
1
 10
19.498
 20
73.971
  0
VERTEX
  8
1
 10
19.464
 20
74.091
  0
VERTEX
  8
1
 10
19.437
 20
74.214
  0
VERTEX
  8
1
 10
19.418
 20
74.338
  0
VERTEX
  8
1
 10
19.406
 20
74.463
  0
VERTEX
  8
1
 10
19.403
 20
74.589
  0
VERTEX
  8
1
 10
19.407
 20
74.714
  0
VERTEX
  8
1
 10
19.419
 20
74.839
  0
VERTEX
  8
1
 10
19.439
 20
74.963
  0
VERTEX
  8
1
 10
19.467
 20
75.086
  0
VERTEX
  8
1
 10
19.503
 20
75.206
  0
VERTEX
  8
1
 10
19.545
 20
75.324
  0
VERTEX
  8
1
 10
19.596
 20
75.440
  0
VERTEX
  8
1
 10
19.653
 20
75.551
  0
VERTEX
  8
1
 10
19.717
 20
75.659
  0
VERTEX
  8
1
 10
19.764
 20
75.728
  0
VERTEX
  8
1
 10
23.750
 20
80.844
  0
VERTEX
  8
1
 10
28.238
 20
86.427
  0
VERTEX
  8
1
 10
31.423
 20
90.320
  0
VERTEX
  8
1
 10
34.658
 20
94.172
  0
VERTEX
  8
1
 10
37.976
 20
97.956
  0
VERTEX
  8
1
 10
41.413
 20
101.645
  0
VERTEX
  8
1
 10
43.048
 20
103.307
  0
VERTEX
  8
1
 10
44.719
 20
104.936
  0
VERTEX
  8
1
 10
46.428
 20
106.524
  0
VERTEX
  8
1
 10
48.177
 20
108.064
  0
VERTEX
  8
1
 10
49.970
 20
109.548
  0
VERTEX
  8
1
 10
51.809
 20
110.970
  0
VERTEX
  8
1
 10
53.697
 20
112.321
  0
VERTEX
  8
1
 10
55.637
 20
113.594
  0
VERTEX
  8
1
 10
57.971
 20
114.977
  0
VERTEX
  8
1
 10
60.372
 20
116.246
  0
VERTEX
  8
1
 10
62.833
 20
117.407
  0
VERTEX
  8
1
 10
65.346
 20
118.462
  0
VERTEX
  8
1
 10
67.904
 20
119.415
  0
VERTEX
  8
1
 10
70.501
 20
120.271
  0
VERTEX
  8
1
 10
73.128
 20
121.032
  0
VERTEX
  8
1
 10
75.779
 20
121.702
  0
VERTEX
  8
1
 10
78.735
 20
122.342
  0
VERTEX
  8
1
 10
81.708
 20
122.877
  0
VERTEX
  8
1
 10
84.694
 20
123.309
  0
VERTEX
  8
1
 10
87.691
 20
123.639
  0
VERTEX
  8
1
 10
90.695
 20
123.869
  0
VERTEX
  8
1
 10
93.703
 20
124.002
  0
VERTEX
  8
1
 10
96.711
 20
124.037
  0
VERTEX
  8
1
 10
99.717
 20
123.979
  0
VERTEX
  8
1
 10
103.090
 20
123.804
  0
VERTEX
  8
1
 10
106.455
 20
123.523
  0
VERTEX
  8
1
 10
109.812
 20
123.148
  0
VERTEX
  8
1
 10
113.163
 20
122.691
  0
VERTEX
  8
1
 10
116.505
 20
122.163
  0
VERTEX
  8
1
 10
119.841
 20
121.575
  0
VERTEX
  8
1
 10
123.169
 20
120.940
  0
VERTEX
  8
1
 10
126.489
 20
120.269
  0
VERTEX
  8
1
 10
135.096
 20
118.409
  0
VERTEX
  8
1
 10
143.663
 20
116.416
  0
VERTEX
  8
1
 10
144.165
 20
114.244
  0
VERTEX
  8
1
 10
145.588
 20
115.933
  0
VERTEX
  8
1
 10
154.087
 20
113.652
  0
VERTEX
  8
1
 10
162.558
 20
111.234
  0
VERTEX
  8
1
 10
165.803
 20
110.260
  0
VERTEX
  8
1
 10
169.037
 20
109.251
  0
VERTEX
  8
1
 10
172.256
 20
108.197
  0
VERTEX
  8
1
 10
175.453
 20
107.087
  0
VERTEX
  8
1
 10
178.623
 20
105.911
  0
VERTEX
  8
1
 10
181.761
 20
104.658
  0
VERTEX
  8
1
 10
184.861
 20
103.319
  0
VERTEX
  8
1
 10
187.918
 20
101.884
  0
VERTEX
  8
1
 10
190.596
 20
100.519
  0
VERTEX
  8
1
 10
193.233
 20
99.069
  0
VERTEX
  8
1
 10
195.823
 20
97.534
  0
VERTEX
  8
1
 10
198.364
 20
95.915
  0
VERTEX
  8
1
 10
200.851
 20
94.211
  0
VERTEX
  8
1
 10
203.281
 20
92.422
  0
VERTEX
  8
1
 10
205.650
 20
90.549
  0
VERTEX
  8
1
 10
207.955
 20
88.591
  0
VERTEX
  8
1
 10
209.977
 20
86.750
  0
VERTEX
  8
1
 10
211.936
 20
84.841
  0
VERTEX
  8
1
 10
213.822
 20
82.862
  0
VERTEX
  8
1
 10
215.629
 20
80.815
  0
VERTEX
  8
1
 10
217.348
 20
78.700
  0
VERTEX
  8
1
 10
218.971
 20
76.516
  0
VERTEX
  8
1
 10
220.490
 20
74.265
  0
VERTEX
  8
1
 10
221.897
 20
71.945
  0
VERTEX
  8
1
 10
223.007
 20
69.908
  0
VERTEX
  8
1
 10
224.035
 20
67.826
  0
VERTEX
  8
1
 10
224.987
 20
65.706
  0
VERTEX
  8
1
 10
225.868
 20
63.551
  0
VERTEX
  8
1
 10
226.685
 20
61.368
  0
VERTEX
  8
1
 10
227.443
 20
59.162
  0
VERTEX
  8
1
 10
228.149
 20
56.938
  0
VERTEX
  8
1
 10
228.808
 20
54.702
  0
VERTEX
  8
1
 10
230.100
 20
49.828
  0
VERTEX
  8
1
 10
231.242
 20
44.927
  0
VERTEX
  8
1
 10
232.279
 20
40.005
  0
VERTEX
  8
1
 10
233.252
 20
35.069
  0
VERTEX
  8
1
 10
234.579
 20
28.030
  0
VERTEX
  8
1
 10
235.684
 20
21.643
  0
VERTEX
  8
1
 10
235.692
 20
21.518
  0
VERTEX
  8
1
 10
235.695
 20
21.393
  0
VERTEX
  8
1
 10
235.691
 20
21.267
  0
VERTEX
  8
1
 10
235.679
 20
21.142
  0
VERTEX
  8
1
 10
235.658
 20
21.018
  0
VERTEX
  8
1
 10
235.631
 20
20.896
  0
VERTEX
  8
1
 10
235.595
 20
20.776
  0
VERTEX
  8
1
 10
235.552
 20
20.658
  0
VERTEX
  8
1
 10
235.502
 20
20.543
  0
VERTEX
  8
1
 10
235.444
 20
20.431
  0
VERTEX
  8
1
 10
235.380
 20
20.323
  0
VERTEX
  8
1
 10
235.309
 20
20.220
  0
VERTEX
  8
1
 10
235.232
 20
20.121
  0
VERTEX
  8
1
 10
235.148
 20
20.027
  0
VERTEX
  8
1
 10
235.059
 20
19.939
  0
VERTEX
  8
1
 10
234.965
 20
19.856
  0
VERTEX
  8
1
 10
234.865
 20
19.779
  0
VERTEX
  8
1
 10
234.761
 20
19.709
  0
VERTEX
  8
1
 10
234.653
 20
19.646
  0
VERTEX
  8
1
 10
234.541
 20
19.589
  0
VERTEX
  8
1
 10
234.425
 20
19.540
  0
VERTEX
  8
1
 10
234.307
 20
19.498
  0
VERTEX
  8
1
 10
234.186
 20
19.463
  0
VERTEX
  8
1
 10
234.064
 20
19.436
  0
VERTEX
  8
1
 10
233.939
 20
19.417
  0
VERTEX
  8
1
 10
233.814
 20
19.406
  0
VERTEX
  8
1
 10
233.689
 20
19.403
  0
VERTEX
  8
1
 10
233.563
 20
19.407
  0
VERTEX
  8
1
 10
233.439
 20
19.419
  0
VERTEX
  8
1
 10
233.352
 20
19.433
  0
VERTEX
  8
1
 10
213.343
 20
24.941
  0
VERTEX
  8
1
 10
193.370
 20
30.579
  0
VERTEX
  8
1
 10
183.997
 20
33.302
  0
VERTEX
  8
1
 10
174.627
 20
36.036
  0
VERTEX
  8
1
 10
165.248
 20
38.733
  0
VERTEX
  8
1
 10
155.845
 20
41.346
  0
VERTEX
  8
1
 10
142.275
 20
44.906
  0
VERTEX
  8
1
 10
128.667
 20
48.327
  0
VERTEX
  8
1
 10
128.167
 20
50.513
  0
VERTEX
  8
1
 10
126.728
 20
48.813
  0
VERTEX
  8
1
 10
113.112
 20
52.212
  0
VERTEX
  8
1
 10
99.463
 20
55.470
  0
VERTEX
  8
1
 10
85.531
 20
58.550
  0
VERTEX
  8
1
 10
85.943
 20
60.483
  0
VERTEX
  8
1
 10
83.986
 20
60.899
  0
VERTEX
  8
1
 10
83.576
 20
58.967
  0
VERTEX
  8
1
 10
83.077
 20
59.073
  0
VERTEX
  8
1
 10
82.520
 20
61.210
  0
VERTEX
  8
1
 10
81.146
 20
59.483
  0
VERTEX
  8
1
 10
80.633
 20
59.591
  0
VERTEX
  8
1
 10
80.075
 20
61.726
  0
VERTEX
  8
1
 10
78.702
 20
59.998
  0
VERTEX
  8
1
 10
61.293
 20
63.665
  0
VERTEX
  8
1
 10
41.021
 20
68.108
  0
VERTEX
  8
1
 10
20.778
 20
72.683
  0
SEQEND
  8
1
  0
ENDBLK
  0
BLOCK
  8
0
  2
1QQFOXINGQRF130
 70
    64
 10
0.000
 20
0.000
  0
TEXT
  8
127
 10
79.090
 20
106.834
 40
2.000
 50
-13.558
  1
1__FOXING_RF  13
  0
POLYLINE
  8
1
 66
     1
 10
20.780
 20
73.895
  0
VERTEX
  8
1
 10
20.780
 20
73.895
  0
VERTEX
  8
1
 10
20.662
 20
73.938
  0
VERTEX
  8
1
 10
20.547
 20
73.988
  0
VERTEX
  8
1
 10
20.435
 20
74.045
  0
VERTEX
  8
1
 10
20.327
 20
74.109
  0
VERTEX
  8
1
 10
20.224
 20
74.180
  0
VERTEX
  8
1
 10
20.124
 20
74.257
  0
VERTEX
  8
1
 10
20.030
 20
74.340
  0
VERTEX
  8
1
 10
19.942
 20
74.429
  0
VERTEX
  8
1
 10
19.859
 20
74.524
  0
VERTEX
  8
1
 10
19.782
 20
74.623
  0
VERTEX
  8
1
 10
19.712
 20
74.727
  0
VERTEX
  8
1
 10
19.648
 20
74.835
  0
VERTEX
  8
1
 10
19.591
 20
74.947
  0
VERTEX
  8
1
 10
19.542
 20
75.063
  0
VERTEX
  8
1
 10
19.499
 20
75.181
  0
VERTEX
  8
1
 10
19.464
 20
75.302
  0
VERTEX
  8
1
 10
19.437
 20
75.424
  0
VERTEX
  8
1
 10
19.418
 20
75.548
  0
VERTEX
  8
1
 10
19.406
 20
75.674
  0
VERTEX
  8
1
 10
19.403
 20
75.799
  0
VERTEX
  8
1
 10
19.407
 20
75.925
  0
VERTEX
  8
1
 10
19.419
 20
76.050
  0
VERTEX
  8
1
 10
19.439
 20
76.174
  0
VERTEX
  8
1
 10
19.466
 20
76.296
  0
VERTEX
  8
1
 10
19.502
 20
76.417
  0
VERTEX
  8
1
 10
19.544
 20
76.535
  0
VERTEX
  8
1
 10
19.595
 20
76.650
  0
VERTEX
  8
1
 10
19.652
 20
76.762
  0
VERTEX
  8
1
 10
19.716
 20
76.870
  0
VERTEX
  8
1
 10
19.763
 20
76.940
  0
VERTEX
  8
1
 10
23.947
 20
82.346
  0
VERTEX
  8
1
 10
28.505
 20
88.050
  0
VERTEX
  8
1
 10
31.742
 20
92.026
  0
VERTEX
  8
1
 10
35.030
 20
95.958
  0
VERTEX
  8
1
 10
38.407
 20
99.818
  0
VERTEX
  8
1
 10
41.907
 20
103.580
  0
VERTEX
  8
1
 10
43.573
 20
105.274
  0
VERTEX
  8
1
 10
45.276
 20
106.934
  0
VERTEX
  8
1
 10
47.018
 20
108.552
  0
VERTEX
  8
1
 10
48.802
 20
110.121
  0
VERTEX
  8
1
 10
50.631
 20
111.632
  0
VERTEX
  8
1
 10
52.507
 20
113.079
  0
VERTEX
  8
1
 10
54.433
 20
114.453
  0
VERTEX
  8
1
 10
56.412
 20
115.748
  0
VERTEX
  8
1
 10
58.796
 20
117.155
  0
VERTEX
  8
1
 10
61.248
 20
118.445
  0
VERTEX
  8
1
 10
63.761
 20
119.624
  0
VERTEX
  8
1
 10
66.328
 20
120.694
  0
VERTEX
  8
1
 10
68.941
 20
121.660
  0
VERTEX
  8
1
 10
71.592
 20
122.525
  0
VERTEX
  8
1
 10
74.275
 20
123.293
  0
VERTEX
  8
1
 10
76.982
 20
123.968
  0
VERTEX
  8
1
 10
80.005
 20
124.612
  0
VERTEX
  8
1
 10
83.045
 20
125.147
  0
VERTEX
  8
1
 10
86.098
 20
125.577
  0
VERTEX
  8
1
 10
89.162
 20
125.903
  0
VERTEX
  8
1
 10
92.233
 20
126.127
  0
VERTEX
  8
1
 10
95.308
 20
126.251
  0
VERTEX
  8
1
 10
98.383
 20
126.277
  0
VERTEX
  8
1
 10
101.455
 20
126.208
  0
VERTEX
  8
1
 10
104.911
 20
126.020
  0
VERTEX
  8
1
 10
108.359
 20
125.724
  0
VERTEX
  8
1
 10
111.799
 20
125.334
  0
VERTEX
  8
1
 10
115.232
 20
124.860
  0
VERTEX
  8
1
 10
118.657
 20
124.315
  0
VERTEX
  8
1
 10
122.075
 20
123.710
  0
VERTEX
  8
1
 10
125.485
 20
123.057
  0
VERTEX
  8
1
 10
128.887
 20
122.369
  0
VERTEX
  8
1
 10
137.715
 20
120.463
  0
VERTEX
  8
1
 10
146.504
 20
118.428
  0
VERTEX
  8
1
 10
147.009
 20
116.257
  0
VERTEX
  8
1
 10
148.428
 20
117.947
  0
VERTEX
  8
1
 10
157.143
 20
115.600
  0
VERTEX
  8
1
 10
165.833
 20
113.121
  0
VERTEX
  8
1
 10
169.158
 20
112.125
  0
VERTEX
  8
1
 10
172.474
 20
111.094
  0
VERTEX
  8
1
 10
175.773
 20
110.017
  0
VERTEX
  8
1
 10
179.051
 20
108.885
  0
VERTEX
  8
1
 10
182.302
 20
107.685
  0
VERTEX
  8
1
 10
185.521
 20
106.409
  0
VERTEX
  8
1
 10
188.701
 20
105.045
  0
VERTEX
  8
1
 10
191.838
 20
103.583
  0
VERTEX
  8
1
 10
194.581
 20
102.197
  0
VERTEX
  8
1
 10
197.281
 20
100.725
  0
VERTEX
  8
1
 10
199.934
 20
99.167
  0
VERTEX
  8
1
 10
202.538
 20
97.522
  0
VERTEX
  8
1
 10
205.087
 20
95.792
  0
VERTEX
  8
1
 10
207.578
 20
93.974
  0
VERTEX
  8
1
 10
210.007
 20
92.069
  0
VERTEX
  8
1
 10
212.370
 20
90.077
  0
VERTEX
  8
1
 10
214.440
 20
88.207
  0
VERTEX
  8
1
 10
216.444
 20
86.265
  0
VERTEX
  8
1
 10
218.376
 20
84.253
  0
VERTEX
  8
1
 10
220.225
 20
82.170
  0
VERTEX
  8
1
 10
221.985
 20
80.017
  0
VERTEX
  8
1
 10
223.647
 20
77.793
  0
VERTEX
  8
1
 10
225.202
 20
75.499
  0
VERTEX
  8
1
 10
226.642
 20
73.136
  0
VERTEX
  8
1
 10
227.777
 20
71.062
  0
VERTEX
  8
1
 10
228.828
 20
68.942
  0
VERTEX
  8
1
 10
229.801
 20
66.782
  0
VERTEX
  8
1
 10
230.702
 20
64.587
  0
VERTEX
  8
1
 10
231.537
 20
62.363
  0
VERTEX
  8
1
 10
232.312
 20
60.115
  0
VERTEX
  8
1
 10
233.032
 20
57.849
  0
VERTEX
  8
1
 10
233.703
 20
55.569
  0
VERTEX
  8
1
 10
235.018
 20
50.602
  0
VERTEX
  8
1
 10
236.178
 20
45.606
  0
VERTEX
  8
1
 10
237.226
 20
40.589
  0
VERTEX
  8
1
 10
238.208
 20
35.557
  0
VERTEX
  8
1
 10
239.541
 20
28.378
  0
VERTEX
  8
1
 10
240.688
 20
21.633
  0
VERTEX
  8
1
 10
240.695
 20
21.508
  0
VERTEX
  8
1
 10
240.698
 20
21.382
  0
VERTEX
  8
1
 10
240.693
 20
21.257
  0
VERTEX
  8
1
 10
240.680
 20
21.132
  0
VERTEX
  8
1
 10
240.659
 20
21.008
  0
VERTEX
  8
1
 10
240.631
 20
20.886
  0
VERTEX
  8
1
 10
240.595
 20
20.766
  0
VERTEX
  8
1
 10
240.551
 20
20.648
  0
VERTEX
  8
1
 10
240.500
 20
20.533
  0
VERTEX
  8
1
 10
240.442
 20
20.422
  0
VERTEX
  8
1
 10
240.377
 20
20.314
  0
VERTEX
  8
1
 10
240.306
 20
20.211
  0
VERTEX
  8
1
 10
240.228
 20
20.113
  0
VERTEX
  8
1
 10
240.144
 20
20.019
  0
VERTEX
  8
1
 10
240.054
 20
19.931
  0
VERTEX
  8
1
 10
239.959
 20
19.849
  0
VERTEX
  8
1
 10
239.859
 20
19.773
  0
VERTEX
  8
1
 10
239.755
 20
19.704
  0
VERTEX
  8
1
 10
239.646
 20
19.641
  0
VERTEX
  8
1
 10
239.534
 20
19.585
  0
VERTEX
  8
1
 10
239.418
 20
19.536
  0
VERTEX
  8
1
 10
239.300
 20
19.495
  0
VERTEX
  8
1
 10
239.179
 20
19.461
  0
VERTEX
  8
1
 10
239.056
 20
19.434
  0
VERTEX
  8
1
 10
238.932
 20
19.416
  0
VERTEX
  8
1
 10
238.807
 20
19.405
  0
VERTEX
  8
1
 10
238.681
 20
19.403
  0
VERTEX
  8
1
 10
238.556
 20
19.408
  0
VERTEX
  8
1
 10
238.431
 20
19.421
  0
VERTEX
  8
1
 10
238.353
 20
19.433
  0
VERTEX
  8
1
 10
217.932
 20
25.044
  0
VERTEX
  8
1
 10
197.547
 20
30.787
  0
VERTEX
  8
1
 10
187.934
 20
33.574
  0
VERTEX
  8
1
 10
178.324
 20
36.373
  0
VERTEX
  8
1
 10
168.704
 20
39.135
  0
VERTEX
  8
1
 10
159.061
 20
41.812
  0
VERTEX
  8
1
 10
145.139
 20
45.463
  0
VERTEX
  8
1
 10
131.179
 20
48.972
  0
VERTEX
  8
1
 10
130.679
 20
51.160
  0
VERTEX
  8
1
 10
129.238
 20
49.458
  0
VERTEX
  8
1
 10
115.268
 20
52.940
  0
VERTEX
  8
1
 10
101.265
 20
56.279
  0
VERTEX
  8
1
 10
87.049
 20
59.422
  0
VERTEX
  8
1
 10
87.461
 20
61.355
  0
VERTEX
  8
1
 10
85.505
 20
61.771
  0
VERTEX
  8
1
 10
85.094
 20
59.840
  0
VERTEX
  8
1
 10
84.590
 20
59.947
  0
VERTEX
  8
1
 10
84.033
 20
62.083
  0
VERTEX
  8
1
 10
82.659
 20
60.357
  0
VERTEX
  8
1
 10
82.142
 20
60.466
  0
VERTEX
  8
1
 10
81.584
 20
62.601
  0
VERTEX
  8
1
 10
80.211
 20
60.874
  0
VERTEX
  8
1
 10
79.693
 20
60.983
  0
VERTEX
  8
1
 10
79.134
 20
63.117
  0
VERTEX
  8
1
 10
77.762
 20
61.389
  0
VERTEX
  8
1
 10
62.124
 20
64.686
  0
VERTEX
  8
1
 10
41.437
 20
69.224
  0
VERTEX
  8
1
 10
20.780
 20
73.895
  0
SEQEND
  8
1
  0
ENDBLK
  0
BLOCK
  8
0
  2
1QQFOXINGQRF140
 70
    64
 10
0.000
 20
0.000
  0
TEXT
  8
127
 10
80.437
 20
108.321
 40
2.000
 50
-13.558
  1
1__FOXING_RF  14
  0
POLYLINE
  8
1
 66
     1
 10
20.783
 20
75.106
  0
VERTEX
  8
1
 10
20.783
 20
75.106
  0
VERTEX
  8
1
 10
20.665
 20
75.149
  0
VERTEX
  8
1
 10
20.550
 20
75.199
  0
VERTEX
  8
1
 10
20.438
 20
75.256
  0
VERTEX
  8
1
 10
20.330
 20
75.320
  0
VERTEX
  8
1
 10
20.226
 20
75.391
  0
VERTEX
  8
1
 10
20.127
 20
75.468
  0
VERTEX
  8
1
 10
20.032
 20
75.551
  0
VERTEX
  8
1
 10
19.944
 20
75.640
  0
VERTEX
  8
1
 10
19.861
 20
75.734
  0
VERTEX
  8
1
 10
19.784
 20
75.833
  0
VERTEX
  8
1
 10
19.713
 20
75.937
  0
VERTEX
  8
1
 10
19.649
 20
76.045
  0
VERTEX
  8
1
 10
19.592
 20
76.157
  0
VERTEX
  8
1
 10
19.543
 20
76.273
  0
VERTEX
  8
1
 10
19.500
 20
76.391
  0
VERTEX
  8
1
 10
19.465
 20
76.511
  0
VERTEX
  8
1
 10
19.438
 20
76.634
  0
VERTEX
  8
1
 10
19.418
 20
76.758
  0
VERTEX
  8
1
 10
19.406
 20
76.883
  0
VERTEX
  8
1
 10
19.403
 20
77.009
  0
VERTEX
  8
1
 10
19.407
 20
77.134
  0
VERTEX
  8
1
 10
19.418
 20
77.259
  0
VERTEX
  8
1
 10
19.438
 20
77.383
  0
VERTEX
  8
1
 10
19.466
 20
77.506
  0
VERTEX
  8
1
 10
19.501
 20
77.626
  0
VERTEX
  8
1
 10
19.543
 20
77.745
  0
VERTEX
  8
1
 10
19.593
 20
77.860
  0
VERTEX
  8
1
 10
19.650
 20
77.972
  0
VERTEX
  8
1
 10
19.714
 20
78.080
  0
VERTEX
  8
1
 10
19.757
 20
78.143
  0
VERTEX
  8
1
 10
24.143
 20
83.846
  0
VERTEX
  8
1
 10
28.771
 20
89.672
  0
VERTEX
  8
1
 10
32.058
 20
93.731
  0
VERTEX
  8
1
 10
35.401
 20
97.743
  0
VERTEX
  8
1
 10
38.836
 20
101.680
  0
VERTEX
  8
1
 10
42.399
 20
105.514
  0
VERTEX
  8
1
 10
44.096
 20
107.241
  0
VERTEX
  8
1
 10
45.831
 20
108.932
  0
VERTEX
  8
1
 10
47.607
 20
110.580
  0
VERTEX
  8
1
 10
49.425
 20
112.177
  0
VERTEX
  8
1
 10
51.290
 20
113.715
  0
VERTEX
  8
1
 10
53.203
 20
115.187
  0
VERTEX
  8
1
 10
55.167
 20
116.585
  0
VERTEX
  8
1
 10
57.184
 20
117.902
  0
VERTEX
  8
1
 10
59.618
 20
119.332
  0
VERTEX
  8
1
 10
62.121
 20
120.643
  0
VERTEX
  8
1
 10
64.687
 20
121.840
  0
VERTEX
  8
1
 10
67.307
 20
122.926
  0
VERTEX
  8
1
 10
69.974
 20
123.904
  0
VERTEX
  8
1
 10
72.681
 20
124.779
  0
VERTEX
  8
1
 10
75.419
 20
125.554
  0
VERTEX
  8
1
 10
78.182
 20
126.234
  0
VERTEX
  8
1
 10
81.272
 20
126.881
  0
VERTEX
  8
1
 10
84.380
 20
127.417
  0
VERTEX
  8
1
 10
87.500
 20
127.845
  0
VERTEX
  8
1
 10
90.631
 20
128.166
  0
VERTEX
  8
1
 10
93.769
 20
128.384
  0
VERTEX
  8
1
 10
96.911
 20
128.500
  0
VERTEX
  8
1
 10
100.053
 20
128.517
  0
VERTEX
  8
1
 10
103.191
 20
128.437
  0
VERTEX
  8
1
 10
106.730
 20
128.235
  0
VERTEX
  8
1
 10
110.261
 20
127.925
  0
VERTEX
  8
1
 10
113.784
 20
127.519
  0
VERTEX
  8
1
 10
117.299
 20
127.028
  0
VERTEX
  8
1
 10
120.807
 20
126.466
  0
VERTEX
  8
1
 10
124.306
 20
125.844
  0
VERTEX
  8
1
 10
127.798
 20
125.174
  0
VERTEX
  8
1
 10
131.283
 20
124.468
  0
VERTEX
  8
1
 10
140.332
 20
122.518
  0
VERTEX
  8
1
 10
149.343
 20
120.440
  0
VERTEX
  8
1
 10
149.850
 20
118.270
  0
VERTEX
  8
1
 10
151.266
 20
119.959
  0
VERTEX
  8
1
 10
160.199
 20
117.549
  0
VERTEX
  8
1
 10
169.106
 20
115.007
  0
VERTEX
  8
1
 10
172.512
 20
113.989
  0
VERTEX
  8
1
 10
175.908
 20
112.936
  0
VERTEX
  8
1
 10
179.289
 20
111.837
  0
VERTEX
  8
1
 10
182.648
 20
110.682
  0
VERTEX
  8
1
 10
185.979
 20
109.460
  0
VERTEX
  8
1
 10
189.279
 20
108.159
  0
VERTEX
  8
1
 10
192.540
 20
106.770
  0
VERTEX
  8
1
 10
195.758
 20
105.282
  0
VERTEX
  8
1
 10
198.564
 20
103.875
  0
VERTEX
  8
1
 10
201.328
 20
102.380
  0
VERTEX
  8
1
 10
204.044
 20
100.799
  0
VERTEX
  8
1
 10
206.710
 20
99.130
  0
VERTEX
  8
1
 10
209.321
 20
97.372
  0
VERTEX
  8
1
 10
211.873
 20
95.525
  0
VERTEX
  8
1
 10
214.362
 20
93.589
  0
VERTEX
  8
1
 10
216.784
 20
91.563
  0
VERTEX
  8
1
 10
218.901
 20
89.663
  0
VERTEX
  8
1
 10
220.952
 20
87.690
  0
VERTEX
  8
1
 10
222.928
 20
85.643
  0
VERTEX
  8
1
 10
224.820
 20
83.524
  0
VERTEX
  8
1
 10
226.621
 20
81.333
  0
VERTEX
  8
1
 10
228.321
 20
79.069
  0
VERTEX
  8
1
 10
229.912
 20
76.734
  0
VERTEX
  8
1
 10
231.385
 20
74.326
  0
VERTEX
  8
1
 10
232.546
 20
72.215
  0
VERTEX
  8
1
 10
233.620
 20
70.057
  0
VERTEX
  8
1
 10
234.615
 20
67.857
  0
VERTEX
  8
1
 10
235.535
 20
65.622
  0
VERTEX
  8
1
 10
236.387
 20
63.357
  0
VERTEX
  8
1
 10
237.178
 20
61.067
  0
VERTEX
  8
1
 10
237.913
 20
58.759
  0
VERTEX
  8
1
 10
238.597
 20
56.436
  0
VERTEX
  8
1
 10
239.935
 20
51.376
  0
VERTEX
  8
1
 10
241.112
 20
46.285
  0
VERTEX
  8
1
 10
242.172
 20
41.172
  0
VERTEX
  8
1
 10
243.161
 20
36.044
  0
VERTEX
  8
1
 10
244.501
 20
28.724
  0
VERTEX
  8
1
 10
245.687
 20
21.632
  0
VERTEX
  8
1
 10
245.695
 20
21.507
  0
VERTEX
  8
1
 10
245.698
 20
21.382
  0
VERTEX
  8
1
 10
245.693
 20
21.256
  0
VERTEX
  8
1
 10
245.680
 20
21.131
  0
VERTEX
  8
1
 10
245.659
 20
21.007
  0
VERTEX
  8
1
 10
245.630
 20
20.885
  0
VERTEX
  8
1
 10
245.594
 20
20.765
  0
VERTEX
  8
1
 10
245.550
 20
20.647
  0
VERTEX
  8
1
 10
245.499
 20
20.533
  0
VERTEX
  8
1
 10
245.441
 20
20.421
  0
VERTEX
  8
1
 10
245.376
 20
20.314
  0
VERTEX
  8
1
 10
245.305
 20
20.211
  0
VERTEX
  8
1
 10
245.227
 20
20.112
  0
VERTEX
  8
1
 10
245.143
 20
20.019
  0
VERTEX
  8
1
 10
245.053
 20
19.931
  0
VERTEX
  8
1
 10
244.958
 20
19.849
  0
VERTEX
  8
1
 10
244.858
 20
19.773
  0
VERTEX
  8
1
 10
244.754
 20
19.703
  0
VERTEX
  8
1
 10
244.645
 20
19.640
  0
VERTEX
  8
1
 10
244.533
 20
19.585
  0
VERTEX
  8
1
 10
244.417
 20
19.536
  0
VERTEX
  8
1
 10
244.299
 20
19.494
  0
VERTEX
  8
1
 10
244.178
 20
19.461
  0
VERTEX
  8
1
 10
244.055
 20
19.434
  0
VERTEX
  8
1
 10
243.931
 20
19.416
  0
VERTEX
  8
1
 10
243.806
 20
19.405
  0
VERTEX
  8
1
 10
243.680
 20
19.403
  0
VERTEX
  8
1
 10
243.555
 20
19.408
  0
VERTEX
  8
1
 10
243.430
 20
19.421
  0
VERTEX
  8
1
 10
243.350
 20
19.433
  0
VERTEX
  8
1
 10
222.518
 20
25.147
  0
VERTEX
  8
1
 10
201.722
 20
30.995
  0
VERTEX
  8
1
 10
191.869
 20
33.847
  0
VERTEX
  8
1
 10
182.019
 20
36.710
  0
VERTEX
  8
1
 10
172.159
 20
39.536
  0
VERTEX
  8
1
 10
162.275
 20
42.277
  0
VERTEX
  8
1
 10
148.001
 20
46.019
  0
VERTEX
  8
1
 10
133.689
 20
49.617
  0
VERTEX
  8
1
 10
133.188
 20
51.805
  0
VERTEX
  8
1
 10
131.747
 20
50.103
  0
VERTEX
  8
1
 10
117.423
 20
53.668
  0
VERTEX
  8
1
 10
103.065
 20
57.088
  0
VERTEX
  8
1
 10
88.570
 20
60.293
  0
VERTEX
  8
1
 10
88.982
 20
62.226
  0
VERTEX
  8
1
 10
87.026
 20
62.642
  0
VERTEX
  8
1
 10
86.614
 20
60.711
  0
VERTEX
  8
1
 10
86.109
 20
60.819
  0
VERTEX
  8
1
 10
85.552
 20
62.955
  0
VERTEX
  8
1
 10
84.178
 20
61.229
  0
VERTEX
  8
1
 10
83.658
 20
61.339
  0
VERTEX
  8
1
 10
83.101
 20
63.473
  0
VERTEX
  8
1
 10
81.728
 20
61.747
  0
VERTEX
  8
1
 10
81.208
 20
61.856
  0
VERTEX
  8
1
 10
80.649
 20
63.990
  0
VERTEX
  8
1
 10
79.277
 20
62.263
  0
VERTEX
  8
1
 10
78.757
 20
62.372
  0
VERTEX
  8
1
 10
78.199
 20
64.507
  0
VERTEX
  8
1
 10
76.826
 20
62.778
  0
VERTEX
  8
1
 10
62.952
 20
65.707
  0
VERTEX
  8
1
 10
41.853
 20
70.339
  0
VERTEX
  8
1
 10
20.783
 20
75.106
  0
SEQEND
  8
1
  0
ENDBLK
  0
BLOCK
  8
0
  2
1QQFOXINGQRF150
 70
    64
 10
0.000
 20
0.000
  0
TEXT
  8
127
 10
81.785
 20
109.806
 40
2.000
 50
-13.558
  1
1__FOXING_RF  15
  0
POLYLINE
  8
1
 66
     1
 10
20.786
 20
76.317
  0
VERTEX
  8
1
 10
20.786
 20
76.317
  0
VERTEX
  8
1
 10
20.667
 20
76.359
  0
VERTEX
  8
1
 10
20.552
 20
76.409
  0
VERTEX
  8
1
 10
20.440
 20
76.466
  0
VERTEX
  8
1
 10
20.332
 20
76.530
  0
VERTEX
  8
1
 10
20.228
 20
76.600
  0
VERTEX
  8
1
 10
20.129
 20
76.677
  0
VERTEX
  8
1
 10
20.034
 20
76.760
  0
VERTEX
  8
1
 10
19.946
 20
76.849
  0
VERTEX
  8
1
 10
19.862
 20
76.943
  0
VERTEX
  8
1
 10
19.785
 20
77.042
  0
VERTEX
  8
1
 10
19.715
 20
77.146
  0
VERTEX
  8
1
 10
19.651
 20
77.254
  0
VERTEX
  8
1
 10
19.594
 20
77.366
  0
VERTEX
  8
1
 10
19.544
 20
77.481
  0
VERTEX
  8
1
 10
19.501
 20
77.599
  0
VERTEX
  8
1
 10
19.466
 20
77.720
  0
VERTEX
  8
1
 10
19.438
 20
77.842
  0
VERTEX
  8
1
 10
19.419
 20
77.966
  0
VERTEX
  8
1
 10
19.407
 20
78.091
  0
VERTEX
  8
1
 10
19.403
 20
78.217
  0
VERTEX
  8
1
 10
19.406
 20
78.342
  0
VERTEX
  8
1
 10
19.418
 20
78.468
  0
VERTEX
  8
1
 10
19.438
 20
78.592
  0
VERTEX
  8
1
 10
19.465
 20
78.714
  0
VERTEX
  8
1
 10
19.500
 20
78.835
  0
VERTEX
  8
1
 10
19.542
 20
78.953
  0
VERTEX
  8
1
 10
19.592
 20
79.068
  0
VERTEX
  8
1
 10
19.649
 20
79.180
  0
VERTEX
  8
1
 10
19.713
 20
79.288
  0
VERTEX
  8
1
 10
19.753
 20
79.350
  0
VERTEX
  8
1
 10
24.337
 20
85.345
  0
VERTEX
  8
1
 10
29.035
 20
91.293
  0
VERTEX
  8
1
 10
32.373
 20
95.434
  0
VERTEX
  8
1
 10
35.770
 20
99.526
  0
VERTEX
  8
1
 10
39.263
 20
103.540
  0
VERTEX
  8
1
 10
42.889
 20
107.447
  0
VERTEX
  8
1
 10
44.618
 20
109.206
  0
VERTEX
  8
1
 10
46.385
 20
110.928
  0
VERTEX
  8
1
 10
48.194
 20
112.606
  0
VERTEX
  8
1
 10
50.047
 20
114.231
  0
VERTEX
  8
1
 10
51.947
 20
115.797
  0
VERTEX
  8
1
 10
53.897
 20
117.294
  0
VERTEX
  8
1
 10
55.898
 20
118.716
  0
VERTEX
  8
1
 10
57.955
 20
120.054
  0
VERTEX
  8
1
 10
60.438
 20
121.508
  0
VERTEX
  8
1
 10
62.993
 20
122.840
  0
VERTEX
  8
1
 10
65.611
 20
124.055
  0
VERTEX
  8
1
 10
68.285
 20
125.156
  0
VERTEX
  8
1
 10
71.007
 20
126.147
  0
VERTEX
  8
1
 10
73.768
 20
127.031
  0
VERTEX
  8
1
 10
76.562
 20
127.814
  0
VERTEX
  8
1
 10
79.381
 20
128.499
  0
VERTEX
  8
1
 10
82.538
 20
129.149
  0
VERTEX
  8
1
 10
85.713
 20
129.686
  0
VERTEX
  8
1
 10
88.901
 20
130.112
  0
VERTEX
  8
1
 10
92.099
 20
130.429
  0
VERTEX
  8
1
 10
95.304
 20
130.640
  0
VERTEX
  8
1
 10
98.513
 20
130.748
  0
VERTEX
  8
1
 10
101.721
 20
130.755
  0
VERTEX
  8
1
 10
104.926
 20
130.665
  0
VERTEX
  8
1
 10
108.548
 20
130.450
  0
VERTEX
  8
1
 10
112.162
 20
130.125
  0
VERTEX
  8
1
 10
115.768
 20
129.703
  0
VERTEX
  8
1
 10
119.366
 20
129.196
  0
VERTEX
  8
1
 10
122.955
 20
128.617
  0
VERTEX
  8
1
 10
126.537
 20
127.977
  0
VERTEX
  8
1
 10
130.111
 20
127.290
  0
VERTEX
  8
1
 10
133.677
 20
126.567
  0
VERTEX
  8
1
 10
142.948
 20
124.572
  0
VERTEX
  8
1
 10
152.181
 20
122.452
  0
VERTEX
  8
1
 10
152.691
 20
120.282
  0
VERTEX
  8
1
 10
154.103
 20
121.971
  0
VERTEX
  8
1
 10
163.253
 20
119.497
  0
VERTEX
  8
1
 10
172.377
 20
116.893
  0
VERTEX
  8
1
 10
175.865
 20
115.852
  0
VERTEX
  8
1
 10
179.342
 20
114.777
  0
VERTEX
  8
1
 10
182.803
 20
113.656
  0
VERTEX
  8
1
 10
186.243
 20
112.478
  0
VERTEX
  8
1
 10
189.656
 20
111.233
  0
VERTEX
  8
1
 10
193.036
 20
109.909
  0
VERTEX
  8
1
 10
196.378
 20
108.495
  0
VERTEX
  8
1
 10
199.676
 20
106.980
  0
VERTEX
  8
1
 10
202.546
 20
105.552
  0
VERTEX
  8
1
 10
205.374
 20
104.035
  0
VERTEX
  8
1
 10
208.154
 20
102.430
  0
VERTEX
  8
1
 10
210.883
 20
100.736
  0
VERTEX
  8
1
 10
213.555
 20
98.951
  0
VERTEX
  8
1
 10
216.168
 20
97.076
  0
VERTEX
  8
1
 10
218.717
 20
95.108
  0
VERTEX
  8
1
 10
221.197
 20
93.048
  0
VERTEX
  8
1
 10
223.361
 20
91.118
  0
VERTEX
  8
1
 10
225.458
 20
89.113
  0
VERTEX
  8
1
 10
227.479
 20
87.032
  0
VERTEX
  8
1
 10
229.414
 20
84.877
  0
VERTEX
  8
1
 10
231.256
 20
82.648
  0
VERTEX
  8
1
 10
232.994
 20
80.344
  0
VERTEX
  8
1
 10
234.621
 20
77.967
  0
VERTEX
  8
1
 10
236.128
 20
75.515
  0
VERTEX
  8
1
 10
237.314
 20
73.367
  0
VERTEX
  8
1
 10
238.411
 20
71.170
  0
VERTEX
  8
1
 10
239.427
 20
68.932
  0
VERTEX
  8
1
 10
240.367
 20
66.656
  0
VERTEX
  8
1
 10
241.237
 20
64.350
  0
VERTEX
  8
1
 10
242.044
 20
62.019
  0
VERTEX
  8
1
 10
242.793
 20
59.667
  0
VERTEX
  8
1
 10
243.490
 20
57.302
  0
VERTEX
  8
1
 10
244.851
 20
52.148
  0
VERTEX
  8
1
 10
246.044
 20
46.963
  0
VERTEX
  8
1
 10
247.117
 20
41.754
  0
VERTEX
  8
1
 10
248.114
 20
36.529
  0
VERTEX
  8
1
 10
249.460
 20
29.070
  0
VERTEX
  8
1
 10
250.685
 20
21.626
  0
VERTEX
  8
1
 10
250.693
 20
21.501
  0
VERTEX
  8
1
 10
250.695
 20
21.375
  0
VERTEX
  8
1
 10
250.689
 20
21.250
  0
VERTEX
  8
1
 10
250.676
 20
21.125
  0
VERTEX
  8
1
 10
250.655
 20
21.001
  0
VERTEX
  8
1
 10
250.626
 20
20.879
  0
VERTEX
  8
1
 10
250.589
 20
20.759
  0
VERTEX
  8
1
 10
250.545
 20
20.642
  0
VERTEX
  8
1
 10
250.494
 20
20.527
  0
VERTEX
  8
1
 10
250.436
 20
20.416
  0
VERTEX
  8
1
 10
250.370
 20
20.309
  0
VERTEX
  8
1
 10
250.298
 20
20.206
  0
VERTEX
  8
1
 10
250.220
 20
20.108
  0
VERTEX
  8
1
 10
250.136
 20
20.014
  0
VERTEX
  8
1
 10
250.046
 20
19.927
  0
VERTEX
  8
1
 10
249.951
 20
19.845
  0
VERTEX
  8
1
 10
249.851
 20
19.769
  0
VERTEX
  8
1
 10
249.746
 20
19.700
  0
VERTEX
  8
1
 10
249.637
 20
19.637
  0
VERTEX
  8
1
 10
249.525
 20
19.582
  0
VERTEX
  8
1
 10
249.409
 20
19.534
  0
VERTEX
  8
1
 10
249.290
 20
19.493
  0
VERTEX
  8
1
 10
249.169
 20
19.459
  0
VERTEX
  8
1
 10
249.046
 20
19.433
  0
VERTEX
  8
1
 10
248.922
 20
19.415
  0
VERTEX
  8
1
 10
248.797
 20
19.405
  0
VERTEX
  8
1
 10
248.671
 20
19.403
  0
VERTEX
  8
1
 10
248.546
 20
19.408
  0
VERTEX
  8
1
 10
248.421
 20
19.421
  0
VERTEX
  8
1
 10
248.346
 20
19.433
  0
VERTEX
  8
1
 10
227.103
 20
25.250
  0
VERTEX
  8
1
 10
205.897
 20
31.202
  0
VERTEX
  8
1
 10
195.803
 20
34.118
  0
VERTEX
  8
1
 10
185.713
 20
37.046
  0
VERTEX
  8
1
 10
175.612
 20
39.937
  0
VERTEX
  8
1
 10
165.489
 20
42.742
  0
VERTEX
  8
1
 10
150.863
 20
46.574
  0
VERTEX
  8
1
 10
136.197
 20
50.261
  0
VERTEX
  8
1
 10
135.697
 20
52.449
  0
VERTEX
  8
1
 10
134.255
 20
50.746
  0
VERTEX
  8
1
 10
119.577
 20
54.395
  0
VERTEX
  8
1
 10
104.865
 20
57.896
  0
VERTEX
  8
1
 10
90.094
 20
61.162
  0
VERTEX
  8
1
 10
90.506
 20
63.095
  0
VERTEX
  8
1
 10
88.550
 20
63.512
  0
VERTEX
  8
1
 10
88.139
 20
61.580
  0
VERTEX
  8
1
 10
87.646
 20
61.685
  0
VERTEX
  8
1
 10
87.848
 20
62.638
  0
VERTEX
  8
1
 10
87.859
 20
62.700
  0
VERTEX
  8
1
 10
87.867
 20
62.763
  0
VERTEX
  8
1
 10
87.870
 20
62.825
  0
VERTEX
  8
1
 10
87.869
 20
62.888
  0
VERTEX
  8
1
 10
87.865
 20
62.951
  0
VERTEX
  8
1
 10
87.856
 20
63.013
  0
VERTEX
  8
1
 10
87.844
 20
63.075
  0
VERTEX
  8
1
 10
87.827
 20
63.135
  0
VERTEX
  8
1
 10
87.807
 20
63.195
  0
VERTEX
  8
1
 10
87.783
 20
63.253
  0
VERTEX
  8
1
 10
87.756
 20
63.310
  0
VERTEX
  8
1
 10
87.725
 20
63.364
  0
VERTEX
  8
1
 10
87.691
 20
63.417
  0
VERTEX
  8
1
 10
87.653
 20
63.467
  0
VERTEX
  8
1
 10
87.613
 20
63.515
  0
VERTEX
  8
1
 10
87.569
 20
63.561
  0
VERTEX
  8
1
 10
87.523
 20
63.603
  0
VERTEX
  8
1
 10
87.474
 20
63.643
  0
VERTEX
  8
1
 10
87.423
 20
63.679
  0
VERTEX
  8
1
 10
87.370
 20
63.712
  0
VERTEX
  8
1
 10
87.314
 20
63.742
  0
VERTEX
  8
1
 10
87.257
 20
63.768
  0
VERTEX
  8
1
 10
87.198
 20
63.790
  0
VERTEX
  8
1
 10
87.138
 20
63.809
  0
VERTEX
  8
1
 10
87.077
 20
63.824
  0
VERTEX
  8
1
 10
87.016
 20
63.835
  0
VERTEX
  8
1
 10
86.953
 20
63.842
  0
VERTEX
  8
1
 10
86.891
 20
63.846
  0
VERTEX
  8
1
 10
86.828
 20
63.845
  0
VERTEX
  8
1
 10
86.765
 20
63.840
  0
VERTEX
  8
1
 10
86.703
 20
63.832
  0
VERTEX
  8
1
 10
86.641
 20
63.819
  0
VERTEX
  8
1
 10
86.581
 20
63.803
  0
VERTEX
  8
1
 10
86.521
 20
63.783
  0
VERTEX
  8
1
 10
86.463
 20
63.759
  0
VERTEX
  8
1
 10
86.406
 20
63.732
  0
VERTEX
  8
1
 10
86.352
 20
63.701
  0
VERTEX
  8
1
 10
86.299
 20
63.667
  0
VERTEX
  8
1
 10
86.249
 20
63.629
  0
VERTEX
  8
1
 10
86.201
 20
63.589
  0
VERTEX
  8
1
 10
86.155
 20
63.545
  0
VERTEX
  8
1
 10
86.113
 20
63.499
  0
VERTEX
  8
1
 10
86.073
 20
63.450
  0
VERTEX
  8
1
 10
86.037
 20
63.399
  0
VERTEX
  8
1
 10
86.004
 20
63.345
  0
VERTEX
  8
1
 10
85.974
 20
63.290
  0
VERTEX
  8
1
 10
85.948
 20
63.233
  0
VERTEX
  8
1
 10
85.926
 20
63.174
  0
VERTEX
  8
1
 10
85.907
 20
63.114
  0
VERTEX
  8
1
 10
85.892
 20
63.053
  0
VERTEX
  8
1
 10
85.690
 20
62.101
  0
VERTEX
  8
1
 10
63.780
 20
66.728
  0
VERTEX
  8
1
 10
42.267
 20
71.454
  0
VERTEX
  8
1
 10
20.786
 20
76.317
  0
SEQEND
  8
1
  0
ENDBLK
  0
BLOCK
  8
0
  2
1QQFOXINGQRF160
 70
    64
 10
0.000
 20
0.000
  0
TEXT
  8
127
 10
83.131
 20
111.292
 40
2.000
 50
-13.558
  1
1__FOXING_RF  16
  0
POLYLINE
  8
1
 66
     1
 10
20.788
 20
77.526
  0
VERTEX
  8
1
 10
20.788
 20
77.526
  0
VERTEX
  8
1
 10
20.670
 20
77.569
  0
VERTEX
  8
1
 10
20.554
 20
77.618
  0
VERTEX
  8
1
 10
20.442
 20
77.675
  0
VERTEX
  8
1
 10
20.334
 20
77.739
  0
VERTEX
  8
1
 10
20.230
 20
77.809
  0
VERTEX
  8
1
 10
20.131
 20
77.886
  0
VERTEX
  8
1
 10
20.036
 20
77.969
  0
VERTEX
  8
1
 10
19.947
 20
78.058
  0
VERTEX
  8
1
 10
19.864
 20
78.152
  0
VERTEX
  8
1
 10
19.787
 20
78.251
  0
VERTEX
  8
1
 10
19.716
 20
78.354
  0
VERTEX
  8
1
 10
19.652
 20
78.462
  0
VERTEX
  8
1
 10
19.595
 20
78.574
  0
VERTEX
  8
1
 10
19.545
 20
78.689
  0
VERTEX
  8
1
 10
19.502
 20
78.807
  0
VERTEX
  8
1
 10
19.466
 20
78.928
  0
VERTEX
  8
1
 10
19.439
 20
79.050
  0
VERTEX
  8
1
 10
19.419
 20
79.174
  0
VERTEX
  8
1
 10
19.407
 20
79.299
  0
VERTEX
  8
1
 10
19.403
 20
79.425
  0
VERTEX
  8
1
 10
19.406
 20
79.551
  0
VERTEX
  8
1
 10
19.418
 20
79.676
  0
VERTEX
  8
1
 10
19.437
 20
79.800
  0
VERTEX
  8
1
 10
19.464
 20
79.922
  0
VERTEX
  8
1
 10
19.499
 20
80.043
  0
VERTEX
  8
1
 10
19.541
 20
80.161
  0
VERTEX
  8
1
 10
19.591
 20
80.277
  0
VERTEX
  8
1
 10
19.648
 20
80.389
  0
VERTEX
  8
1
 10
19.712
 20
80.497
  0
VERTEX
  8
1
 10
19.750
 20
80.556
  0
VERTEX
  8
1
 10
24.530
 20
86.844
  0
VERTEX
  8
1
 10
29.298
 20
92.914
  0
VERTEX
  8
1
 10
32.687
 20
97.137
  0
VERTEX
  8
1
 10
36.138
 20
101.309
  0
VERTEX
  8
1
 10
39.689
 20
105.399
  0
VERTEX
  8
1
 10
43.378
 20
109.380
  0
VERTEX
  8
1
 10
45.138
 20
111.171
  0
VERTEX
  8
1
 10
46.937
 20
112.924
  0
VERTEX
  8
1
 10
48.779
 20
114.632
  0
VERTEX
  8
1
 10
50.667
 20
116.286
  0
VERTEX
  8
1
 10
52.602
 20
117.878
  0
VERTEX
  8
1
 10
54.589
 20
119.401
  0
VERTEX
  8
1
 10
56.628
 20
120.846
  0
VERTEX
  8
1
 10
58.724
 20
122.205
  0
VERTEX
  8
1
 10
61.257
 20
123.683
  0
VERTEX
  8
1
 10
63.863
 20
125.037
  0
VERTEX
  8
1
 10
66.533
 20
126.270
  0
VERTEX
  8
1
 10
69.261
 20
127.386
  0
VERTEX
  8
1
 10
72.037
 20
128.389
  0
VERTEX
  8
1
 10
74.854
 20
129.284
  0
VERTEX
  8
1
 10
77.703
 20
130.074
  0
VERTEX
  8
1
 10
80.577
 20
130.763
  0
VERTEX
  8
1
 10
83.802
 20
131.418
  0
VERTEX
  8
1
 10
87.044
 20
131.955
  0
VERTEX
  8
1
 10
90.300
 20
132.379
  0
VERTEX
  8
1
 10
93.565
 20
132.691
  0
VERTEX
  8
1
 10
96.837
 20
132.896
  0
VERTEX
  8
1
 10
100.112
 20
132.996
  0
VERTEX
  8
1
 10
103.387
 20
132.994
  0
VERTEX
  8
1
 10
106.658
 20
132.893
  0
VERTEX
  8
1
 10
110.365
 20
132.665
  0
VERTEX
  8
1
 10
114.062
 20
132.325
  0
VERTEX
  8
1
 10
117.750
 20
131.887
  0
VERTEX
  8
1
 10
121.430
 20
131.364
  0
VERTEX
  8
1
 10
125.101
 20
130.767
  0
VERTEX
  8
1
 10
128.765
 20
130.110
  0
VERTEX
  8
1
 10
132.421
 20
129.406
  0
VERTEX
  8
1
 10
136.070
 20
128.665
  0
VERTEX
  8
1
 10
145.563
 20
126.626
  0
VERTEX
  8
1
 10
155.017
 20
124.463
  0
VERTEX
  8
1
 10
155.530
 20
122.294
  0
VERTEX
  8
1
 10
156.939
 20
123.983
  0
VERTEX
  8
1
 10
166.306
 20
121.444
  0
VERTEX
  8
1
 10
175.649
 20
118.778
  0
VERTEX
  8
1
 10
179.217
 20
117.715
  0
VERTEX
  8
1
 10
182.775
 20
116.618
  0
VERTEX
  8
1
 10
186.318
 20
115.475
  0
VERTEX
  8
1
 10
189.838
 20
114.275
  0
VERTEX
  8
1
 10
193.332
 20
113.006
  0
VERTEX
  8
1
 10
196.793
 20
111.658
  0
VERTEX
  8
1
 10
200.215
 20
110.219
  0
VERTEX
  8
1
 10
203.594
 20
108.678
  0
VERTEX
  8
1
 10
206.528
 20
107.228
  0
VERTEX
  8
1
 10
209.419
 20
105.690
  0
VERTEX
  8
1
 10
212.262
 20
104.061
  0
VERTEX
  8
1
 10
215.054
 20
102.342
  0
VERTEX
  8
1
 10
217.789
 20
100.530
  0
VERTEX
  8
1
 10
220.462
 20
98.626
  0
VERTEX
  8
1
 10
223.071
 20
96.627
  0
VERTEX
  8
1
 10
225.609
 20
94.532
  0
VERTEX
  8
1
 10
227.821
 20
92.572
  0
VERTEX
  8
1
 10
229.964
 20
90.535
  0
VERTEX
  8
1
 10
232.030
 20
88.421
  0
VERTEX
  8
1
 10
234.008
 20
86.230
  0
VERTEX
  8
1
 10
235.890
 20
83.962
  0
VERTEX
  8
1
 10
237.667
 20
81.619
  0
VERTEX
  8
1
 10
239.330
 20
79.199
  0
VERTEX
  8
1
 10
240.870
 20
76.703
  0
VERTEX
  8
1
 10
242.080
 20
74.518
  0
VERTEX
  8
1
 10
243.201
 20
72.283
  0
VERTEX
  8
1
 10
244.238
 20
70.005
  0
VERTEX
  8
1
 10
245.197
 20
67.690
  0
VERTEX
  8
1
 10
246.085
 20
65.342
  0
VERTEX
  8
1
 10
246.908
 20
62.969
  0
VERTEX
  8
1
 10
247.671
 20
60.575
  0
VERTEX
  8
1
 10
248.382
 20
58.167
  0
VERTEX
  8
1
 10
249.765
 20
52.920
  0
VERTEX
  8
1
 10
250.976
 20
47.640
  0
VERTEX
  8
1
 10
252.060
 20
42.335
  0
VERTEX
  8
1
 10
253.065
 20
37.015
  0
VERTEX
  8
1
 10
254.418
 20
29.415
  0
VERTEX
  8
1
 10
255.681
 20
21.617
  0
VERTEX
  8
1
 10
255.688
 20
21.492
  0
VERTEX
  8
1
 10
255.690
 20
21.367
  0
VERTEX
  8
1
 10
255.683
 20
21.241
  0
VERTEX
  8
1
 10
255.669
 20
21.116
  0
VERTEX
  8
1
 10
255.648
 20
20.993
  0
VERTEX
  8
1
 10
255.618
 20
20.871
  0
VERTEX
  8
1
 10
255.581
 20
20.751
  0
VERTEX
  8
1
 10
255.537
 20
20.633
  0
VERTEX
  8
1
 10
255.485
 20
20.519
  0
VERTEX
  8
1
 10
255.426
 20
20.408
  0
VERTEX
  8
1
 10
255.360
 20
20.301
  0
VERTEX
  8
1
 10
255.288
 20
20.199
  0
VERTEX
  8
1
 10
255.209
 20
20.101
  0
VERTEX
  8
1
 10
255.125
 20
20.008
  0
VERTEX
  8
1
 10
255.034
 20
19.921
  0
VERTEX
  8
1
 10
254.939
 20
19.839
  0
VERTEX
  8
1
 10
254.838
 20
19.764
  0
VERTEX
  8
1
 10
254.733
 20
19.695
  0
VERTEX
  8
1
 10
254.624
 20
19.633
  0
VERTEX
  8
1
 10
254.511
 20
19.578
  0
VERTEX
  8
1
 10
254.395
 20
19.530
  0
VERTEX
  8
1
 10
254.277
 20
19.490
  0
VERTEX
  8
1
 10
254.155
 20
19.457
  0
VERTEX
  8
1
 10
254.032
 20
19.432
  0
VERTEX
  8
1
 10
253.908
 20
19.414
  0
VERTEX
  8
1
 10
253.783
 20
19.404
  0
VERTEX
  8
1
 10
253.657
 20
19.403
  0
VERTEX
  8
1
 10
253.532
 20
19.409
  0
VERTEX
  8
1
 10
253.407
 20
19.423
  0
VERTEX
  8
1
 10
253.339
 20
19.434
  0
VERTEX
  8
1
 10
231.686
 20
25.353
  0
VERTEX
  8
1
 10
210.070
 20
31.409
  0
VERTEX
  8
1
 10
199.736
 20
34.389
  0
VERTEX
  8
1
 10
189.406
 20
37.382
  0
VERTEX
  8
1
 10
179.065
 20
40.338
  0
VERTEX
  8
1
 10
168.701
 20
43.207
  0
VERTEX
  8
1
 10
153.722
 20
47.130
  0
VERTEX
  8
1
 10
138.703
 20
50.905
  0
VERTEX
  8
1
 10
138.204
 20
53.091
  0
VERTEX
  8
1
 10
136.763
 20
51.390
  0
VERTEX
  8
1
 10
121.730
 20
55.122
  0
VERTEX
  8
1
 10
106.662
 20
58.705
  0
VERTEX
  8
1
 10
91.611
 20
62.032
  0
VERTEX
  8
1
 10
92.024
 20
63.965
  0
VERTEX
  8
1
 10
90.068
 20
64.382
  0
VERTEX
  8
1
 10
89.656
 20
62.451
  0
VERTEX
  8
1
 10
89.167
 20
62.555
  0
VERTEX
  8
1
 10
89.369
 20
63.508
  0
VERTEX
  8
1
 10
89.381
 20
63.570
  0
VERTEX
  8
1
 10
89.388
 20
63.632
  0
VERTEX
  8
1
 10
89.391
 20
63.695
  0
VERTEX
  8
1
 10
89.390
 20
63.758
  0
VERTEX
  8
1
 10
89.386
 20
63.821
  0
VERTEX
  8
1
 10
89.377
 20
63.883
  0
VERTEX
  8
1
 10
89.365
 20
63.944
  0
VERTEX
  8
1
 10
89.348
 20
64.005
  0
VERTEX
  8
1
 10
89.328
 20
64.065
  0
VERTEX
  8
1
 10
89.305
 20
64.123
  0
VERTEX
  8
1
 10
89.277
 20
64.179
  0
VERTEX
  8
1
 10
89.246
 20
64.234
  0
VERTEX
  8
1
 10
89.212
 20
64.287
  0
VERTEX
  8
1
 10
89.175
 20
64.337
  0
VERTEX
  8
1
 10
89.134
 20
64.385
  0
VERTEX
  8
1
 10
89.091
 20
64.430
  0
VERTEX
  8
1
 10
89.044
 20
64.473
  0
VERTEX
  8
1
 10
88.996
 20
64.512
  0
VERTEX
  8
1
 10
88.944
 20
64.549
  0
VERTEX
  8
1
 10
88.891
 20
64.582
  0
VERTEX
  8
1
 10
88.836
 20
64.612
  0
VERTEX
  8
1
 10
88.778
 20
64.638
  0
VERTEX
  8
1
 10
88.720
 20
64.660
  0
VERTEX
  8
1
 10
88.660
 20
64.679
  0
VERTEX
  8
1
 10
88.599
 20
64.694
  0
VERTEX
  8
1
 10
88.537
 20
64.705
  0
VERTEX
  8
1
 10
88.475
 20
64.712
  0
VERTEX
  8
1
 10
88.412
 20
64.715
  0
VERTEX
  8
1
 10
88.349
 20
64.715
  0
VERTEX
  8
1
 10
88.286
 20
64.710
  0
VERTEX
  8
1
 10
88.224
 20
64.702
  0
VERTEX
  8
1
 10
88.163
 20
64.689
  0
VERTEX
  8
1
 10
88.102
 20
64.673
  0
VERTEX
  8
1
 10
88.042
 20
64.653
  0
VERTEX
  8
1
 10
87.984
 20
64.629
  0
VERTEX
  8
1
 10
87.928
 20
64.602
  0
VERTEX
  8
1
 10
87.873
 20
64.571
  0
VERTEX
  8
1
 10
87.820
 20
64.537
  0
VERTEX
  8
1
 10
87.770
 20
64.499
  0
VERTEX
  8
1
 10
87.722
 20
64.459
  0
VERTEX
  8
1
 10
87.677
 20
64.415
  0
VERTEX
  8
1
 10
87.634
 20
64.369
  0
VERTEX
  8
1
 10
87.595
 20
64.320
  0
VERTEX
  8
1
 10
87.558
 20
64.269
  0
VERTEX
  8
1
 10
87.525
 20
64.215
  0
VERTEX
  8
1
 10
87.495
 20
64.160
  0
VERTEX
  8
1
 10
87.469
 20
64.103
  0
VERTEX
  8
1
 10
87.447
 20
64.044
  0
VERTEX
  8
1
 10
87.428
 20
63.984
  0
VERTEX
  8
1
 10
87.413
 20
63.923
  0
VERTEX
  8
1
 10
87.211
 20
62.971
  0
VERTEX
  8
1
 10
86.709
 20
63.077
  0
VERTEX
  8
1
 10
86.152
 20
65.212
  0
VERTEX
  8
1
 10
84.779
 20
63.486
  0
VERTEX
  8
1
 10
64.605
 20
67.748
  0
VERTEX
  8
1
 10
42.681
 20
72.568
  0
VERTEX
  8
1
 10
20.788
 20
77.526
  0
SEQEND
  8
1
  0
ENDBLK
  0
BLOCK
  8
0
  2
1QQFOXINGQRF170
 70
    64
 10
0.000
 20
0.000
  0
TEXT
  8
127
 10
84.478
 20
112.777
 40
2.000
 50
-13.558
  1
1__FOXING_RF  17
  0
POLYLINE
  8
1
 66
     1
 10
20.791
 20
78.735
  0
VERTEX
  8
1
 10
20.791
 20
78.735
  0
VERTEX
  8
1
 10
20.672
 20
78.777
  0
VERTEX
  8
1
 10
20.557
 20
78.827
  0
VERTEX
  8
1
 10
20.445
 20
78.884
  0
VERTEX
  8
1
 10
20.336
 20
78.947
  0
VERTEX
  8
1
 10
20.232
 20
79.017
  0
VERTEX
  8
1
 10
20.133
 20
79.094
  0
VERTEX
  8
1
 10
20.038
 20
79.177
  0
VERTEX
  8
1
 10
19.949
 20
79.265
  0
VERTEX
  8
1
 10
19.866
 20
79.359
  0
VERTEX
  8
1
 10
19.788
 20
79.458
  0
VERTEX
  8
1
 10
19.717
 20
79.562
  0
VERTEX
  8
1
 10
19.653
 20
79.670
  0
VERTEX
  8
1
 10
19.596
 20
79.782
  0
VERTEX
  8
1
 10
19.545
 20
79.897
  0
VERTEX
  8
1
 10
19.502
 20
80.015
  0
VERTEX
  8
1
 10
19.467
 20
80.135
  0
VERTEX
  8
1
 10
19.439
 20
80.258
  0
VERTEX
  8
1
 10
19.419
 20
80.382
  0
VERTEX
  8
1
 10
19.407
 20
80.507
  0
VERTEX
  8
1
 10
19.403
 20
80.632
  0
VERTEX
  8
1
 10
19.406
 20
80.758
  0
VERTEX
  8
1
 10
19.418
 20
80.883
  0
VERTEX
  8
1
 10
19.437
 20
81.007
  0
VERTEX
  8
1
 10
19.464
 20
81.130
  0
VERTEX
  8
1
 10
19.498
 20
81.251
  0
VERTEX
  8
1
 10
19.541
 20
81.369
  0
VERTEX
  8
1
 10
19.590
 20
81.484
  0
VERTEX
  8
1
 10
19.647
 20
81.597
  0
VERTEX
  8
1
 10
19.710
 20
81.705
  0
VERTEX
  8
1
 10
19.781
 20
81.809
  0
VERTEX
  8
1
 10
19.798
 20
81.833
  0
VERTEX
  8
1
 10
24.721
 20
88.342
  0
VERTEX
  8
1
 10
29.560
 20
94.534
  0
VERTEX
  8
1
 10
32.999
 20
98.840
  0
VERTEX
  8
1
 10
36.505
 20
103.091
  0
VERTEX
  8
1
 10
40.114
 20
107.258
  0
VERTEX
  8
1
 10
43.866
 20
111.311
  0
VERTEX
  8
1
 10
45.656
 20
113.135
  0
VERTEX
  8
1
 10
47.488
 20
114.919
  0
VERTEX
  8
1
 10
49.363
 20
116.657
  0
VERTEX
  8
1
 10
51.285
 20
118.339
  0
VERTEX
  8
1
 10
53.256
 20
119.958
  0
VERTEX
  8
1
 10
55.279
 20
121.506
  0
VERTEX
  8
1
 10
57.357
 20
122.975
  0
VERTEX
  8
1
 10
59.492
 20
124.356
  0
VERTEX
  8
1
 10
62.074
 20
125.858
  0
VERTEX
  8
1
 10
64.731
 20
127.233
  0
VERTEX
  8
1
 10
67.454
 20
128.484
  0
VERTEX
  8
1
 10
70.235
 20
129.615
  0
VERTEX
  8
1
 10
73.066
 20
130.631
  0
VERTEX
  8
1
 10
75.938
 20
131.536
  0
VERTEX
  8
1
 10
78.843
 20
132.333
  0
VERTEX
  8
1
 10
81.772
 20
133.027
  0
VERTEX
  8
1
 10
85.065
 20
133.685
  0
VERTEX
  8
1
 10
88.374
 20
134.224
  0
VERTEX
  8
1
 10
91.697
 20
134.645
  0
VERTEX
  8
1
 10
95.030
 20
134.953
  0
VERTEX
  8
1
 10
98.369
 20
135.152
  0
VERTEX
  8
1
 10
101.711
 20
135.243
  0
VERTEX
  8
1
 10
105.053
 20
135.232
  0
VERTEX
  8
1
 10
108.390
 20
135.121
  0
VERTEX
  8
1
 10
112.180
 20
134.879
  0
VERTEX
  8
1
 10
115.960
 20
134.525
  0
VERTEX
  8
1
 10
119.731
 20
134.071
  0
VERTEX
  8
1
 10
123.493
 20
133.531
  0
VERTEX
  8
1
 10
127.247
 20
132.918
  0
VERTEX
  8
1
 10
130.993
 20
132.243
  0
VERTEX
  8
1
 10
134.731
 20
131.521
  0
VERTEX
  8
1
 10
138.462
 20
130.764
  0
VERTEX
  8
1
 10
148.175
 20
128.680
  0
VERTEX
  8
1
 10
157.850
 20
126.475
  0
VERTEX
  8
1
 10
158.367
 20
124.300
  0
VERTEX
  8
1
 10
159.777
 20
125.994
  0
VERTEX
  8
1
 10
169.360
 20
123.391
  0
VERTEX
  8
1
 10
178.920
 20
120.663
  0
VERTEX
  8
1
 10
182.569
 20
119.578
  0
VERTEX
  8
1
 10
186.208
 20
118.459
  0
VERTEX
  8
1
 10
189.831
 20
117.293
  0
VERTEX
  8
1
 10
193.433
 20
116.070
  0
VERTEX
  8
1
 10
197.007
 20
114.779
  0
VERTEX
  8
1
 10
200.549
 20
113.407
  0
VERTEX
  8
1
 10
204.052
 20
111.943
  0
VERTEX
  8
1
 10
207.511
 20
110.375
  0
VERTEX
  8
1
 10
210.509
 20
108.905
  0
VERTEX
  8
1
 10
213.464
 20
107.344
  0
VERTEX
  8
1
 10
216.371
 20
105.692
  0
VERTEX
  8
1
 10
219.225
 20
103.948
  0
VERTEX
  8
1
 10
222.022
 20
102.109
  0
VERTEX
  8
1
 10
224.756
 20
100.175
  0
VERTEX
  8
1
 10
227.424
 20
98.145
  0
VERTEX
  8
1
 10
230.021
 20
96.016
  0
VERTEX
  8
1
 10
232.281
 20
94.027
  0
VERTEX
  8
1
 10
234.470
 20
91.957
  0
VERTEX
  8
1
 10
236.580
 20
89.809
  0
VERTEX
  8
1
 10
238.601
 20
87.582
  0
VERTEX
  8
1
 10
240.524
 20
85.277
  0
VERTEX
  8
1
 10
242.339
 20
82.893
  0
VERTEX
  8
1
 10
244.038
 20
80.431
  0
VERTEX
  8
1
 10
245.612
 20
77.891
  0
VERTEX
  8
1
 10
246.847
 20
75.668
  0
VERTEX
  8
1
 10
247.991
 20
73.395
  0
VERTEX
  8
1
 10
249.049
 20
71.078
  0
VERTEX
  8
1
 10
250.027
 20
68.722
  0
VERTEX
  8
1
 10
250.933
 20
66.334
  0
VERTEX
  8
1
 10
251.772
 20
63.919
  0
VERTEX
  8
1
 10
252.550
 20
61.483
  0
VERTEX
  8
1
 10
253.273
 20
59.032
  0
VERTEX
  8
1
 10
254.679
 20
53.691
  0
VERTEX
  8
1
 10
255.907
 20
48.316
  0
VERTEX
  8
1
 10
257.003
 20
42.916
  0
VERTEX
  8
1
 10
258.015
 20
37.499
  0
VERTEX
  8
1
 10
259.375
 20
29.760
  0
VERTEX
  8
1
 10
260.675
 20
21.614
  0
VERTEX
  8
1
 10
260.681
 20
21.489
  0
VERTEX
  8
1
 10
260.682
 20
21.363
  0
VERTEX
  8
1
 10
260.676
 20
21.238
  0
VERTEX
  8
1
 10
260.662
 20
21.113
  0
VERTEX
  8
1
 10
260.640
 20
20.989
  0
VERTEX
  8
1
 10
260.610
 20
20.868
  0
VERTEX
  8
1
 10
260.573
 20
20.748
  0
VERTEX
  8
1
 10
260.528
 20
20.630
  0
VERTEX
  8
1
 10
260.476
 20
20.516
  0
VERTEX
  8
1
 10
260.417
 20
20.405
  0
VERTEX
  8
1
 10
260.351
 20
20.298
  0
VERTEX
  8
1
 10
260.279
 20
20.196
  0
VERTEX
  8
1
 10
260.200
 20
20.098
  0
VERTEX
  8
1
 10
260.115
 20
20.006
  0
VERTEX
  8
1
 10
260.025
 20
19.918
  0
VERTEX
  8
1
 10
259.929
 20
19.837
  0
VERTEX
  8
1
 10
259.829
 20
19.762
  0
VERTEX
  8
1
 10
259.723
 20
19.694
  0
VERTEX
  8
1
 10
259.614
 20
19.632
  0
VERTEX
  8
1
 10
259.501
 20
19.577
  0
VERTEX
  8
1
 10
259.385
 20
19.529
  0
VERTEX
  8
1
 10
259.266
 20
19.489
  0
VERTEX
  8
1
 10
259.145
 20
19.456
  0
VERTEX
  8
1
 10
259.022
 20
19.431
  0
VERTEX
  8
1
 10
258.898
 20
19.414
  0
VERTEX
  8
1
 10
258.773
 20
19.404
  0
VERTEX
  8
1
 10
258.647
 20
19.403
  0
VERTEX
  8
1
 10
258.522
 20
19.409
  0
VERTEX
  8
1
 10
258.397
 20
19.423
  0
VERTEX
  8
1
 10
258.330
 20
19.434
  0
VERTEX
  8
1
 10
236.268
 20
25.455
  0
VERTEX
  8
1
 10
214.243
 20
31.617
  0
VERTEX
  8
1
 10
203.669
 20
34.661
  0
VERTEX
  8
1
 10
193.098
 20
37.718
  0
VERTEX
  8
1
 10
182.518
 20
40.739
  0
VERTEX
  8
1
 10
171.913
 20
43.671
  0
VERTEX
  8
1
 10
156.581
 20
47.684
  0
VERTEX
  8
1
 10
141.209
 20
51.549
  0
VERTEX
  8
1
 10
140.710
 20
53.735
  0
VERTEX
  8
1
 10
139.268
 20
52.033
  0
VERTEX
  8
1
 10
123.881
 20
55.848
  0
VERTEX
  8
1
 10
108.459
 20
59.512
  0
VERTEX
  8
1
 10
93.132
 20
62.901
  0
VERTEX
  8
1
 10
93.544
 20
64.834
  0
VERTEX
  8
1
 10
91.588
 20
65.251
  0
VERTEX
  8
1
 10
91.176
 20
63.320
  0
VERTEX
  8
1
 10
90.684
 20
63.425
  0
VERTEX
  8
1
 10
90.886
 20
64.378
  0
VERTEX
  8
1
 10
90.897
 20
64.440
  0
VERTEX
  8
1
 10
90.904
 20
64.502
  0
VERTEX
  8
1
 10
90.908
 20
64.565
  0
VERTEX
  8
1
 10
90.907
 20
64.628
  0
VERTEX
  8
1
 10
90.902
 20
64.691
  0
VERTEX
  8
1
 10
90.894
 20
64.753
  0
VERTEX
  8
1
 10
90.881
 20
64.814
  0
VERTEX
  8
1
 10
90.865
 20
64.875
  0
VERTEX
  8
1
 10
90.845
 20
64.935
  0
VERTEX
  8
1
 10
90.821
 20
64.993
  0
VERTEX
  8
1
 10
90.794
 20
65.049
  0
VERTEX
  8
1
 10
90.763
 20
65.104
  0
VERTEX
  8
1
 10
90.729
 20
65.157
  0
VERTEX
  8
1
 10
90.691
 20
65.207
  0
VERTEX
  8
1
 10
90.651
 20
65.255
  0
VERTEX
  8
1
 10
90.607
 20
65.301
  0
VERTEX
  8
1
 10
90.561
 20
65.343
  0
VERTEX
  8
1
 10
90.512
 20
65.383
  0
VERTEX
  8
1
 10
90.461
 20
65.419
  0
VERTEX
  8
1
 10
90.408
 20
65.452
  0
VERTEX
  8
1
 10
90.352
 20
65.482
  0
VERTEX
  8
1
 10
90.295
 20
65.508
  0
VERTEX
  8
1
 10
90.237
 20
65.530
  0
VERTEX
  8
1
 10
90.177
 20
65.549
  0
VERTEX
  8
1
 10
90.116
 20
65.564
  0
VERTEX
  8
1
 10
90.054
 20
65.575
  0
VERTEX
  8
1
 10
89.991
 20
65.582
  0
VERTEX
  8
1
 10
89.929
 20
65.586
  0
VERTEX
  8
1
 10
89.866
 20
65.585
  0
VERTEX
  8
1
 10
89.803
 20
65.580
  0
VERTEX
  8
1
 10
89.741
 20
65.572
  0
VERTEX
  8
1
 10
89.679
 20
65.559
  0
VERTEX
  8
1
 10
89.619
 20
65.543
  0
VERTEX
  8
1
 10
89.559
 20
65.523
  0
VERTEX
  8
1
 10
89.501
 20
65.499
  0
VERTEX
  8
1
 10
89.444
 20
65.472
  0
VERTEX
  8
1
 10
89.390
 20
65.441
  0
VERTEX
  8
1
 10
89.337
 20
65.407
  0
VERTEX
  8
1
 10
89.286
 20
65.369
  0
VERTEX
  8
1
 10
89.239
 20
65.329
  0
VERTEX
  8
1
 10
89.193
 20
65.285
  0
VERTEX
  8
1
 10
89.151
 20
65.239
  0
VERTEX
  8
1
 10
89.111
 20
65.190
  0
VERTEX
  8
1
 10
89.075
 20
65.139
  0
VERTEX
  8
1
 10
89.042
 20
65.086
  0
VERTEX
  8
1
 10
89.012
 20
65.030
  0
VERTEX
  8
1
 10
88.986
 20
64.973
  0
VERTEX
  8
1
 10
88.963
 20
64.915
  0
VERTEX
  8
1
 10
88.945
 20
64.855
  0
VERTEX
  8
1
 10
88.930
 20
64.794
  0
VERTEX
  8
1
 10
88.727
 20
63.841
  0
VERTEX
  8
1
 10
88.221
 20
63.949
  0
VERTEX
  8
1
 10
87.665
 20
66.084
  0
VERTEX
  8
1
 10
86.291
 20
64.358
  0
VERTEX
  8
1
 10
85.772
 20
64.468
  0
VERTEX
  8
1
 10
85.214
 20
66.602
  0
VERTEX
  8
1
 10
83.842
 20
64.875
  0
VERTEX
  8
1
 10
65.430
 20
68.768
  0
VERTEX
  8
1
 10
43.095
 20
73.681
  0
VERTEX
  8
1
 10
20.791
 20
78.735
  0
SEQEND
  8
1
  0
ENDBLK
  0
BLOCK
  8
0
  2
1QQFOXINGQRF180
 70
    64
 10
0.000
 20
0.000
  0
TEXT
  8
127
 10
85.823
 20
114.262
 40
2.000
 50
-13.558
  1
1__FOXING_RF  18
  0
POLYLINE
  8
1
 66
     1
 10
20.792
 20
79.944
  0
VERTEX
  8
1
 10
20.792
 20
79.944
  0
VERTEX
  8
1
 10
20.673
 20
79.986
  0
VERTEX
  8
1
 10
20.558
 20
80.036
  0
VERTEX
  8
1
 10
20.446
 20
80.092
  0
VERTEX
  8
1
 10
20.337
 20
80.156
  0
VERTEX
  8
1
 10
20.233
 20
80.226
  0
VERTEX
  8
1
 10
20.134
 20
80.302
  0
VERTEX
  8
1
 10
20.039
 20
80.385
  0
VERTEX
  8
1
 10
19.950
 20
80.474
  0
VERTEX
  8
1
 10
19.866
 20
80.567
  0
VERTEX
  8
1
 10
19.789
 20
80.666
  0
VERTEX
  8
1
 10
19.718
 20
80.770
  0
VERTEX
  8
1
 10
19.654
 20
80.878
  0
VERTEX
  8
1
 10
19.596
 20
80.989
  0
VERTEX
  8
1
 10
19.546
 20
81.105
  0
VERTEX
  8
1
 10
19.503
 20
81.223
  0
VERTEX
  8
1
 10
19.467
 20
81.343
  0
VERTEX
  8
1
 10
19.440
 20
81.465
  0
VERTEX
  8
1
 10
19.419
 20
81.589
  0
VERTEX
  8
1
 10
19.407
 20
81.714
  0
VERTEX
  8
1
 10
19.403
 20
81.840
  0
VERTEX
  8
1
 10
19.406
 20
81.966
  0
VERTEX
  8
1
 10
19.417
 20
82.091
  0
VERTEX
  8
1
 10
19.437
 20
82.215
  0
VERTEX
  8
1
 10
19.463
 20
82.337
  0
VERTEX
  8
1
 10
19.498
 20
82.458
  0
VERTEX
  8
1
 10
19.540
 20
82.577
  0
VERTEX
  8
1
 10
19.589
 20
82.692
  0
VERTEX
  8
1
 10
19.646
 20
82.804
  0
VERTEX
  8
1
 10
19.710
 20
82.912
  0
VERTEX
  8
1
 10
19.744
 20
82.966
  0
VERTEX
  8
1
 10
24.911
 20
89.840
  0
VERTEX
  8
1
 10
29.819
 20
96.153
  0
VERTEX
  8
1
 10
33.310
 20
100.541
  0
VERTEX
  8
1
 10
36.870
 20
104.872
  0
VERTEX
  8
1
 10
40.537
 20
109.116
  0
VERTEX
  8
1
 10
44.352
 20
113.242
  0
VERTEX
  8
1
 10
46.173
 20
115.097
  0
VERTEX
  8
1
 10
48.037
 20
116.913
  0
VERTEX
  8
1
 10
49.945
 20
118.680
  0
VERTEX
  8
1
 10
51.902
 20
120.391
  0
VERTEX
  8
1
 10
53.908
 20
122.038
  0
VERTEX
  8
1
 10
55.968
 20
123.611
  0
VERTEX
  8
1
 10
58.084
 20
125.103
  0
VERTEX
  8
1
 10
60.258
 20
126.506
  0
VERTEX
  8
1
 10
62.890
 20
128.032
  0
VERTEX
  8
1
 10
65.598
 20
129.428
  0
VERTEX
  8
1
 10
68.373
 20
130.697
  0
VERTEX
  8
1
 10
71.208
 20
131.844
  0
VERTEX
  8
1
 10
74.093
 20
132.872
  0
VERTEX
  8
1
 10
77.020
 20
133.787
  0
VERTEX
  8
1
 10
79.980
 20
134.591
  0
VERTEX
  8
1
 10
82.966
 20
135.290
  0
VERTEX
  8
1
 10
86.325
 20
135.952
  0
VERTEX
  8
1
 10
89.702
 20
136.491
  0
VERTEX
  8
1
 10
93.092
 20
136.911
  0
VERTEX
  8
1
 10
96.492
 20
137.215
  0
VERTEX
  8
1
 10
99.899
 20
137.407
  0
VERTEX
  8
1
 10
103.308
 20
137.491
  0
VERTEX
  8
1
 10
106.716
 20
137.470
  0
VERTEX
  8
1
 10
110.120
 20
137.348
  0
VERTEX
  8
1
 10
113.993
 20
137.092
  0
VERTEX
  8
1
 10
117.856
 20
136.723
  0
VERTEX
  8
1
 10
121.710
 20
136.254
  0
VERTEX
  8
1
 10
125.554
 20
135.698
  0
VERTEX
  8
1
 10
129.391
 20
135.067
  0
VERTEX
  8
1
 10
133.218
 20
134.376
  0
VERTEX
  8
1
 10
137.039
 20
133.636
  0
VERTEX
  8
1
 10
140.852
 20
132.861
  0
VERTEX
  8
1
 10
150.788
 20
130.732
  0
VERTEX
  8
1
 10
160.688
 20
128.484
  0
VERTEX
  8
1
 10
161.205
 20
126.316
  0
VERTEX
  8
1
 10
162.608
 20
128.005
  0
VERTEX
  8
1
 10
172.410
 20
125.338
  0
VERTEX
  8
1
 10
182.189
 20
122.548
  0
VERTEX
  8
1
 10
185.919
 20
121.440
  0
VERTEX
  8
1
 10
189.639
 20
120.298
  0
VERTEX
  8
1
 10
193.343
 20
119.111
  0
VERTEX
  8
1
 10
197.026
 20
117.865
  0
VERTEX
  8
1
 10
200.681
 20
116.551
  0
VERTEX
  8
1
 10
204.304
 20
115.155
  0
VERTEX
  8
1
 10
207.887
 20
113.666
  0
VERTEX
  8
1
 10
211.427
 20
112.072
  0
VERTEX
  8
1
 10
214.489
 20
110.580
  0
VERTEX
  8
1
 10
217.507
 20
108.997
  0
VERTEX
  8
1
 10
220.477
 20
107.322
  0
VERTEX
  8
1
 10
223.394
 20
105.552
  0
VERTEX
  8
1
 10
226.253
 20
103.687
  0
VERTEX
  8
1
 10
229.049
 20
101.724
  0
VERTEX
  8
1
 10
231.777
 20
99.662
  0
VERTEX
  8
1
 10
234.432
 20
97.499
  0
VERTEX
  8
1
 10
236.739
 20
95.480
  0
VERTEX
  8
1
 10
238.974
 20
93.379
  0
VERTEX
  8
1
 10
241.128
 20
91.196
  0
VERTEX
  8
1
 10
243.192
 20
88.933
  0
VERTEX
  8
1
 10
245.156
 20
86.589
  0
VERTEX
  8
1
 10
247.010
 20
84.165
  0
VERTEX
  8
1
 10
248.745
 20
81.661
  0
VERTEX
  8
1
 10
250.351
 20
79.077
  0
VERTEX
  8
1
 10
251.612
 20
76.818
  0
VERTEX
  8
1
 10
252.778
 20
74.507
  0
VERTEX
  8
1
 10
253.858
 20
72.150
  0
VERTEX
  8
1
 10
254.856
 20
69.754
  0
VERTEX
  8
1
 10
255.779
 20
67.325
  0
VERTEX
  8
1
 10
256.634
 20
64.868
  0
VERTEX
  8
1
 10
257.426
 20
62.389
  0
VERTEX
  8
1
 10
258.162
 20
59.896
  0
VERTEX
  8
1
 10
259.591
 20
54.461
  0
VERTEX
  8
1
 10
260.836
 20
48.992
  0
VERTEX
  8
1
 10
261.943
 20
43.496
  0
VERTEX
  8
1
 10
262.964
 20
37.983
  0
VERTEX
  8
1
 10
264.331
 20
30.104
  0
VERTEX
  8
1
 10
265.665
 20
21.608
  0
VERTEX
  8
1
 10
265.671
 20
21.483
  0
VERTEX
  8
1
 10
265.672
 20
21.358
  0
VERTEX
  8
1
 10
265.666
 20
21.232
  0
VERTEX
  8
1
 10
265.651
 20
21.107
  0
VERTEX
  8
1
 10
265.629
 20
20.984
  0
VERTEX
  8
1
 10
265.599
 20
20.862
  0
VERTEX
  8
1
 10
265.561
 20
20.742
  0
VERTEX
  8
1
 10
265.516
 20
20.625
  0
VERTEX
  8
1
 10
265.464
 20
20.511
  0
VERTEX
  8
1
 10
265.405
 20
20.400
  0
VERTEX
  8
1
 10
265.338
 20
20.294
  0
VERTEX
  8
1
 10
265.266
 20
20.191
  0
VERTEX
  8
1
 10
265.186
 20
20.094
  0
VERTEX
  8
1
 10
265.101
 20
20.001
  0
VERTEX
  8
1
 10
265.011
 20
19.915
  0
VERTEX
  8
1
 10
264.915
 20
19.834
  0
VERTEX
  8
1
 10
264.814
 20
19.759
  0
VERTEX
  8
1
 10
264.709
 20
19.691
  0
VERTEX
  8
1
 10
264.599
 20
19.629
  0
VERTEX
  8
1
 10
264.486
 20
19.574
  0
VERTEX
  8
1
 10
264.370
 20
19.527
  0
VERTEX
  8
1
 10
264.251
 20
19.487
  0
VERTEX
  8
1
 10
264.130
 20
19.455
  0
VERTEX
  8
1
 10
264.007
 20
19.430
  0
VERTEX
  8
1
 10
263.882
 20
19.413
  0
VERTEX
  8
1
 10
263.757
 20
19.404
  0
VERTEX
  8
1
 10
263.631
 20
19.403
  0
VERTEX
  8
1
 10
263.506
 20
19.409
  0
VERTEX
  8
1
 10
263.381
 20
19.424
  0
VERTEX
  8
1
 10
263.319
 20
19.434
  0
VERTEX
  8
1
 10
240.847
 20
25.558
  0
VERTEX
  8
1
 10
218.415
 20
31.823
  0
VERTEX
  8
1
 10
207.600
 20
34.931
  0
VERTEX
  8
1
 10
196.789
 20
38.054
  0
VERTEX
  8
1
 10
185.968
 20
41.139
  0
VERTEX
  8
1
 10
175.123
 20
44.134
  0
VERTEX
  8
1
 10
159.439
 20
48.239
  0
VERTEX
  8
1
 10
143.714
 20
52.192
  0
VERTEX
  8
1
 10
143.215
 20
54.380
  0
VERTEX
  8
1
 10
141.772
 20
52.676
  0
VERTEX
  8
1
 10
126.030
 20
56.574
  0
VERTEX
  8
1
 10
110.254
 20
60.319
  0
VERTEX
  8
1
 10
94.644
 20
63.771
  0
VERTEX
  8
1
 10
95.057
 20
65.703
  0
VERTEX
  8
1
 10
93.101
 20
66.121
  0
VERTEX
  8
1
 10
92.689
 20
64.190
  0
VERTEX
  8
1
 10
92.200
 20
64.294
  0
VERTEX
  8
1
 10
92.402
 20
65.247
  0
VERTEX
  8
1
 10
92.413
 20
65.309
  0
VERTEX
  8
1
 10
92.421
 20
65.371
  0
VERTEX
  8
1
 10
92.424
 20
65.434
  0
VERTEX
  8
1
 10
92.423
 20
65.497
  0
VERTEX
  8
1
 10
92.419
 20
65.560
  0
VERTEX
  8
1
 10
92.410
 20
65.622
  0
VERTEX
  8
1
 10
92.398
 20
65.683
  0
VERTEX
  8
1
 10
92.381
 20
65.744
  0
VERTEX
  8
1
 10
92.361
 20
65.804
  0
VERTEX
  8
1
 10
92.338
 20
65.862
  0
VERTEX
  8
1
 10
92.310
 20
65.918
  0
VERTEX
  8
1
 10
92.279
 20
65.973
  0
VERTEX
  8
1
 10
92.245
 20
66.026
  0
VERTEX
  8
1
 10
92.208
 20
66.076
  0
VERTEX
  8
1
 10
92.167
 20
66.124
  0
VERTEX
  8
1
 10
92.124
 20
66.170
  0
VERTEX
  8
1
 10
92.077
 20
66.212
  0
VERTEX
  8
1
 10
92.029
 20
66.252
  0
VERTEX
  8
1
 10
91.977
 20
66.288
  0
VERTEX
  8
1
 10
91.924
 20
66.321
  0
VERTEX
  8
1
 10
91.869
 20
66.351
  0
VERTEX
  8
1
 10
91.811
 20
66.377
  0
VERTEX
  8
1
 10
91.753
 20
66.399
  0
VERTEX
  8
1
 10
91.693
 20
66.418
  0
VERTEX
  8
1
 10
91.632
 20
66.433
  0
VERTEX
  8
1
 10
91.570
 20
66.444
  0
VERTEX
  8
1
 10
91.508
 20
66.451
  0
VERTEX
  8
1
 10
91.445
 20
66.455
  0
VERTEX
  8
1
 10
91.382
 20
66.454
  0
VERTEX
  8
1
 10
91.319
 20
66.449
  0
VERTEX
  8
1
 10
91.257
 20
66.441
  0
VERTEX
  8
1
 10
91.196
 20
66.429
  0
VERTEX
  8
1
 10
91.135
 20
66.412
  0
VERTEX
  8
1
 10
91.075
 20
66.392
  0
VERTEX
  8
1
 10
91.017
 20
66.368
  0
VERTEX
  8
1
 10
90.961
 20
66.341
  0
VERTEX
  8
1
 10
90.906
 20
66.310
  0
VERTEX
  8
1
 10
90.853
 20
66.276
  0
VERTEX
  8
1
 10
90.803
 20
66.239
  0
VERTEX
  8
1
 10
90.755
 20
66.198
  0
VERTEX
  8
1
 10
90.710
 20
66.155
  0
VERTEX
  8
1
 10
90.667
 20
66.108
  0
VERTEX
  8
1
 10
90.627
 20
66.059
  0
VERTEX
  8
1
 10
90.591
 20
66.008
  0
VERTEX
  8
1
 10
90.558
 20
65.955
  0
VERTEX
  8
1
 10
90.528
 20
65.900
  0
VERTEX
  8
1
 10
90.502
 20
65.842
  0
VERTEX
  8
1
 10
90.480
 20
65.784
  0
VERTEX
  8
1
 10
90.461
 20
65.724
  0
VERTEX
  8
1
 10
90.446
 20
65.663
  0
VERTEX
  8
1
 10
90.244
 20
64.711
  0
VERTEX
  8
1
 10
89.741
 20
64.818
  0
VERTEX
  8
1
 10
89.185
 20
66.952
  0
VERTEX
  8
1
 10
87.811
 20
65.227
  0
VERTEX
  8
1
 10
87.295
 20
65.336
  0
VERTEX
  8
1
 10
86.738
 20
67.470
  0
VERTEX
  8
1
 10
85.365
 20
65.744
  0
VERTEX
  8
1
 10
84.850
 20
65.853
  0
VERTEX
  8
1
 10
84.292
 20
67.987
  0
VERTEX
  8
1
 10
82.919
 20
66.260
  0
VERTEX
  8
1
 10
66.253
 20
69.788
  0
VERTEX
  8
1
 10
43.506
 20
74.794
  0
VERTEX
  8
1
 10
20.792
 20
79.944
  0
SEQEND
  8
1
  0
ENDBLK
  0
ENDSEC
  0
SECTION
  2
ENTITIES
  0
INSERT
  8
1
  2
1QQFOXINGQRF030
 10
19.303
 20
19.303
  0
INSERT
  8
1
  2
1QQFOXINGQRF040
 10
195.403
 20
19.303
  0
INSERT
  8
1
  2
1QQFOXINGQRF050
 10
376.544
 20
19.303
  0
INSERT
  8
1
  2
1QQFOXINGQRF060
 10
562.719
 20
19.303
  0
INSERT
  8
1
  2
1QQFOXINGQRF070
 10
19.303
 20
115.492
  0
INSERT
  8
1
  2
1QQFOXINGQRF080
 10
215.532
 20
115.492
  0
INSERT
  8
1
  2
1QQFOXINGQRF090
 10
416.782
 20
115.492
  0
INSERT
  8
1
  2
1QQFOXINGQRF100
 10
623.047
 20
115.492
  0
INSERT
  8
1
  2
1QQFOXINGQRF110
 10
19.303
 20
220.646
  0
INSERT
  8
1
  2
1QQFOXINGQRF120
 10
235.590
 20
220.646
  0
INSERT
  8
1
  2
1QQFOXINGQRF130
 10
456.882
 20
220.646
  0
INSERT
  8
1
  2
1QQFOXINGQRF140
 10
683.178
 20
220.646
  0
INSERT
  8
1
  2
1QQFOXINGQRF150
 10
19.303
 20
334.760
  0
INSERT
  8
1
  2
1QQFOXINGQRF160
 10
255.595
 20
334.760
  0
INSERT
  8
1
  2
1QQFOXINGQRF170
 10
496.882
 20
334.760
  0
INSERT
  8
1
  2
1QQFOXINGQRF180
 10
743.162
 20
334.760
  0
ENDSEC
  0
SECTION
  2
OBJECTS
  0
DICTIONARY
  5
C
330
0
100
AcDbDictionary
281
     1
  3
ACAD_GROUP
350
D
  0
DICTIONARY
  5
D
330
C
100
AcDbDictionary
281
     1
  0
ENDSEC
  0
EOF
